<svg width="163" height="195" viewBox="0 0 163 195" fill="none" xmlns="http://www.w3.org/2000/svg"><path d="M157.305 164.071L48.39 193.254a5.005 5.005 0 01-6.13-3.539L3.105 43.593a5.006 5.006 0 013.54-6.13L115.56 8.279a5.006 5.006 0 016.131 3.54l39.153 146.121a5.006 5.006 0 01-3.539 6.131z" fill="#80B4FB"/><path d="M115.56 8.279l-3.336.894 38.259 142.785a5.007 5.007 0 01-3.54 6.131L41.365 186.378l.894 3.337a5.005 5.005 0 006.13 3.539l108.916-29.183a5.006 5.006 0 003.539-6.131L121.691 11.819a5.006 5.006 0 00-6.131-3.54z" fill="#3E70FF"/><path d="M71.543 30.401l-15.717 4.211-2.318-8.65a8.016 8.016 0 015.669-9.818l.23-.062a8.016 8.016 0 019.818 5.668l2.318 8.651z" fill="#F37168"/><path d="M59.407 16.082l-.23.062a8.005 8.005 0 00-2.25.992 8.019 8.019 0 017.372 5.935l2.318 8.65 4.926-1.32-2.318-8.65a8.016 8.016 0 00-9.818-5.67z" fill="#D54A41"/><path d="M76.057 170.176l66.105-17.713a5.005 5.005 0 003.539-6.131L115.138 32.267a5.075 5.075 0 00-6.216-3.589L22.593 51.81a5.075 5.075 0 00-3.588 6.215l25.109 93.709c.077.287.228.547.434.754.104.105 17.975 4.215 17.975 4.215s12.626 13.464 12.663 13.474c.283.075.583.076.87-.001z" fill="#fff"/><path d="M108.922 28.678l-6.082 1.63 28.934 107.983a5.006 5.006 0 01-3.54 6.131l-57.42 15.386s4.229 10.331 4.372 10.369c.283.075.583.076.87-.001l66.106-17.713a5.004 5.004 0 003.539-6.13L115.137 32.267a5.074 5.074 0 00-6.215-3.589z" fill="#E4F6FF"/><path d="M65.712 146.813a3.109 3.109 0 013.806 2.198l5.67 21.159a1.666 1.666 0 01-.415-.164l-29.871-17.245a1.712 1.712 0 01-.35-.278l21.16-5.67z" fill="#E4F6FF"/><path d="M65.713 146.813l-8.45 2.265a3.107 3.107 0 013.806 2.197l3.43 12.799 10.275 5.932c.13.076.27.133.413.171l-5.668-21.166a3.108 3.108 0 00-3.806-2.198z" fill="#A8C8FF"/><path d="M88.5 41.313l-2.999 3.29a1.894 1.894 0 01-1.974.53l-4.073-1.297a1.894 1.894 0 00-1.974.53l-2.877 3.157a1.894 1.894 0 01-1.975.53l-4.072-1.297a1.894 1.894 0 00-1.974.53l-2.878 3.158a1.894 1.894 0 01-1.974.529l-4.072-1.297a1.894 1.894 0 00-1.974.53l-2.877 3.157a1.894 1.894 0 01-1.975.53l-4.241-1.351a1.894 1.894 0 01-1.255-1.314L42.432 40.39a3.383 3.383 0 012.392-4.144l37.059-9.93a3.383 3.383 0 014.144 2.393l2.903 10.837a1.895 1.895 0 01-.43 1.766z" fill="#F37168"/><path d="M81.883 26.317l-7.47 2.002a3.383 3.383 0 014.144 2.392l2.903 10.837a1.893 1.893 0 01-.43 1.766l-.722.793 3.22 1.025a1.894 1.894 0 001.974-.53l2.999-3.29a1.894 1.894 0 00.43-1.766L86.026 28.71a3.383 3.383 0 00-4.144-2.393z" fill="#D54A41"/><path d="M117.942 126.664l-44.944 12.043a2.538 2.538 0 11-1.314-4.902l44.944-12.043a2.538 2.538 0 011.314 4.902zm3.023 11.285l-44.944 12.042a2.537 2.537 0 11-1.313-4.902l44.944-12.042a2.537 2.537 0 111.313 4.902z" fill="#A8C8FF"/><path d="M72.633 71.732l.258-2.958-12.866 3.447-1.538-1.82 12.865-3.447.258-2.958-13.845 3.71.422-2.346 13.968-3.743 1.002-2.632-20.34 5.45-2.416 8.133 5.67 5.966 8.576-2.298-2.797-1.615 10.783-2.889zm-3.085 3.19l-2.686 1.246 9.66 9.099-.667 2.41-9.66-9.098-2.81 1.278 10.536 9.915-2.295.746-10.536-9.915-2.761.478L73.65 95.623l8.21-2.2 2.204-7.945-6.503-6.136.086 3.26-8.099-7.68zm4.512 1.155l2.429 1.713 3.073-13.036 2.36-.501-2.983 12.88 2.43 1.714 3.21-13.993 1.996 1.567-3.334 14.025 1.76 2.155 4.886-20.482-6.07-5.99-7.842 2.1-2.13 8.714 2.71-1.646-2.495 10.78zm-1.872 31.406l-4.9 1.313 3.61 13.478-2.94.788-3.611-13.478-4.901 1.314-.657-2.451 12.743-3.414.656 2.45zm6.998 2.59l2.818-.755c2.082-.558 3.651-.584 4.583-.046.933.538 1.751 1.632 2.243 3.47.296 1.102.403 1.993.322 2.671-.08.678-.317 1.267-.831 1.799-.514.531-.971.785-1.674 1.105-.58.287-1.437.516-2.54.812-1.96.525-3.709.862-5.334 1.166l-.123.033-4.268-15.928c2.05-.681 3.766-1.14 5.114-1.501 1.47-.394 3.185-.854 5.178-1.257l.38 2.394-7.23 1.937 1.117 4.166.245-.066zm1.904 7.107l2.818-.756c1.102-.295 1.805-.615 2.074-1.081.269-.466.227-1.111-.035-2.091-.263-.98-.582-1.683-1.049-1.952-.466-.269-1.234-.195-2.336.101l-2.818.755 1.346 5.024zm19.969-20.06l4.268 15.929-2.94.788-3.677-13.723-2.45.657c-.981.262-1.34.884-1.2 1.897.445 2.638.847 4.632.93 5.922.084 1.291.134 2.46-.003 3.416-.357 2.59-1.654 4.12-3.892 4.588l-.836-2.139a4.233 4.233 0 001.306-1.007c.302-.344.448-.777.53-1.455.137-.956.087-2.125.003-3.415-.083-1.291-.453-3.162-.897-5.801-.346-2.271.494-3.546 2.7-4.137l6.126-1.642.032.123z" fill="#015CBB"/></svg>