<svg width="292" height="120" viewBox="0 0 292 120" fill="none" xmlns="http://www.w3.org/2000/svg"><path d="M151.677 104.829L34.009 106.61c-4.76 0-8.62-4.809-8.62-10.75V8.79c0-4.823 3.13-8.722 7.004-8.722h116.013c2.604 0 3.284.845 3.284 4.081v100.68h-.013z" fill="#618FD1"/><path d="M144.954 103.908H12.971C5.808 103.908 0 99.052 0 93.064V6.41C0 2.998 3.301.238 7.38.238h137.574v103.669z" fill="#3E70FF"/><path d="M150.984 8.672c0-1.234.988-2.235 2.206-2.235h19.306c9.646 0 11.494-.312 17.728 7.149l31.287 32.52a33.54 33.54 0 017.773 21.485v15.363c0 6.447-5.169 11.672-11.532 11.66l-66.768-.144V8.672z" fill="#A8C8FF"/><path d="M153.434 106.61c31.698 0 70.514-1.3 74.209-1.3 3.694 0 4.323-26.008 2.386-29.752-3.079-5.927-7.107-2.794-7.928 4.888-.821 7.642-1.847 11.763-1.847 11.763l-24.847-.416-47.437-.832 5.464 15.649z" fill="#618FD1"/><path d="M229.284 63.562c-1.141-9.203-7.76-13.401-15.855-13.375-4.156.013 5.888 8.059 9.788 16.273 3.361 7.084 6.888 3.705 6.067-2.898z" fill="#fff"/><path d="M156.795 13.547s25.873-.416 28.747 0c2.873.415 16.022 12.633 24.231 22.239l8.21 9.605s-35.315-1.404-35.93-2.782c-.283-.623-9.441-4.77-15.817-6.823-6.362-2.054-5.541-.806-8.21-1.846-2.668-1.04-1.231-20.393-1.231-20.393z" fill="#E8F1FF"/><path d="M190.198 106.194c1.257-2.469 1.963-5.407 1.963-8.864 0-13.7-10.955-24.8-24.475-24.8-13.521 0-24.476 11.1-24.476 24.8 0 3.652.783 6.732 2.181 9.28h8.056c11.981 0 25.001-.182 36.751-.416z" fill="#618FD1"/><path d="M167.673 117.307c10.783 0 19.524-8.857 19.524-19.782 0-10.926-8.741-19.783-19.524-19.783-10.782 0-19.524 8.857-19.524 19.783 0 10.925 8.742 19.782 19.524 19.782z" fill="#2453BC"/><path d="M167.673 107.715c5.554 0 10.057-4.562 10.057-10.19 0-5.628-4.503-10.19-10.057-10.19-5.555 0-10.057 4.562-10.057 10.19 0 5.628 4.502 10.19 10.057 10.19z" fill="#fff"/><path d="M38.462 115.472c10.782 0 19.523-8.857 19.523-19.782 0-10.926-8.74-19.783-19.523-19.783S18.938 84.764 18.938 95.69c0 10.925 8.741 19.782 19.524 19.782z" fill="#2453BC"/><path d="M38.461 105.88c5.555 0 10.057-4.562 10.057-10.19 0-5.628-4.502-10.19-10.057-10.19-5.554 0-10.057 4.562-10.057 10.19 0 5.628 4.503 10.19 10.057 10.19z" fill="#fff"/><path d="M150.134 119.582H86.443a.18.18 0 01-.177-.178v-35.54c0-.097.08-.178.177-.178h63.209c.369 0 .659.29.659.662v35.056c.016.097-.081.178-.177.178z" fill="#EB9C63"/><path d="M131.721 119.582H68.03a.18.18 0 01-.177-.178v-35.54c0-.097.08-.178.177-.178h63.691a.18.18 0 01.177.178v35.54a.18.18 0 01-.177.178z" fill="#F0B589"/><g opacity=".5" fill="#E86C1F"><path opacity=".5" d="M128.797 94.618h-6.395a.179.179 0 01-.177-.178v-.888c0-.097.08-.178.177-.178h6.395c.096 0 .176.081.176.178v.888c0 .097-.08.178-.176.178z"/><path opacity=".5" d="M123.913 88.272l-.772.775a.18.18 0 00.129.307h.016a.18.18 0 01.177.177v4.263c0 .097.08.178.176.178h.788c.096 0 .176-.08.176-.178v-4.263a.18.18 0 01.177-.177h.016a.18.18 0 00.129-.307l-.771-.775c-.049-.065-.177-.065-.241 0zm3.213 0l-.771.775a.18.18 0 00.128.307h.016c.097 0 .177.08.177.177v4.263c0 .097.08.178.177.178h.787a.18.18 0 00.177-.178v-4.263c0-.097.08-.177.177-.177h.016a.18.18 0 00.128-.307l-.771-.775a.174.174 0 00-.241 0z"/></g><path d="M129.087 119.582H65.396a.179.179 0 01-.177-.178v-35.54c0-.097.08-.178.177-.178h63.691c.096 0 .176.08.176.178v35.54c0 .097-.08.178-.176.178z" fill="#EB9C63"/><path d="M110.673 119.582H46.966a.179.179 0 01-.177-.178v-35.54c0-.097.08-.178.177-.178h63.691a.18.18 0 01.177.178v35.54c.016.097-.065.178-.161.178z" fill="#F0B589"/><g opacity=".5" fill="#E86C1F"><path opacity=".5" d="M107.733 94.618h-6.395a.179.179 0 01-.177-.178v-.888c0-.097.08-.178.177-.178h6.395c.096 0 .176.081.176.178v.888c.017.097-.064.178-.176.178z"/><path opacity=".5" d="M102.864 88.272l-.771.775a.18.18 0 00.128.307h.017c.096 0 .176.08.176.177v4.263a.18.18 0 00.177.178h.787c.097 0 .177-.08.177-.178v-4.263c0-.097.08-.177.177-.177h.016a.18.18 0 00.128-.307l-.771-.775a.174.174 0 00-.241 0zm3.198 0l-.771.775a.18.18 0 00.128.307h.016c.097 0 .177.08.177.177v4.263c0 .097.08.178.177.178h.787a.18.18 0 00.177-.178v-4.263c0-.097.08-.177.177-.177h.016a.18.18 0 00.128-.307l-.771-.775c-.048-.065-.161-.065-.241 0z"/></g><path d="M134.308 84.187H72.722a.179.179 0 01-.177-.178V49.648c0-.097.08-.178.177-.178h61.088c.369 0 .659.29.659.662v33.861a.163.163 0 01-.161.194z" fill="#F0A065"/><path d="M116.505 82.992H54.919a.179.179 0 01-.177-.178V49.648c0-.097.08-.178.177-.178h61.586c.097 0 .177.08.177.178v33.166c0 .097-.08.178-.177.178z" fill="#F0B589"/><g opacity=".5" fill="#E86C1F"><path opacity=".5" d="M113.662 60.063h-6.17a.179.179 0 01-.177-.178v-.84c0-.096.08-.177.177-.177h6.17c.096 0 .176.08.176.177v.84c.016.097-.064.178-.176.178z"/><path opacity=".5" d="M108.954 53.927l-.739.742a.18.18 0 00.128.307.18.18 0 01.177.178v4.101c0 .097.08.178.177.178h.739c.096 0 .176-.08.176-.178v-4.101a.18.18 0 01.177-.178.18.18 0 00.129-.306l-.739-.743c-.049-.065-.161-.065-.225 0zm3.101 0l-.739.742a.18.18 0 00.129.307c.096 0 .176.081.176.178v4.101a.18.18 0 00.177.178h.739c.097 0 .177-.08.177-.178v-4.101c0-.097.08-.178.177-.178a.18.18 0 00.128-.306l-.739-.743c-.048-.065-.161-.065-.225 0z"/></g><path d="M266.53 21.891c.479-1.677-.078-2.274.181-4.627.285-2.47.556-4.627-1.798-5.901s-5.354-4.003-7.372-2.405c-2.017 1.612-3.841.897-4.72 2.34-.88 1.443-1.333 2.847-1.113 5.537.168 1.846 14.822 5.056 14.822 5.056z" fill="#303C60"/><path d="M233.576 113.356s-1.293.611-5.484-.546c-3.285-.91-6.829-1.521-4.591.663 2.237 2.183 6.04 3.509 7.553 3.613 1.513.104 3.596 1.755 4.591 1.001.996-.754 1.41-4.276 1.307-4.263-.104-.013-3.376-.468-3.376-.468zm52.16-4.523s6.415 3.899 5.2 4.835c-1.203.936-3.117 2.573-4.566 4.224-1.448 1.651-6.79 2.223-6.971 1.3-.181-.936 3.208-2.418 3.751-3.25.543-.832.245-5.316.245-5.316l2.341-1.793z" fill="#0F2D5C"/><path d="M254.308 67.448S263.943 93.989 266 96.576c2.056 2.586 17.434 16.637 17.434 16.637s3.996-2.444 3.13-4.094c-.867-1.651-8.665-15.507-12.222-19.367-3.557-3.86-1.462-18.405-5.73-29.232-4.268-10.827-14.304 6.928-14.304 6.928z" fill="#3E70FF"/><path d="M254.308 67.448s10.049-17.768 14.304-6.94c1.565 3.977 2.393 8.76 2.755 13.01-3.518 8.058-5.393 16.507-6.143 21.693-3.04-6.057-10.916-27.763-10.916-27.763z" fill="#2453BC"/><path d="M263.568 16.575s3.712 6.68 7.76 13.856c6.57 11.646-.827 32.793-3.168 35.054-2.341 2.275-14.537-1.754-15.3-3.444-.764-1.69.271-13.18 3.931-20.42 3.66-7.24 5.523-12.1 4.54-15.298-.828-2.677-2.069-7.707-2.069-7.707l4.306-2.04z" fill="#F09959"/><path d="M263.569 16.575l-4.307 2.028s1.241 5.043 2.069 7.707c.194.637.285 1.34.259 2.119 1.526-1.339 3.349-3.561 4.604-7.162l-2.625-4.692z" fill="#E38540"/><path d="M253.648 17.758c-.97 3.288-.426 6.94 1.617 7.928 1.487.715 6.531-.325 7.282-4.055.711-3.522.582-6.824-1.876-7.902-2.457-1.066-6.014.585-7.023 4.029z" fill="#F09959"/><path d="M254.166 58.246c-5.044 24.942-23.151 53.615-22.284 55.227.827 1.533 5.199 2.144 5.199 2.144s14.834-15.766 15.908-22.694c1.073-6.927 15.442-17.715 17.072-26.736 1.63-9.02 0-7.473 0-7.473l-15.895-.468z" fill="#3E70FF"/><path d="M260.206 31.561c-4.048 3.21-14.24 5.888-14.24 5.888h13.296l.944-5.888z" fill="#81CFFF"/><path d="M270.786 28.494l-1.643-2.782s-.918.95-3.841 2.21-4.747 1.209-4.747 1.209l-3.712 12.127 12.054-5.888 1.889-6.876z" fill="#81CFFF"/><path d="M271.354 27.701c-4.255-1.599-8.393 4.458-9.855 7.409-1.461 2.95-2.16 5.03-2.16 5.03l-2.496-.689s-2.936 6.759-3.453 10.138c-.517 3.38-1.125 14.948-1.125 14.948s18.236-1.053 18.3-1.6c.065-.545 2.962-6.446 3.893-11.008 1.526-7.448.75-18.028-.931-20.966-1.681-2.937-2.173-3.262-2.173-3.262z" fill="#3E70FF"/><path d="M258.848 64.043h-31.855c-.077 0-.077-28.907 0-28.907h31.855c.078 0 .142.065.142.143v28.607c0 .078-.064.157-.142.157z" fill="#EB9C63"/><path d="M249.2 64.043h-22.866c-.078 0-.078-28.907 0-28.907H249.2c.077 0 .142.065.142.143v28.607c0 .078-.065.157-.142.157z" fill="#F0B589"/><g opacity=".5" fill="#E86C1F"><path opacity=".5" d="M246.846 43.948h-5.148a.144.144 0 01-.142-.143v-.715c0-.078.065-.143.142-.143h5.148c.078 0 .142.065.142.143v.715a.143.143 0 01-.142.143z"/><path opacity=".5" d="M242.914 38.84l-.62.624a.145.145 0 00.103.247h.013c.078 0 .142.065.142.143v3.431c0 .078.065.143.143.143h.633a.144.144 0 00.143-.143v-3.431c0-.078.064-.143.142-.143h.013a.145.145 0 00.103-.247l-.621-.624a.14.14 0 00-.194 0zm2.587 0l-.621.624a.145.145 0 00.104.247h.012c.078 0 .143.065.143.143v3.431c0 .078.064.143.142.143h.634a.144.144 0 00.142-.143v-3.431c0-.078.065-.143.142-.143h.013a.145.145 0 00.104-.247l-.621-.624a.14.14 0 00-.194 0z"/></g><path d="M243.108 63.77c-.853-.754-1.681-1.612-.97-1.664.737-.052 2.393.884 3.66 1.677 1.009.013 1.669.039 1.669.039l2.263 2.755s-2.25.312-5.406.39c-3.169.065-6.234-1.3-7.346-2.391-.647-.637 2.961-.793 6.13-.806z" fill="#F09959"/><path d="M269.194 28.754c4.786 1.43 5.639 8.214 2.445 16.819-3.195 8.604-15.52 20.432-21.857 21.732-3.337.689-3.816-3.38-3.816-3.38s11.601-11.476 13.658-15.883c2.056-4.406 5.212-20.588 9.57-19.288z" fill="#81CFFF"/><path d="M266.53 21.891c-1.668.052-4.423-.897-4.591-1.65-.168-.741.207-2.015-.336-1.547-.544.468-.88 3.418-1.371 3.782-.854.624-.97-3.223-.479-4.562.349-.936-1.022-2.262-3.233-.767-1.901 1.287-3.195.858-3.893.559-.699-.3-.298-2.535-.298-2.535l5.329-4.068 5.535 2.976 3.337 7.812z" fill="#303C60"/><path d="M264.083 19.88c.183-1.112-.274-2.114-1.021-2.238-.747-.125-1.501.676-1.684 1.788-.183 1.112.274 2.114 1.021 2.238.747.125 1.501-.676 1.684-1.788z" fill="#F09959"/><g clip-path="url(#clip0)" fill="#FAFAFB"><path d="M32.18 28.102l1.034-2.811H19.651l-1.034-2.172h13.564l1.033-2.812H18.617l1.034-2.172h14.726l1.679-2.3H14.613l-4.521 7.284 4.004 7.283h9.042l-2.325-2.3h11.368zm-3.874 2.3l-2.971.511 7.104 11.373-1.292 2.173-7.104-11.373-3.1.511 7.75 12.395-2.454.128-7.75-12.395-2.843-.256 11.239 18.146h8.654l4.263-7.156-4.78-7.667-.774 3.194-5.942-9.584zm4.133 2.301l1.938 2.3 6.458-11.884 2.455.127-6.33 11.757 1.938 2.3 6.846-12.779 1.55 2.045-6.975 12.778 1.162 2.556 10.205-18.657-4.392-7.411h-8.267l-4.392 7.922 3.1-.894-5.296 9.84zm40.819-14.057H68.09v14.056h-3.1V18.647h-5.167V16.09h13.434v2.556zm6.2 4.344h2.971c2.196 0 3.746.384 4.522 1.15.775.768 1.291 2.046 1.291 3.962 0 1.15-.129 2.045-.387 2.684-.259.639-.646 1.15-1.292 1.533s-1.163.511-1.938.64c-.645.127-1.55.127-2.712.127-2.067 0-3.876-.128-5.555-.256h-.129V16.218c2.196-.128 4.004-.128 5.425-.128 1.55 0 3.359 0 5.426.128l-.259 2.428H79.2v4.345h.258zm0 7.412h2.971c1.163 0 1.938-.127 2.325-.51.388-.384.517-1.023.517-2.045 0-1.023-.129-1.79-.517-2.173-.387-.383-1.162-.51-2.325-.51h-2.97v5.238zm24.931-14.312v16.613h-3.1V18.39h-2.584c-1.033 0-1.55.51-1.68 1.533-.257 2.684-.387 4.728-.645 6.006-.258 1.278-.517 2.428-.904 3.322-1.034 2.428-2.713 3.578-5.038 3.45l-.258-2.3a4.335 4.335 0 001.55-.639c.387-.255.646-.639.904-1.277.388-.895.646-2.045.904-3.323.259-1.278.388-3.195.646-5.878.258-2.3 1.421-3.322 3.746-3.322h6.459v.127z"/></g><defs><clipPath id="clip0"><path fill="#fff" transform="translate(10.092 15.835)" d="M0 0h161.468v35.78H0z"/></clipPath></defs></svg>