<svg width="195" height="217" viewBox="0 0 195 217" fill="none" xmlns="http://www.w3.org/2000/svg"><g clip-path="url(#clip0)"><path d="M102.437 215.066c7.817-2.738 13.449-10.236 13.449-18.997v-175.4c0-11.12-8.994-20.134-20.048-20.134H20.562C9.508.535.514 9.549.514 20.669v151.558c23.62 32.266 62.667 48.568 101.923 42.839z" fill="#A8C8FF"/><path d="M.514 20.67v151.557a107.959 107.959 0 0011.096 12.89V20.669C11.61 9.55 20.604.535 31.658.535H20.562C9.508.535.514 9.549.514 20.669z" fill="#2453BC"/><path d="M95.838 11.697h-10.34a2.397 2.397 0 00-2.395 2.401v3.075a5.172 5.172 0 01-5.17 5.181H38.467c-2.858 0-5.17-2.359-5.17-5.18v-2.15a3.376 3.376 0 00-3.362-3.369h-9.373c-4.918.042-8.953 4.044-8.953 9.014v164.49a108.353 108.353 0 0026.9 19.503h57.287c4.917 0 8.952-4.002 8.952-8.972V20.67c.042-4.971-3.993-8.973-8.91-8.973z" fill="#fff"/><path d="M20.562 11.697c-4.918 0-8.953 4.002-8.953 8.972v164.49a106.545 106.545 0 0010.676 9.267V20.669c0-4.675 3.573-8.55 8.154-8.93-.505-.084.042-.042-9.877-.042z" fill="#E5E5E5"/><path d="M71.209 14.94H54.312a3.241 3.241 0 01-3.236-3.243 3.241 3.241 0 013.236-3.243H71.21a3.241 3.241 0 013.236 3.243 3.241 3.241 0 01-3.236 3.244zm-28.833-.547c-2.312-1.516-1.765-5.265 1.177-5.897 1.975-.421 3.867 1.137 3.867 3.201a3.277 3.277 0 01-2.606 3.202c-.252 0-1.808-.043-2.438-.506z" fill="#2453BC"/><path d="M32.414 195.226h-8.616a1.42 1.42 0 01-1.429-1.432v-8.677c0-.8.63-1.432 1.43-1.432h8.657c.799 0 1.43.632 1.43 1.432v8.677c0 .758-.673 1.432-1.472 1.432z" fill="#3E70FF"/><path d="M52.8 195.226h-8.66a1.419 1.419 0 01-1.428-1.432v-8.677c0-.8.63-1.432 1.429-1.432h8.658c.799 0 1.43.632 1.43 1.432v8.677c.041.758-.631 1.432-1.43 1.432zm20.384 0h-8.658a1.419 1.419 0 01-1.43-1.432v-8.677c0-.8.631-1.432 1.43-1.432h8.658c.799 0 1.429.632 1.429 1.432v8.677c.042.758-.63 1.432-1.43 1.432zm20.385 0H84.91a1.42 1.42 0 01-1.429-1.432v-8.677c0-.8.63-1.432 1.43-1.432h8.658a1.42 1.42 0 011.429 1.432v8.677c0 .758-.63 1.432-1.43 1.432z" fill="#FFB792"/><path d="M194.062 144.553V61.571a4.327 4.327 0 00-4.329-4.339h-144.5a4.328 4.328 0 00-4.329 4.339v82.939a4.328 4.328 0 004.33 4.339H189.69c2.438.042 4.371-1.938 4.371-4.296z" fill="#0EB0FF"/><path d="M194.062 144.553V61.571a4.327 4.327 0 00-4.329-4.339h-144.5a4.328 4.328 0 00-4.329 4.339v82.939a4.328 4.328 0 004.33 4.339H189.69c2.438.042 4.371-1.938 4.371-4.296z" fill="#3E70FF"/><path d="M63.727 144.553V61.571a4.328 4.328 0 014.329-4.339h-22.78a4.328 4.328 0 00-4.33 4.339v82.982a4.327 4.327 0 004.33 4.338h22.78c-2.396 0-4.33-1.98-4.33-4.338z" fill="#2453BC"/><path d="M158.421 129.894c-3.363-5.813-1.808-13.142 3.404-17.144-4.119-3.159-9.877-3.707-14.626-.969-6.305 3.665-8.49 11.752-4.834 18.071 3.657 6.318 11.727 8.509 18.031 4.844.504-.295.967-.632 1.429-.969a12.015 12.015 0 01-3.404-3.833z" fill="#F37168"/><path d="M149.048 128.209c-3.657-6.319-1.471-14.448 4.833-18.071.042-.042.085-.042.169-.084a13.257 13.257 0 00-6.893 1.769c-6.305 3.665-8.49 11.752-4.834 18.071 3.615 6.276 11.601 8.467 17.905 4.928-4.455-.084-8.784-2.485-11.18-6.613z" fill="#D54A41"/><path d="M181.285 116.625c-3.656-6.318-11.726-8.509-18.031-4.844-.504.295-.966.632-1.429.969a12.656 12.656 0 013.405 3.875c3.362 5.813 1.807 13.142-3.405 17.144 4.119 3.159 9.877 3.707 14.627.969 6.304-3.665 8.49-11.752 4.833-18.113z" fill="#FFB792"/><path d="M165.23 116.625a12.656 12.656 0 00-3.405-3.875c-5.211 3.959-6.766 11.289-3.404 17.144a12.653 12.653 0 003.404 3.875c5.17-3.959 6.767-11.289 3.405-17.144z" fill="#F3A076"/><path d="M58.642 127.451h9.75c2.312 0 4.161-1.896 4.161-4.17a4.176 4.176 0 00-4.16-4.171H58.64c-2.311 0-4.16 1.896-4.16 4.171 0 2.274 1.89 4.17 4.16 4.17z" fill="#E6E6E6"/><path d="M61.668 123.281a4.176 4.176 0 014.16-4.171h-7.187c-2.311 0-4.16 1.896-4.16 4.171 0 2.274 1.89 4.17 4.16 4.17h7.188c-2.27 0-4.161-1.896-4.161-4.17z" fill="#A8C8FF"/><path d="M83.817 127.451h9.751c2.312 0 4.161-1.896 4.161-4.17a4.176 4.176 0 00-4.16-4.171h-9.711c-2.311 0-4.16 1.896-4.16 4.171 0 2.274 1.806 4.17 4.118 4.17z" fill="#E6E6E6"/><path d="M86.801 123.281a4.176 4.176 0 014.161-4.171h-7.187c-2.311 0-4.16 1.896-4.16 4.171 0 2.274 1.89 4.17 4.16 4.17h7.187c-2.27 0-4.16-1.896-4.16-4.17z" fill="#A8C8FF"/><path d="M108.951 127.451h9.751c2.312 0 4.161-1.896 4.161-4.17a4.175 4.175 0 00-4.161-4.171h-9.751c-2.312 0-4.161 1.896-4.161 4.171 0 2.274 1.849 4.17 4.161 4.17z" fill="#E6E6E6"/><path d="M111.977 123.281a4.176 4.176 0 014.161-4.171h-7.187c-2.312 0-4.161 1.896-4.161 4.171 0 2.274 1.891 4.17 4.161 4.17h7.187c-2.311 0-4.161-1.896-4.161-4.17z" fill="#A8C8FF"/><path d="M76.126 92.025H58.557c-2.27 0-4.077-1.853-4.077-4.086v-8.761a4.085 4.085 0 014.077-4.086h17.569c2.27 0 4.077 1.853 4.077 4.086v8.761c.042 2.233-1.807 4.086-4.077 4.086z" fill="#FFB792"/><path d="M65.829 87.94v-8.762a4.085 4.085 0 014.077-4.086h-11.35c-2.27 0-4.077 1.853-4.077 4.086v8.761a4.085 4.085 0 004.077 4.086h11.349c-2.228 0-4.077-1.853-4.077-4.086z" fill="#EA976C"/><path d="M183.05 66.71a2.864 2.864 0 00-2.858 2.864v29.275a2.864 2.864 0 002.858 2.865 2.865 2.865 0 002.859-2.865V69.574c0-1.6-1.303-2.864-2.859-2.864z" fill="#A8C8FF"/></g><defs><clipPath id="clip0"><path fill="#fff" transform="translate(.514 .535)" d="M0 0h193.549v215.669H0z"/></clipPath></defs></svg>