<svg width="138" height="228" viewBox="0 0 138 228" fill="none" xmlns="http://www.w3.org/2000/svg"><g clip-path="url(#clip0)"><path d="M119.632 130.819s-.323.341-.916.988a1014.783 1014.783 0 00-14.574 16.137c-1.527 1.743-3.109 3.54-4.69 5.355-2.354 2.732-4.672 5.445-6.81 8.087l-.019.018c-.665.772-1.276 1.527-1.905 2.282a274.751 274.751 0 00-3.576 4.51c-3.288 4.295-5.606 7.781-6.038 9.543-2.623 10.997 2.498 41.996 3.828 49.561H13.034c2.174-15.742 5.193-37.989 5.588-41.367.593-5.337-18.006-28.213-18.33-44.925-.305-16.677 10.729-28.627 12.472-45.051.845-7.727-.108-17.809-1.348-26.38-.647-4.547-1.401-8.626-1.994-11.717a4.222 4.222 0 011.15-3.864c.251-.251.52-.503.826-.664 1.15-.755 2.624-.935 4.044-.324 4.115 1.761 8.697 6.433 9.883 18.078 0 0 3.45 2.174 9.04 5.715 2.263 1.42 4.87 3.072 7.762 4.905 2.228 1.402 4.6 2.912 7.098 4.493.162.09.324.198.486.305 1.006.647 1.994 1.276 3.037 1.941h.018c.359.234.736.485 1.114.701.665.431 1.347.862 2.066 1.312.144.09.27.18.431.251 4.529 2.876 9.273 5.912 14.053 8.95h.018c.773.449 1.564.952 2.336 1.455.593.395 1.204.755 1.833 1.15.755.503 1.528.988 2.318 1.456h.018c5.427 3.432 10.728 6.81 15.688 9.955.773.503 1.564.989 2.318 1.456.611.395 1.204.772 1.815 1.15.809.503 1.528.988 2.282 1.491h.019c9.47 5.966 16.802 10.639 19.479 12.364.683.431 1.078.665 1.078.683z" fill="#FFB792"/><path d="M15.064 65.551c.108 1.941-1.24 3.648-3.162 3.936l-.504.072c-.646-4.529-1.401-8.626-1.994-11.717-.288-1.51-.737-2.965-.611-4.51 3.127-1.528 4.33 2.174 4.708 3.666.665 2.461 1.384 5.732 1.563 8.553z" fill="#FFB792"/><path opacity=".3" d="M99.452 153.299c-2.354 2.732-4.672 5.445-6.81 8.087l-.019.018c-.665.772-1.276 1.527-1.905 2.282a274.188 274.188 0 00-3.576 4.51c-3.288 4.295-5.606 7.782-6.038 9.543-2.623 10.997 2.498 41.996 3.828 49.561H38.156c8.68-12.92 9.794-35.688 9.865-46.147.018-2.624.863-5.786 2.247-9.129 2.605-6.451 7.098-13.675 11.213-19.659a195.202 195.202 0 018.715-11.735v-.018c.45-.521.683-.826.683-.826l25.86-1.096h.017l.342 1.832.27 1.564 1.185 6.451.899 4.762z" fill="#E2915A"/><path d="M117.692 165.034l-77.38 7.996a4.448 4.448 0 01-4.87-3.953L19.45 14.318a4.45 4.45 0 013.953-4.87l77.38-7.996a4.45 4.45 0 014.87 3.953l15.993 154.759a4.449 4.449 0 01-3.953 4.87z" fill="#2453BC"/><path d="M126.048 164.171l-77.38 7.997a4.45 4.45 0 01-4.87-3.954L27.806 13.456a4.449 4.449 0 013.954-4.87L109.138.589a4.45 4.45 0 014.87 3.954L130.001 159.3a4.448 4.448 0 01-3.953 4.87z" fill="#A8C8FF"/><path opacity=".4" d="M84.68 10.257a.899.899 0 00-.97-.79l-22.39 2.336a.899.899 0 00-.791.97.899.899 0 00.97.79l22.409-2.317a.9.9 0 00.772-.989zm-27.35 1.959a.899.899 0 00-.79.97.899.899 0 00.97.791.899.899 0 00.79-.97.874.874 0 00-.97-.791z" fill="#2453BC"/><path d="M88.068 164.643a5.661 5.661 0 10-1.165-11.262 5.661 5.661 0 001.165 11.262z" fill="#2453BC"/><path d="M107.538 13.878L35.86 21.286l13.674 132.31 71.678-7.408-13.674-132.31z" fill="#fff"/><path d="M119.636 130.82l-71.678 7.408 1.586 15.355 71.679-7.408-1.587-15.355z" fill="#FCE6D2"/><path d="M71.041 141.313l36.983-3.809c.431-.036.736-.432.701-.863-.036-.431-.432-.737-.863-.701l-36.983 3.828c-.43.036-.736.431-.7.862a.774.774 0 00.862.683zm38.025-1.258c-.036-.431-.431-.736-.863-.701l-36.982 3.828c-.431.036-.737.431-.701.863.036.431.431.736.862.7l36.983-3.827c.431-.054.755-.449.701-.863z" fill="#2453BC"/><path d="M65.219 137.971a4.594 4.594 0 00-.395-1.474 5.214 5.214 0 00-5.392-3.252c-2.372.251-4.24 2.03-4.654 4.276a6.191 6.191 0 00-.072 1.528c.306 2.875 6.218 8.787 6.218 8.787s4.6-6.972 4.295-9.865zm-5.014 2.947c-1.348.144-2.57-.845-2.695-2.193a2.5 2.5 0 01.323-1.509 2.493 2.493 0 011.869-1.204 2.399 2.399 0 012.084.809c.342.359.576.844.648 1.401a2.474 2.474 0 01-2.229 2.696z" fill="#3E70FF"/><path d="M55.749 83.773a3.493 3.493 0 00-.683-.36 4.872 4.872 0 00-2.12-.305 4.397 4.397 0 00-3.738 3.073 4.133 4.133 0 00-.18 1.761 4.41 4.41 0 004.834 3.917 4.02 4.02 0 002.516-1.168 4.25 4.25 0 001.401-3.666c-.161-1.365-.934-2.57-2.03-3.252zm.18 6.667a3.856 3.856 0 01-2.12.916c-2.121.198-4.044-1.33-4.26-3.45-.054-.485 0-.97.144-1.42.395-1.51 1.671-2.695 3.324-2.857a3.431 3.431 0 011.815.27c.27.09.521.233.755.395a3.796 3.796 0 011.69 2.821c.125 1.276-.414 2.516-1.348 3.325z" fill="#DDB997"/><path d="M50.86 85.498l2.768 4.33 3.738-10.727-4.061 7.565-2.444-1.168z" fill="#D3671E"/><path d="M59.433 103.163a4.391 4.391 0 00-2.013-3.27c-.198-.145-.45-.252-.683-.36a4.912 4.912 0 00-2.12-.306 4.41 4.41 0 00-3.918 4.834 4.401 4.401 0 004.834 3.918c2.39-.252 4.151-2.426 3.9-4.816zm-3.99 4.294c-2.12.234-4.025-1.329-4.259-3.45-.197-2.12 1.348-4.043 3.487-4.259a3.611 3.611 0 011.815.252c.27.09.52.234.754.395a3.797 3.797 0 011.69 2.822c.197 2.12-1.348 4.007-3.487 4.24z" fill="#DDB997"/><path d="M52.514 101.599l2.785 4.331 3.738-10.71-4.06 7.565-2.463-1.186z" fill="#D3671E"/><path d="M61.104 119.264c-.252-2.426-2.426-4.187-4.834-3.936a4.411 4.411 0 00-3.918 4.834 4.415 4.415 0 004.835 3.936 4.411 4.411 0 003.917-4.834zm-3.99 4.313c-2.12.233-4.025-1.33-4.258-3.451-.198-2.12 1.33-4.043 3.45-4.259 2.12-.233 4.043 1.33 4.259 3.451.233 2.12-1.312 4.025-3.45 4.259zm48.43-42.177l-41.385 4.278a.791.791 0 01-.845-.683l-.018-.162a.791.791 0 01.683-.844l41.385-4.277a.791.791 0 01.845.682l.018.162a.746.746 0 01-.683.845zm.323 3.02l-41.385 4.277a.791.791 0 01-.844-.683l-.018-.162a.791.791 0 01.682-.845l41.386-4.276c.413-.036.79.27.844.683l.018.161a.79.79 0 01-.683.845zm1.348 13.118l-41.385 4.277a.792.792 0 01-.844-.683l-.018-.162a.791.791 0 01.683-.844l41.385-4.277a.79.79 0 01.844.683l.018.161a.745.745 0 01-.683.845zm.324 3.019l-41.386 4.277a.792.792 0 01-.844-.683l-.018-.162a.79.79 0 01.683-.844l41.385-4.277a.792.792 0 01.845.683l.018.161c.035.414-.27.809-.683.845zm1.347 13.118l-41.385 4.277a.792.792 0 01-.844-.683l-.018-.162a.791.791 0 01.683-.844l41.385-4.277a.79.79 0 01.844.683l.018.162c.036.431-.269.808-.683.844zm.306 3.019l-41.368 4.277a.792.792 0 01-.844-.683l-.018-.162a.79.79 0 01.683-.844l41.385-4.277a.79.79 0 01.844.683l.018.162a.77.77 0 01-.7.844z" fill="#DDB997"/><path d="M116.218 26.07s11.231-9.973 18.599-4.312c7.368 5.66-16.569 23.9-16.569 23.9l-2.03-19.587zm12.992 40.955l-13.046 7.224c-3.792 2.084-8.59.719-10.693-3.073l-2.138-3.846c-2.085-3.791-.701-8.59 3.073-10.692l13.046-7.224c3.792-2.084 8.59-.719 10.692 3.073l2.139 3.846c2.102 3.791.719 8.607-3.073 10.692zm2.265 21.869l-13.047 7.224c-3.791 2.085-8.589.72-10.692-3.073l-2.138-3.845c-2.085-3.792-.701-8.59 3.073-10.692l13.046-7.224c3.791-2.085 8.59-.72 10.692 3.072l2.138 3.846c2.103 3.792.719 8.608-3.072 10.692z" fill="#FFB792"/><path d="M133.685 110.171l-13.046 7.224c-3.792 2.084-8.59.701-10.693-3.073l-2.138-3.846c-2.085-3.791-.719-8.589 3.073-10.692l13.046-7.224c3.792-2.084 8.59-.7 10.692 3.073l2.139 3.846c2.084 3.791.701 8.607-3.073 10.692z" fill="#FFB792"/><path d="M103.962 62.173c2.031-1.528 4.78-3.433 7.314-4.654 1.743-.845 3.846-.234 4.834 1.42l2.857 4.78a3.545 3.545 0 01-1.168 4.833c-2.013 1.24-4.87 2.875-7.763 4.133a4.334 4.334 0 01-5.499-1.869l-1.743-3.073a4.322 4.322 0 011.168-5.57zm2.318 22.462c2.031-1.527 4.78-3.432 7.314-4.654 1.743-.844 3.846-.233 4.834 1.42l2.857 4.78a3.544 3.544 0 01-1.168 4.834c-2.012 1.24-4.87 2.875-7.763 4.133-2.03.88-4.42.072-5.499-1.869l-1.743-3.073a4.351 4.351 0 011.168-5.57zm2.588 21.061c2.031-1.527 4.78-3.432 7.314-4.654 1.743-.844 3.846-.233 4.834 1.42l2.857 4.78a3.545 3.545 0 01-1.168 4.834c-2.012 1.24-4.87 2.875-7.763 4.133a4.335 4.335 0 01-5.499-1.869l-1.743-3.073a4.351 4.351 0 011.168-5.571z" fill="#F9D6B7"/></g><defs><clipPath id="clip0"><path fill="#fff" transform="translate(.275 .571)" d="M0 0h137.453v226.729H0z"/></clipPath></defs></svg>