<svg width="272" height="156" viewBox="0 0 272 156" fill="none" xmlns="http://www.w3.org/2000/svg"><g clip-path="url(#clip0)"><path d="M141.098 135.226L30.257 136.89c-4.483 0-8.12-4.493-8.12-10.043v-81.35c0-4.505 2.948-8.148 6.597-8.148h109.283c2.453 0 3.093.79 3.093 3.813v94.064h-.012z" fill="#618FD1"/><path d="M134.609 134.048H32.189c-5.558 0-10.065-4.529-10.065-10.115V43.105c0-3.181 2.562-5.756 5.728-5.756h106.757v96.699z" fill="#3E70FF"/><path d="M140.445 45.388c0-1.153.931-2.088 2.079-2.088h18.185c9.087 0 10.827-.292 16.7 6.678l29.471 30.384a31.176 31.176 0 017.323 20.073v14.354c0 6.023-4.87 10.905-10.863 10.892l-62.895-.133v-80.16z" fill="#A8C8FF"/><path d="M142.753 136.89c29.858 0 66.423-1.214 69.903-1.214 3.48 0 4.072-24.3 2.247-27.797-2.9-5.537-6.694-2.611-7.467 4.566-.774 7.14-1.74 10.99-1.74 10.99l-23.406-.389-44.685-.777 5.148 14.621z" fill="#618FD1"/><path d="M214.202 96.67c-1.076-8.597-7.311-12.52-14.935-12.495-3.916.012 5.546 7.529 9.219 15.204 3.166 6.618 6.489 3.46 5.716-2.709z" fill="#fff"/><path d="M145.919 49.942s24.372-.389 27.078 0c2.707.389 15.093 11.804 22.826 20.778l7.733 8.974s-33.265-1.312-33.845-2.599c-.266-.583-8.894-4.457-14.899-6.375-5.993-1.919-5.22-.753-7.733-1.725-2.514-.971-1.16-19.053-1.16-19.053z" fill="#E8F1FF"/><path d="M177.384 136.501c1.184-2.307 1.848-5.051 1.848-8.282 0-12.799-10.319-23.169-23.055-23.169-12.736 0-23.055 10.37-23.055 23.169 0 3.413.737 6.291 2.054 8.671h7.589c11.286 0 23.55-.17 34.619-.389z" fill="#618FD1"/><path d="M156.165 146.884c10.157 0 18.391-8.275 18.391-18.482 0-10.208-8.234-18.483-18.391-18.483-10.157 0-18.391 8.275-18.391 18.483 0 10.207 8.234 18.482 18.391 18.482z" fill="#2453BC"/><path d="M156.166 137.922c5.232 0 9.473-4.262 9.473-9.52s-4.241-9.521-9.473-9.521c-5.232 0-9.474 4.263-9.474 9.521 0 5.258 4.242 9.52 9.474 9.52z" fill="#fff"/><path d="M140.3 149.009H92.401a.134.134 0 01-.132-.133v-26.728c0-.073.06-.134.132-.134h47.537c.278 0 .495.219.495.498v26.364c.012.072-.06.133-.133.133z" fill="#EB9C63"/><path d="M126.453 149.009h-47.9a.134.134 0 01-.132-.133v-26.728c0-.073.06-.134.133-.134h47.899c.072 0 .132.061.132.134v26.728c0 .072-.06.133-.132.133z" fill="#F0B589"/><g opacity=".5" fill="#E86C1F"><path opacity=".5" d="M124.254 130.235h-4.81a.133.133 0 01-.132-.133v-.668c0-.073.06-.134.132-.134h4.81c.072 0 .133.061.133.134v.668a.134.134 0 01-.133.133z"/><path opacity=".5" d="M120.58 125.463l-.58.583a.135.135 0 00.097.23h.012c.073 0 .133.061.133.134v3.206c0 .073.06.133.133.133h.592c.073 0 .133-.06.133-.133v-3.206c0-.073.06-.134.133-.134h.012a.135.135 0 00.097-.23l-.58-.583c-.037-.049-.133-.049-.182 0zm2.417 0l-.58.583a.135.135 0 00.097.23h.012c.073 0 .133.061.133.134v3.206c0 .073.06.133.133.133h.592c.073 0 .133-.06.133-.133v-3.206c0-.073.06-.134.133-.134h.012a.135.135 0 00.097-.23l-.58-.583a.131.131 0 00-.182 0z"/></g><path d="M124.471 149.009H76.572a.134.134 0 01-.133-.133v-26.728c0-.073.06-.134.133-.134h47.899c.073 0 .133.061.133.134v26.728c0 .072-.06.133-.133.133z" fill="#EB9C63"/><path d="M110.624 149.009H62.713a.134.134 0 01-.133-.133v-26.728c0-.073.06-.134.133-.134h47.899c.072 0 .133.061.133.134v26.728c.012.072-.049.133-.121.133z" fill="#F0B589"/><g opacity=".5" fill="#E86C1F"><path opacity=".5" d="M108.413 130.235h-4.809a.134.134 0 01-.133-.133v-.668c0-.073.06-.134.133-.134h4.809c.072 0 .133.061.133.134v.668c.012.073-.049.133-.133.133z"/><path opacity=".5" d="M104.751 125.463l-.58.583a.135.135 0 00.097.23h.012c.073 0 .133.061.133.134v3.206c0 .073.06.133.133.133h.592c.072 0 .133-.06.133-.133v-3.206c0-.073.06-.134.133-.134h.012a.135.135 0 00.096-.23l-.579-.583a.131.131 0 00-.182 0zm2.406 0l-.58.583a.135.135 0 00.096.23h.012c.073 0 .133.061.133.134v3.206c0 .073.061.133.133.133h.592c.073 0 .133-.06.133-.133v-3.206c0-.073.061-.134.133-.134h.012a.135.135 0 00.097-.23l-.58-.583c-.036-.049-.121-.049-.181 0z"/></g><path d="M128.399 122.391H82.083a.135.135 0 01-.133-.134V96.415c0-.072.06-.133.133-.133h45.941c.278 0 .496.219.496.498v25.465a.123.123 0 01-.121.146z" fill="#F0A065"/><path d="M115.01 121.492H68.694a.135.135 0 01-.133-.134V96.415c0-.072.06-.133.133-.133h46.316c.073 0 .133.06.133.133v24.943c0 .073-.06.134-.133.134z" fill="#F0B589"/><g opacity=".5" fill="#E86C1F"><path opacity=".5" d="M112.872 104.248h-4.64a.134.134 0 01-.133-.133v-.632c0-.073.06-.134.133-.134h4.64c.072 0 .133.061.133.134v.632c.012.072-.049.133-.133.133z"/><path opacity=".5" d="M109.331 99.633l-.556.559a.136.136 0 00.096.231c.073 0 .133.061.133.133v3.085c0 .073.061.133.133.133h.556c.073 0 .133-.06.133-.133v-3.085c0-.072.06-.133.133-.133a.136.136 0 00.097-.231l-.556-.558c-.036-.049-.121-.049-.169 0zm2.333 0l-.556.559a.136.136 0 00.096.231c.073 0 .133.061.133.133v3.085c0 .073.061.133.133.133h.556c.073 0 .133-.06.133-.133v-3.085c0-.072.06-.133.133-.133a.136.136 0 00.097-.231l-.556-.558c-.036-.049-.121-.049-.169 0z"/></g><path d="M103.385 155.008h-82.42a3.23 3.23 0 01-3.215-2.902L2.005 4.246C1.8 2.327 3.298.65 5.22.65h82.434a3.23 3.23 0 013.214 2.903l15.744 147.86c.194 1.918-1.292 3.594-3.226 3.594z" fill="#1A4891"/><path d="M98.358 145.415H29.386c-1.438 0-2.634-1.093-2.791-2.526L11.817 9.565a2.816 2.816 0 012.79-3.121H83.58c1.438 0 2.634 1.093 2.791 2.526l14.791 133.324c.169 1.663-1.136 3.121-2.804 3.121z" fill="#A8C8FF"/><path d="M21.435 155.008h-2.912c-1.1 0-2.03-.838-2.151-1.931L.012 3.287A2.37 2.37 0 012.366.65h2.49c1.208 0 2.223.911 2.344 2.113l16.373 149.84a2.157 2.157 0 01-2.139 2.404zm56.95-4.25H63.703a.814.814 0 01-.81-.826c0-.449.363-.814.81-.814h14.681c.448 0 .81.365.81.814a.807.807 0 01-.81.826zM61.637 4.622c-.58 0-1.051-.473-1.051-1.056 0-.583.471-1.057 1.051-1.057s1.051.474 1.051 1.057-.47 1.056-1.05 1.056zm4.109 0c-.58 0-1.052-.473-1.052-1.056 0-.583.472-1.057 1.052-1.057.58 0 1.05.474 1.05 1.057s-.47 1.056-1.05 1.056zm-10.634 0H43.838c-.58 0-1.05-.473-1.05-1.056 0-.583.47-1.057 1.05-1.057h11.274c.58 0 1.051.474 1.051 1.057s-.47 1.056-1.05 1.056z" fill="#0F2D5C"/><path d="M249.015 57.738c.447-1.566-.072-2.125.169-4.323.266-2.307.52-4.323-1.679-5.513-2.199-1.19-5.003-3.74-6.888-2.247-1.885 1.506-3.589.838-4.41 2.186-.822 1.348-1.245 2.66-1.039 5.173.157 1.725 13.847 4.724 13.847 4.724z" fill="#303C60"/><path d="M218.227 143.192s-1.209.571-5.124-.51c-3.069-.85-6.38-1.42-4.289.62 2.09 2.04 5.643 3.279 7.056 3.376 1.414.097 3.36 1.639 4.29.935.931-.705 1.317-3.996 1.221-3.983l-3.154-.438zm48.733-4.226s5.993 3.644 4.857 4.518c-1.124.874-2.912 2.404-4.265 3.946-1.354 1.543-6.344 2.077-6.513 1.215-.169-.874 2.996-2.259 3.504-3.036.507-.777.23-4.967.23-4.967l2.187-1.676z" fill="#0F2D5C"/><path d="M237.597 100.301s9.002 24.797 10.923 27.214c1.921 2.417 16.289 15.544 16.289 15.544s3.733-2.283 2.924-3.825c-.81-1.543-8.096-14.488-11.419-18.094-3.323-3.607-1.366-17.196-5.353-27.311-3.988-10.116-13.364 6.472-13.364 6.472z" fill="#3E70FF"/><path d="M237.597 100.301s9.388-16.6 13.364-6.484c1.462 3.716 2.235 8.185 2.574 12.155-3.287 7.529-5.039 15.423-5.74 20.268-2.84-5.659-10.198-25.939-10.198-25.939z" fill="#2453BC"/><path d="M246.248 52.772s3.467 6.241 7.25 12.945c6.138 10.88-.774 30.638-2.961 32.75-2.187 2.126-13.582-1.639-14.294-3.217-.713-1.579.253-12.314 3.673-19.078 3.419-6.764 5.159-11.305 4.241-14.293-.773-2.501-1.933-7.2-1.933-7.2l4.024-1.907z" fill="#F09959"/><path d="M246.248 52.772l-4.023 1.894s1.16 4.712 1.933 7.201c.181.595.266 1.25.242 1.98 1.425-1.251 3.129-3.328 4.301-6.692l-2.453-4.383z" fill="#E38540"/><path d="M236.98 53.877c-.906 3.072-.399 6.484 1.51 7.407 1.39.668 6.103-.303 6.803-3.789.665-3.29.544-6.375-1.752-7.383-2.295-.996-5.618.547-6.561 3.765z" fill="#F09959"/><path d="M237.463 91.704c-4.712 23.303-21.629 50.092-20.82 51.598.774 1.433 4.858 2.003 4.858 2.003s13.86-14.73 14.863-21.202c1.003-6.473 14.427-16.552 15.95-24.98 1.522-8.427 0-6.982 0-6.982l-14.851-.437z" fill="#3E70FF"/><path d="M243.107 66.773c-3.783 3-13.304 5.501-13.304 5.501h12.422l.882-5.5z" fill="#81CFFF"/><path d="M252.991 63.907l-1.535-2.599s-.858.887-3.589 2.065c-2.73 1.178-4.434 1.13-4.434 1.13l-3.468 11.33 11.262-5.502 1.764-6.424z" fill="#81CFFF"/><path d="M253.523 63.166c-3.976-1.493-7.843 4.166-9.208 6.922-1.365 2.757-2.018 4.7-2.018 4.7l-2.332-.644s-2.743 6.315-3.226 9.472c-.484 3.157-1.051 13.965-1.051 13.965s17.037-.983 17.098-1.493c.06-.51 2.767-6.024 3.637-10.286 1.425-6.958.7-16.843-.87-19.588-1.571-2.744-2.03-3.048-2.03-3.048z" fill="#3E70FF"/><path d="M241.837 97.12h-29.761c-.073 0-.073-27.008 0-27.008h29.761c.073 0 .133.061.133.134v26.728c0 .073-.06.146-.133.146z" fill="#EB9C63"/><path d="M232.823 97.12H211.46c-.073 0-.073-27.008 0-27.008h21.363c.073 0 .133.061.133.134v26.728c0 .073-.06.146-.133.146z" fill="#F0B589"/><g opacity=".5" fill="#E86C1F"><path opacity=".5" d="M230.624 78.346h-4.809a.134.134 0 01-.133-.134v-.668c0-.072.06-.133.133-.133h4.809c.072 0 .133.06.133.133v.668a.135.135 0 01-.133.134z"/><path opacity=".5" d="M226.951 73.573l-.581.583a.136.136 0 00.097.231h.012c.073 0 .133.06.133.134v3.206c0 .072.061.133.133.133h.592c.073 0 .133-.06.133-.133V74.52c0-.073.061-.134.133-.134h.012a.136.136 0 00.097-.23l-.58-.584a.13.13 0 00-.181 0zm2.416 0l-.58.583a.136.136 0 00.097.231h.012c.073 0 .133.06.133.134v3.206c0 .072.061.133.133.133h.592c.073 0 .133-.06.133-.133V74.52c0-.073.06-.134.133-.134h.012a.136.136 0 00.097-.23l-.58-.584a.132.132 0 00-.182 0z"/></g><path d="M227.132 96.865c-.797-.704-1.57-1.506-.906-1.554.689-.05 2.236.825 3.42 1.566.942.012 1.559.036 1.559.036l2.114 2.575s-2.102.291-5.051.364c-2.96.06-5.824-1.214-6.863-2.234-.604-.595 2.767-.741 5.727-.753z" fill="#F09959"/><path d="M251.505 64.15c4.47 1.336 5.268 7.675 2.283 15.714-2.984 8.039-14.5 19.09-20.421 20.304-3.117.643-3.564-3.158-3.564-3.158s10.839-10.722 12.76-14.839c1.921-4.117 4.869-19.235 8.942-18.02z" fill="#81CFFF"/><path d="M249.015 57.738c-1.558.049-4.132-.838-4.289-1.542-.157-.692.193-1.882-.315-1.445-.507.437-.821 3.194-1.28 3.534-.798.583-.907-3.012-.447-4.263.326-.874-.955-2.113-3.021-.716-1.777 1.202-2.985.801-3.637.522-.653-.28-.278-2.368-.278-2.368l4.978-3.8 5.172 2.78 3.117 7.298z" fill="#303C60"/><path d="M246.729 55.86c.171-1.04-.257-1.976-.954-2.092-.698-.116-1.403.632-1.574 1.671-.171 1.039.256 1.975.954 2.091.698.116 1.403-.632 1.574-1.67z" fill="#F09959"/><path d="M29.919 61.54s21.943 30.905 30.668 34.742c8.724 3.849-10.851 8.343-19.31 8.768-8.458.425-30.45-43.972-11.358-43.51zm5.8-23.669S51.185 70.817 59.16 74.302c7.975 3.485 21.883 5.222 22.789-1.287.906-6.51-2.936-37.584-15.153-39.94C54.581 30.719 35.72 37.87 35.72 37.87z" fill="#FFB792"/><path d="M94.215 124.88c-3.3-.097-4.773-1.057-8.737-3.631a194.174 194.174 0 00-4.108-2.611c-.06-1.469-.133-2.975-.23-4.517-.314-5.574-2.247-10.504-6.09-15.52-3.383-4.42-7.987-8.549-12.857-12.933-7.878-7.08-16.808-15.094-24.408-27.286-5.341-8.573-7.746-17.147-8.628-24.651.447-.122.895-.243 1.354-.377 13.014-3.704 23.526-8.209 31.247-13.382 8.845-5.926 15.407-6.934 19.346-6.74 3.045.158 5.039 1.032 5.909 1.518l-.46-4.129c-4.446-1.554-13.509-2.562-26.788 6.351-9.208 6.181-21.509 10.432-30.197 12.897-.242.073-.495.133-.737.206a63.865 63.865 0 01.12-8.974c.557-6.57 2.007-11.791 2.973-14.67h-3.77c-.99 3.182-2.223 8.113-2.755 14.22a67.772 67.772 0 00-.108 10.384 179.815 179.815 0 01-10.827 2.453l.399 3.594c2.054-.389 5.92-1.178 10.778-2.416.181 1.505.423 2.987.713 4.468 1.474 7.48 4.29 14.597 8.386 21.166 7.878 12.63 17.013 20.827 25.06 28.064 9.595 8.61 17.16 15.41 17.764 25.975l.108 2.125c-2.598-1.493-5.751-3.193-9.642-5.112-4.834-2.38-10.308-2.975-16.277-1.773-4.664.935-9.63 2.975-14.766 6.048-5.389 3.23-9.787 6.873-12.41 9.241l.496 4.469c3.613-3.522 24.699-22.964 41.374-14.743 4.857 2.393 8.53 4.445 11.406 6.145.424 11.682.097 20.462-.12 24.579h3.588c.218-3.996.496-11.889.194-22.32l2.006 1.287c4.048 2.635 6.283 4.08 10.573 4.202l5.522.17-.399-3.619-5.002-.158z" fill="#fff"/><path d="M81.068 72.02c1.408 0 2.55-.349 2.55-.778 0-.43-1.142-.777-2.55-.777s-2.55.348-2.55.777c0 .43 1.142.777 2.55.777z" fill="#F37168"/><path d="M78.156 9.905c-10.066.376-18.234 8.197-18.234 18.325 0 10.115 19.768 40.013 19.768 40.013s1.487 1.335 2.985 0c4.157-7.044 13.703-31.537 13.703-40.013 0-10.116-2.465-18.92-18.222-18.325zm0 25.61c-3.529 0-6.392-2.877-6.392-6.423 0-3.546 2.863-6.424 6.392-6.424 3.528 0 6.392 2.878 6.392 6.424-.012 3.546-2.864 6.424-6.392 6.424z" fill="#D54A41"/><path d="M82.675 9.905c-10.065 0-18.234 8.197-18.234 18.324 0 10.116 18.234 40.013 18.234 40.013S100.91 38.345 100.91 28.23c0-10.115-8.168-18.324-18.234-18.324zm0 25.61c-3.528 0-6.392-2.877-6.392-6.423 0-3.546 2.864-6.424 6.392-6.424 3.529 0 6.392 2.878 6.392 6.424 0 3.546-2.863 6.424-6.392 6.424z" fill="#F37168"/></g><defs><clipPath id="clip0"><path fill="#fff" transform="translate(0 .651)" d="M0 0h271.962v154.357H0z"/></clipPath></defs></svg>