<svg width="199" height="190" viewBox="0 0 199 190" fill="none" xmlns="http://www.w3.org/2000/svg"><path d="M68.298 63.269l-1.17-3.274a10.584 10.584 0 00-11.205-6.957L9.36 58.485c-5.807.682-9.968 5.943-9.286 11.75l13.251 113.318c.468 3.985 4.073 6.83 8.058 6.372l166.605-19.487a7.27 7.27 0 006.373-8.058l-11.468-97.962c-.468-3.985-4.073-6.83-8.058-6.372L78.09 69.358a9.232 9.232 0 01-9.792-6.09z" fill="#2453BC"/><path d="M72.948 13.99L20.307 24.484 34.765 97.01l52.64-10.494L72.949 13.99z" fill="#407BFF"/><path opacity=".7" d="M72.948 13.99L20.307 24.484 34.765 97.01l52.64-10.494L72.949 13.99z" fill="#fff"/><path opacity=".4" d="M65.92 31.446l-32.427 6.46a2.904 2.904 0 01-3.41-2.28 2.904 2.904 0 012.28-3.41l32.427-6.46a2.904 2.904 0 013.41 2.28 2.904 2.904 0 01-2.28 3.41zm2.387 11.994L35.88 49.9a2.904 2.904 0 01-3.41-2.28 2.904 2.904 0 012.28-3.41l32.427-6.46a2.904 2.904 0 013.41 2.28 2.909 2.909 0 01-2.28 3.41zm2.388 11.985l-32.426 6.46a2.904 2.904 0 01-3.41-2.28 2.904 2.904 0 012.28-3.41l32.426-6.46a2.904 2.904 0 013.41 2.28 2.897 2.897 0 01-2.28 3.41zm2.397 11.995l-32.427 6.46a2.904 2.904 0 01-3.41-2.28 2.904 2.904 0 012.28-3.41l32.427-6.46a2.904 2.904 0 013.41 2.28 2.904 2.904 0 01-2.28 3.41zm-6.478 13.757l-23.56 4.697a2.904 2.904 0 01-3.41-2.28 2.904 2.904 0 012.28-3.41l23.56-4.697a2.904 2.904 0 013.41 2.28 2.897 2.897 0 01-2.28 3.41z" fill="#407BFF"/><path d="M147.957 0L94.773 7.279l10.029 73.273 53.183-7.279L147.957 0z" fill="#407BFF"/><path opacity=".7" d="M147.957 0L94.773 7.279l10.029 73.273 53.183-7.279L147.957 0z" fill="#fff"/><path opacity=".4" d="M139.884 16.996l-32.758 4.483a2.914 2.914 0 01-3.273-2.485 2.914 2.914 0 012.484-3.274l32.758-4.482a2.915 2.915 0 013.274 2.485 2.904 2.904 0 01-2.485 3.273zm1.657 12.121L108.783 33.6a2.915 2.915 0 01-3.274-2.484 2.915 2.915 0 012.484-3.274l32.758-4.482a2.914 2.914 0 013.274 2.485 2.914 2.914 0 01-2.484 3.273zm-22.079 15.356l-9.023 1.238a2.915 2.915 0 01-3.274-2.485 2.915 2.915 0 012.485-3.274l9.022-1.237a2.915 2.915 0 013.274 2.484 2.904 2.904 0 01-2.484 3.274zm17.507-2.387l-9.022 1.238a2.915 2.915 0 01-3.274-2.485 2.915 2.915 0 012.485-3.274l9.022-1.237a2.915 2.915 0 013.274 2.484 2.915 2.915 0 01-2.485 3.274zm7.884 11.254l-32.758 4.482a2.915 2.915 0 01-3.274-2.485 2.915 2.915 0 012.485-3.274l32.758-4.482a2.915 2.915 0 013.274 2.485 2.905 2.905 0 01-2.485 3.274zm-7.296 13.349l-23.804 3.254a2.914 2.914 0 01-3.273-2.485 2.914 2.914 0 012.484-3.273l23.804-3.255a2.915 2.915 0 013.274 2.485c.224 1.588-.897 3.05-2.485 3.274z" fill="#407BFF"/><path d="M97.77 10.706l-53.473 4.66 6.419 73.672 53.473-4.66-6.419-73.672z" fill="#407BFF"/><path opacity=".8" d="M97.77 10.706l-53.473 4.66 6.419 73.672 53.473-4.66-6.419-73.672z" fill="#fff"/><path opacity=".4" d="M88.876 27.286L55.933 30.16a2.911 2.911 0 01-3.147-2.64 2.911 2.911 0 012.64-3.148l32.944-2.874a2.911 2.911 0 013.147 2.64 2.906 2.906 0 01-2.64 3.148zm1.063 12.179L56.996 42.34a2.911 2.911 0 01-3.147-2.64 2.911 2.911 0 012.64-3.147l32.943-2.874a2.911 2.911 0 013.147 2.64 2.9 2.9 0 01-2.64 3.147zM91 51.654L58.055 54.53a2.911 2.911 0 01-3.147-2.64 2.911 2.911 0 012.64-3.148l32.944-2.874a2.911 2.911 0 013.147 2.64A2.911 2.911 0 0191 51.654zm1.062 12.18l-32.943 2.874a2.911 2.911 0 01-3.147-2.64 2.911 2.911 0 012.64-3.148l32.943-2.874a2.911 2.911 0 013.147 2.64 2.906 2.906 0 01-2.64 3.148zm-7.941 12.968l-23.94 2.086a2.911 2.911 0 01-3.147-2.64 2.911 2.911 0 012.64-3.148l23.94-2.085a2.911 2.911 0 013.148 2.64 2.911 2.911 0 01-2.64 3.147z" fill="#407BFF"/><path d="M162.939 7.115l-53.613 2.588 3.565 73.865 53.613-2.588-3.565-73.865z" fill="#407BFF"/><path opacity=".8" d="M162.939 7.115l-53.613 2.588 3.565 73.865 53.613-2.588-3.565-73.865z" fill="#fff"/><path opacity=".4" d="M153.408 23.34l-33.031 1.597a2.907 2.907 0 01-3.04-2.757 2.907 2.907 0 012.758-3.04l33.031-1.598a2.906 2.906 0 013.04 2.757 2.9 2.9 0 01-2.758 3.04zm.594 12.208l-33.031 1.598a2.906 2.906 0 01-3.04-2.757 2.906 2.906 0 012.758-3.04l33.03-1.598a2.906 2.906 0 013.04 2.757 2.9 2.9 0 01-2.757 3.04zm-23.335 13.368l-9.1.439a2.906 2.906 0 01-3.04-2.758 2.905 2.905 0 012.757-3.04l9.101-.438a2.906 2.906 0 013.04 2.757 2.9 2.9 0 01-2.758 3.04zm17.645-.847l-9.101.438a2.907 2.907 0 01-3.04-2.757 2.907 2.907 0 012.758-3.04l9.1-.439a2.906 2.906 0 013.04 2.758 2.905 2.905 0 01-2.757 3.04zm6.87 11.906l-33.031 1.598a2.906 2.906 0 01-3.04-2.757 2.905 2.905 0 012.757-3.04l33.031-1.598a2.906 2.906 0 013.04 2.757 2.9 2.9 0 01-2.757 3.04zm-8.439 12.647l-23.998 1.16a2.906 2.906 0 01-3.04-2.757 2.905 2.905 0 012.757-3.04l23.998-1.16a2.905 2.905 0 013.04 2.757 2.894 2.894 0 01-2.757 3.04z" fill="#407BFF"/><path d="M83.165 65.373l-.857-3.205c-1.209-4.55-5.545-7.367-10.436-6.792l-46.564 5.447c-5.807.682-10.406 5.836-10.27 11.527l2.64 110.92c.098 3.898 3.401 6.684 7.386 6.217L191.67 170c3.985-.468 7.142-4.005 7.045-7.903l-2.28-95.886c-.098-3.897-3.401-6.684-7.386-6.216L92.295 71.307c-4.287.497-8.078-1.958-9.13-5.934z" fill="#3E70FF"/><path opacity=".3" d="M83.165 65.373l-.857-3.205c-1.209-4.55-5.545-7.367-10.436-6.792l-46.564 5.447c-5.807.682-10.406 5.836-10.27 11.527l2.64 110.92c.098 3.898 3.401 6.684 7.386 6.217L191.67 170c3.985-.468 7.142-4.005 7.045-7.903l-2.28-95.886c-.098-3.897-3.401-6.684-7.386-6.216L92.295 71.307c-4.287.497-8.078-1.958-9.13-5.934z" fill="#3E70FF"/><path d="M181.644 153.75l5.78-62.82-12.35-9.45-37.7-3.48-6.55 71.06 50.82 4.69z" fill="#6984C6"/><path opacity=".8" d="M181.644 153.75l5.78-62.82-12.35-9.45-37.7-3.48-6.55 71.06 50.82 4.69z" fill="#fff"/><path d="M187.424 90.93l-12.35-9.45 3.24 11.32 9.11-1.87z" fill="#6984C6"/><path opacity=".4" d="M178.204 103.95a4.205 4.205 0 01-4.57 3.8l-27.5-2.53a4.205 4.205 0 01-3.8-4.57 4.205 4.205 0 014.57-3.8l27.5 2.53c2.31.21 4.01 2.26 3.8 4.57zm-9.37 11.35a4.205 4.205 0 01-4.57 3.8l-19.22-1.77a4.205 4.205 0 01-3.8-4.57 4.205 4.205 0 014.57-3.8l19.22 1.77c2.31.21 4.01 2.26 3.8 4.57z" fill="#6984C6"/></svg>