<svg width="162" height="208" viewBox="0 0 162 208" fill="none" xmlns="http://www.w3.org/2000/svg"><path d="M162 132.71V.017H36.82V132.71H162z" fill="#A2B3D0"/><path d="M96.681 127.695V100.95l-26.755 26.745H96.68zm.001-122.668H41.844v55.126L96.682 5.315v-.288z" fill="#CDDFFE"/><path d="M62.049 127.695h7.878l26.756-26.745v-7.89l-34.634 34.635zM96.682 5.315L41.844 60.153v7.093l54.838-54.839V5.315zm0 43.519l-54.838 54.838v12.725l54.838-54.838V48.834z" fill="#E8F1FF"/><path d="M96.682 12.407L41.844 67.246v36.426l54.838-54.838V12.407zm0 49.152l-54.838 54.838v11.298h20.205l34.633-34.634V61.559z" fill="#CDDFFE"/><path d="M102.148 5.027V6.93l1.904-1.903h-1.904z" fill="#fff"/><path d="M140.478 5.027h-36.426l-1.904 1.903v36.426l38.33-38.329zm-38.33 90.446v32.222h54.839v-87.06l-54.839 54.838z" fill="#CDDFFE"/><path d="M102.148 56.093l51.066-51.066h-12.736l-38.33 38.33v12.736z" fill="#E8F1FF"/><path d="M102.148 87.595l54.839-54.839V5.027h-3.773l-51.066 51.066v31.502z" fill="#CDDFFE"/><path d="M156.987 32.756l-54.839 54.839v7.878l54.839-54.838v-7.879z" fill="#E8F1FF"/><path d="M109.663 204.94l-7.834-3.607-2.246.166a8.158 8.158 0 01-5.831-1.881l-8.432-7.082a6.697 6.697 0 00-.918 7.336l2.534 5.068h3.131l-.785-5.322 5.488 5.322h14.893z" fill="#3C223D"/><path d="M97.824 174.068l7.126-33.494a7.669 7.669 0 00-5.942-9.106l-50.291-10.457.498 21.101 44.183 2.833-2.468 3.873c-.41.653-.786 1.317-1.14 1.992.21 3.895 1.162 7.767 2.512 11.441 1.494 4.083 3.475 7.967 5.522 11.817z" fill="#EB9C63"/><path d="M99.583 201.499l2.246-.166-7.834-9.239 3.828-18.025c-2.047-3.851-4.027-7.735-5.521-11.818-1.35-3.674-2.29-7.546-2.512-11.441a26.165 26.165 0 00-2.954 12.149l.1 27.718-1.583 1.793a.193.193 0 01-.044.055l8.431 7.082a8.16 8.16 0 005.843 1.892z" fill="#F0B589"/><path d="M28.6 173.537l-.686 5.666h8.365l1.992-5.666h-9.67z" fill="#3C223D"/><path d="M25.623 198.047h4.006l6.65-18.844h-8.366l-2.29 18.844z" fill="#B16154"/><path d="M77.32 173.537h-9.672l1.992 5.666h8.365l-.686-5.666z" fill="#3C223D"/><path d="M69.639 179.203l6.65 18.844h4.005l-2.29-18.844h-8.365z" fill="#B16154"/><path d="M.195 86.156l6.462 18.778a99.369 99.369 0 015.411 32.354v28.88a9.988 9.988 0 009.992 9.992h61.699a8.208 8.208 0 008.21-8.21v-16.499a6.673 6.673 0 00-6.672-6.672H47.045c-7.07 0-12.946-5.477-13.422-12.537l-.874-12.78a77.14 77.14 0 00-6.407-25.947l-4.083-9.25a8.796 8.796 0 00-10.102-5.002l-9.395 2.246a3.582 3.582 0 00-2.567 4.647z" fill="#1A4891"/><path d="M22.059 176.16l-.885 7.27h10.733l2.567-7.27H22.06z" fill="#3C223D"/><path d="M18.23 207.618h5.157l8.52-24.189H21.174l-2.944 24.189z" fill="#BB7165"/><path d="M84.588 176.16H72.184l2.567 7.27h10.733l-.896-7.27z" fill="#3C223D"/><path d="M74.752 183.429l8.52 24.189h5.156l-2.943-24.189H74.752z" fill="#BB7165"/><path d="M63.146 123.689H40.374l-4.183 9.815.863 2.301a13.848 13.848 0 0012.958 8.985h38.02l5.997-15.469-30.883-5.632z" fill="#2453BC"/><path d="M124.092 207.618l-7.834-3.607-1.97.055a8.693 8.693 0 01-5.908-2.08l-8.332-7.126-.034.033a7.196 7.196 0 00-1.029 7.956l2.379 4.758h3.132l-.786-5.322 5.488 5.322h14.894v.011z" fill="#624C72"/><path d="M114.287 204.066l1.969-.055-7.834-9.24 4.426-53.024c.421-5.034-3.043-9.56-8.011-10.456l-10.81-1.97-5.998 15.469h12.393l-1.792 4.57a25.67 25.67 0 00-1.527 12.869l4.26 31.126-1.328 1.505 8.332 7.126a8.743 8.743 0 005.92 2.08z" fill="#F0B589"/><path d="M48.195 39.096c-.144-2.932-2.623-5.443-5.488-6.085-2.866-.642-5.931.365-8.21 2.224a12.522 12.522 0 00-4.305 7.07c-.62 2.933-.155 5.976.387 8.93.542 2.954 1.162 5.942.852 8.918-.31 2.977-1.715 6.02-4.337 7.491 4.171-.132 8.52-1.648 11.518-4.547 3-2.91 4.858-6.95 5.124-11.12.155-2.468-.188-5.124 1.106-7.226.542-.886 1.35-1.594 2.025-2.39.664-.797 1.372-2.213 1.328-3.264z" fill="#303C60"/><path d="M50.763 41.918c-.598 1.372-2.091 2.047-3.353 1.494-1.25-.542-1.781-2.102-1.195-3.475.598-1.372 2.091-2.047 3.353-1.493 1.261.553 1.792 2.102 1.195 3.474z" fill="#624C72"/><path d="M53.096 69.426c-1.007-1.361-1.704-2.9-2.357-4.46a16.182 16.182 0 01-1.582 5.035l-.753 1.46 6.827 3.365.487-.974c.266-.531.587-1.029.93-1.516-1.417-.586-2.634-1.66-3.552-2.91z" fill="#F0B589"/><path d="M59.48 69.592l.143-.088-8.62-7.281-.144 1.748c-.022.332-.077.664-.132.996.652 1.56 1.35 3.11 2.356 4.459.919 1.25 2.147 2.324 3.563 2.921a11.175 11.175 0 012.833-2.755z" fill="#EB9C63"/><path d="M63.664 40.723c-6.45-1.472-13.145 3.74-14.937 11.63-1.793 7.889 4.282 16.542 10.733 18.013 4.16.94 7.458-1.327 9.76-5.167l1.216.553a.664.664 0 00.94-.641l-.165-2.712a7.15 7.15 0 01.276-2.467c.233-.73.432-1.483.61-2.257 1.803-7.9-1.97-15.48-8.432-16.952z" fill="#F0B589"/><path d="M67.216 50.549l-1.681 3.74a2.817 2.817 0 01-2.579 1.67c-.73 0-1.383.465-1.626 1.162l-.808 2.368a4.35 4.35 0 01-2.235 2.512l1.328-4.758a2.349 2.349 0 00-1.03-2.622l-.31-.188a2.095 2.095 0 00-3.031.995l-.432 1.074a3.52 3.52 0 001.494 4.37l.177.1c-1.184 1.914-3.928 2.921-6.152 2.49-2.213-.432-4.072-2.324-4.448-4.548-.432-2.49.83-4.913 1.516-7.347 1.007-3.552.83-7.48 2.655-10.69 2.014-3.529 6.208-5.465 10.28-5.476 4.072-.022 7.989 1.637 11.375 3.895 2.246 1.493 4.459 3.518 4.78 6.196.254 2.102-.83 4.304-2.656 5.367-1.825 1.062-4.913.94-6.617-.31z" fill="#303C60"/><path d="M46.857 70.577l9.803 4.747 9.074 14.152a6.802 6.802 0 01-.742 8.299l-1.848 1.991v23.923H40.373l1.582-6.384a27.249 27.249 0 00-.753-15.624l-.553-1.561a27.222 27.222 0 012.302-23.026l3.906-6.517z" fill="#3E70FF"/><path d="M46.856 70.577l-3.895 6.517a27.261 27.261 0 00-2.301 23.026 27.22 27.22 0 01-.122 18.468l-6.063 16.487h19.95c6.45 0 11.596-5.4 11.275-11.84l-.885-17.958a38.889 38.889 0 00-1.748-9.737l-5.831-18.413a4.397 4.397 0 00-2.258-2.611l-8.122-3.94z" fill="#3E70FF"/><path d="M44.91 84.231l8.542 28.858a10.037 10.037 0 007.712 7.015l25.173 4.946 1.571-7.048-26.014-6.263-6.938-30.142a5.199 5.199 0 00-6.428-3.85c-2.811.763-4.438 3.684-3.619 6.484z" fill="#85A5FE"/><path d="M87.73 118.787l6.827.675c.952.1 1.826.587 2.412 1.35l2.225 2.944a6.378 6.378 0 011.283 3.828l-14.141-2.534 1.394-6.263z" fill="#F0B589"/><path d="M84.015 127.518l31.181 6.24a2.532 2.532 0 002.955-1.881l.166-.675-35.442-6.849-.21 1.151a1.713 1.713 0 001.35 2.014z" fill="#3E70FF"/><path d="M118.306 131.213l14.473-31.336a1.236 1.236 0 00-.907-1.737l-12.371-2.136a1.581 1.581 0 00-1.704.885l-14.672 31.381 15.181 2.943z" fill="#3E70FF"/><path d="M104.52 127.119l13.997-29.93a.315.315 0 01.299-.189l12.835 2.368-14.075 30.418-13.056-2.667z" fill="#000"/></svg>