<?xml version="1.0" encoding="utf-8"?><svg width="30" height="30" fill="none" xmlns="http://www.w3.org/2000/svg" viewBox="0 0 30 30"><path d="M29.94 12.842a.631.631 0 00-.572-.363H27.5C26.312 6.033 20.652 1.133 13.867 1.133 6.221 1.133 0 7.354 0 15c0 7.646 6.22 13.867 13.867 13.867 4.935 0 9.537-2.656 12.01-6.93a1.26 1.26 0 00-2.182-1.263 11.391 11.391 0 01-9.828 5.672c-6.255 0-11.346-5.09-11.346-11.344 0-6.257 5.09-11.347 11.346-11.347 5.389 0 9.903 3.78 11.053 8.825h-1.853a.632.632 0 00-.485 1.034l3.152 3.782a.63.63 0 00.968 0l3.152-3.782a.63.63 0 00.086-.672z" fill="currentColor"/><path d="M13.868 4.285a1.26 1.26 0 00-1.26 1.26v7.65a2.203 2.203 0 001.26 4.012c.334 0 .648-.08.931-.213l4.385 2.531a1.26 1.26 0 101.26-2.182l-4.39-2.535a2.195 2.195 0 00-.924-1.612v-7.65a1.263 1.263 0 00-1.262-1.261zm0 11.66a.946.946 0 01-.945-.944c0-.52.424-.945.945-.945.52 0 .945.424.945.945 0 .52-.424.945-.945.945z" fill="currentColor"/></svg>