<?xml version="1.0" encoding="utf-8"?><svg width="37" height="60" fill="none" xmlns="http://www.w3.org/2000/svg" viewBox="0 0 37 60"><path d="M14.265 24.997c-.192-.395-.602-.63-1.098-.63h-3.32V17.87c0-.808-.658-1.465-1.466-1.465h-2.39c-.808 0-1.466.657-1.466 1.465v6.496h-3.32c-.496 0-.907.236-1.098.63-.192.395-.123.864.185 1.253l5.84 7.404c.264.333.647.524 1.054.524.406 0 .79-.191 1.053-.524l1.528-1.938a.88.88 0 00-1.38-1.089l-1.201 1.524-4.754-6.026h2.386c.808 0 1.465-.657 1.465-1.465v-6.496h1.805v6.496c0 .808.657 1.465 1.465 1.465h2.387L10.79 27.58a.879.879 0 101.38 1.088l1.909-2.419c.307-.39.376-.858.185-1.253z" fill="currentColor"/><path d="M26.45 38.327V11.719a.879.879 0 00-1.758 0v3.199h-5.219V4.338c0-1.423 1.17-2.58 2.61-2.58 1.439 0 2.61 1.157 2.61 2.58v3.28a.879.879 0 001.757 0v-3.28C26.45 1.946 24.491 0 22.083 0c-2.409 0-4.368 1.946-4.368 4.338v33.989c-4.206 1.739-6.99 5.843-6.99 10.404C10.725 54.944 15.82 60 22.083 60c6.262 0 11.357-5.056 11.357-11.27 0-4.56-2.784-8.664-6.99-10.403zm-4.367 19.915c-5.294 0-9.6-4.267-9.6-9.512 0-4.024 2.572-7.628 6.401-8.969a.879.879 0 00.589-.83v-8.218h1.942a.879.879 0 000-1.758h-1.942v-2.952h1.942a.879.879 0 000-1.758h-1.942v-2.953h1.942a.879.879 0 000-1.758h-1.942v-2.858h5.22v22.256c0 .373.235.706.588.83 3.829 1.34 6.402 4.945 6.402 8.968 0 5.245-4.307 9.512-9.6 9.512z" fill="currentColor"/><path d="M28.683 48.21a.878.878 0 10-1.752.142 4.699 4.699 0 01-1.455 3.798 4.877 4.877 0 01-3.462 1.357c-2.681-.038-4.832-2.212-4.795-4.846.029-2.015 1.353-3.805 3.295-4.453a5.626 5.626 0 001.645-.878 5.622 5.622 0 001.62.924 4.842 4.842 0 011.581.95.879.879 0 101.176-1.306 6.594 6.594 0 00-2.153-1.295 3.863 3.863 0 01-1.422-.919v-4.107a.879.879 0 00-1.758 0v4.266a3.86 3.86 0 01-1.246.697c-2.65.886-4.456 3.335-4.495 6.096-.052 3.603 2.877 6.576 6.527 6.628h.098a6.62 6.62 0 004.605-1.844 6.447 6.447 0 001.99-5.21zM33.079 0c-1.8 0-3.265 1.455-3.265 3.244 0 1.79 1.465 3.244 3.265 3.244s3.264-1.455 3.264-3.244C36.343 1.455 34.879 0 33.079 0zm0 4.73c-.83 0-1.507-.666-1.507-1.486s.676-1.486 1.507-1.486c.83 0 1.506.667 1.506 1.486 0 .82-.676 1.487-1.506 1.487z" fill="currentColor"/></svg>