<?xml version="1.0" encoding="utf-8"?><svg width="60" height="60" fill="none" xmlns="http://www.w3.org/2000/svg" viewBox="0 0 60 60"><path d="M30 31.172a1.172 1.172 0 100-2.344 1.172 1.172 0 000 2.344z" fill="currentColor"/><path d="M1.543 36.958a1.172 1.172 0 00-.257 1.83l10.076 10.42c.373.385.961.47 1.429.2a45.524 45.524 0 0011.338-9.238 45.53 45.53 0 00-2.33 14.44v4.218a1.172 1.172 0 001.456 1.137l14.063-3.516c.521-.13.887-.599.887-1.137 0-5.102-.854-10.445-2.395-15.22.717.81 1.46 1.595 2.23 2.35a1.172 1.172 0 001.64-1.674 43.622 43.622 0 01-4.15-4.705 8.104 8.104 0 002.488-4.31 43.172 43.172 0 0115.431 5.03l-3.32 11.603c-1.654-.957-1.838-1.058-2.329-1.35a1.172 1.172 0 10-1.203 2.01c.51.306.643.376 3.66 2.12.661.382 1.504.04 1.713-.692l3.987-13.936a1.172 1.172 0 00-.54-1.337A45.539 45.539 0 0041.752 30a45.538 45.538 0 0013.663-5.2l3.045-1.759a1.172 1.172 0 00.256-1.83l-10.075-10.42a1.172 1.172 0 00-1.429-.2 45.531 45.531 0 00-11.338 9.238 45.53 45.53 0 002.33-14.438V1.17A1.172 1.172 0 0036.75.036L22.686 3.551c-.521.13-.887.599-.887 1.136 0 5.1.853 10.44 2.392 15.213a45.525 45.525 0 00-11.4-9.309L9.746 8.833a1.172 1.172 0 00-1.713.693L4.047 23.462a1.172 1.172 0 00.54 1.337A45.538 45.538 0 0018.251 30a45.538 45.538 0 00-13.664 5.202l-3.044 1.757zm22.6 20.37v-2.719a43.2 43.2 0 013.37-16.79 8.15 8.15 0 002.489.384c.856 0 1.688-.129 2.485-.383 2.042 4.952 3.248 10.884 3.365 16.58l-11.71 2.927zm5.859-21.469a5.85 5.85 0 01-5.86-5.86c0-3.279 2.657-5.858 5.86-5.858 3.164 0 5.86 2.542 5.86 5.859 0 3.319-2.698 5.86-5.86 5.86zM47.6 13.085l8.39 8.677-1.745 1.008a43.2 43.2 0 01-16.227 5.476 8.105 8.105 0 00-2.49-4.31A43.161 43.161 0 0147.6 13.086zM35.86 2.673V5.39a43.2 43.2 0 01-3.37 16.79 8.149 8.149 0 00-2.49-.384c-.856 0-1.688.129-2.484.383-2.042-4.952-3.248-10.885-3.365-16.58l11.71-2.927zm-25.987 8.94l1.745 1.008a43.198 43.198 0 0112.856 11.315 8.103 8.103 0 00-2.49 4.31 43.173 43.173 0 01-15.43-5.028l3.319-11.604zm12.112 20.14a8.105 8.105 0 002.489 4.31 43.163 43.163 0 01-12.07 10.851l-8.39-8.676 1.744-1.008a43.203 43.203 0 0116.227-5.476z" fill="currentColor"/><path d="M42.89 46.172a1.172 1.172 0 100-2.344 1.172 1.172 0 000 2.344z" fill="currentColor"/></svg>