<?xml version="1.0" encoding="utf-8"?><svg width="56" height="60" fill="none" xmlns="http://www.w3.org/2000/svg" viewBox="0 0 56 60"><path d="M.878 45.86H3.62V4.7c0-.486.394-.88.88-.88h3.081a.879.879 0 010 1.759H5.38v20.67H30.21V5.58H11.82a.879.879 0 010-1.758h19.269c.485 0 .879.393.879.879v41.16h1.56v-1.862c0-1.201.564-2.272 1.442-2.963l3.005-33.907a.878.878 0 01.507-.72S51.998-.012 53.025 0a2.97 2.97 0 011.2 5.69l-10.29 4.541-.592 6.222a.878.878 0 11-1.75-.166l.64-6.735a.88.88 0 01.52-.72l6.92-3.055V3.183L39.681 7.79 36.803 40.26c.8-.106 1.747-.05 2.486.262l1.91-20.088a.879.879 0 011.75.166l-2.02 21.256a3.75 3.75 0 01.669 2.142v6.698a.879.879 0 01-.88.88h-3.67c-.075.908-.27 1.697-.582 2.362A4.51 4.51 0 0132.24 60a4.51 4.51 0 01-4.505-4.505c0-1.679.924-3.145 2.29-3.92H11.6c-.074.91-.269 1.698-.581 2.363A4.51 4.51 0 016.794 60a4.51 4.51 0 01-4.505-4.505c0-1.679.924-3.145 2.29-3.92H.878a.879.879 0 01-.88-.879V46.74c.001-.485.395-.879.88-.879zM51.43 5l2.084-.919c1.238-.439.663-2.668-.758-2.292-.023-.03-1.255.553-1.326.583v2.629zM15.645 28.008v6.834h4.3v-6.834h-4.3zM37.3 41.984c-1.111 0-2.015.903-2.015 2.014v1.862h4.555v-1.862c0-1.11-.904-2.014-2.014-2.014H37.3zm-4.182 12.592c.7-.124 1.258-.526 1.626-1.135.284-.48.465-1.103.54-1.866h-2.166v3.001zm-.878 3.666a2.75 2.75 0 002.738-2.545c-.867.57-1.787.675-2.349.675-.31 0-.511-.032-.535-.036a.879.879 0 01-.733-.867v-2.575a2.751 2.751 0 00-1.868 2.601 2.75 2.75 0 002.747 2.747zM7.673 54.576c.705-.125 1.254-.529 1.628-1.14.282-.479.462-1.1.538-1.86H7.673v3zm-.88 3.666a2.75 2.75 0 002.74-2.545c-.869.57-1.788.675-2.35.675-.31 0-.511-.032-.535-.036a.879.879 0 01-.733-.867v-2.576a2.751 2.751 0 00-1.868 2.602 2.75 2.75 0 002.747 2.747zm-5.036-8.425H39.84v-2.2H27.278a.879.879 0 010-1.757h2.932V28.007h-8.508v7.713a.879.879 0 01-.879.88h-6.057a.879.879 0 01-.879-.88v-7.713H5.38V45.86h17.768a.879.879 0 010 1.758H1.757v2.2z" fill="currentColor"/><path d="M19.918 8.631c0-.485.394-.879.88-.879h5.714a.879.879 0 010 1.758h-5.715a.879.879 0 01-.879-.879zM26.512 11.293a.879.879 0 010 1.758h-2.519a.879.879 0 010-1.758h2.519z" fill="currentColor"/></svg>