<?xml version="1.0" encoding="utf-8"?><svg width="60" height="60" fill="none" xmlns="http://www.w3.org/2000/svg" viewBox="0 0 60 60"><path d="M54 13.08V11a5.006 5.006 0 00-5-5H32V5a5.006 5.006 0 00-5-5H5a5.006 5.006 0 00-5 5v44a7.008 7.008 0 007 7h15.188A2.982 2.982 0 0025 60h10a2.982 2.982 0 002.812-4H53a7.008 7.008 0 007-7V20a7 7 0 00-6-6.92zM2 49V5a3 3 0 013-3h22a3 3 0 013 3v2a1 1 0 001 1h18a3 3 0 013 3v2H24a1 1 0 100 2h5v25h-2a2 2 0 00-2 2v4c.001.582.257 1.134.7 1.511L23 54H7a5.006 5.006 0 01-5-5zm25-3v-4h6v4h-6zm8.832 11.555A.984.984 0 0135 58H25a1 1 0 01-.923-1.384L27.667 48h4.666l3.59 8.616a.983.983 0 01-.091.939zM58 49a5.006 5.006 0 01-5 5H37l-2.7-6.489c.443-.377.699-.93.7-1.511v-4a2 2 0 00-2-2h-2V15h22a5.006 5.006 0 015 5v29z" fill="currentColor"/><path d="M19 13h-4a1 1 0 100 2h4a1 1 0 100-2zM26 19h1a1 1 0 100-2h-1a1 1 0 100 2zM26 23h1a1 1 0 100-2h-1a1 1 0 100 2zM26 27h1a1 1 0 100-2h-1a1 1 0 100 2zM26 31h1a1 1 0 100-2h-1a1 1 0 100 2zM26 35h1a1 1 0 100-2h-1a1 1 0 100 2zM26 39h1a1 1 0 100-2h-1a1 1 0 100 2zM34 19h-1a1 1 0 100 2h1a1 1 0 100-2zM34 23h-1a1 1 0 100 2h1a1 1 0 100-2zM34 27h-1a1 1 0 100 2h1a1 1 0 100-2zM34 31h-1a1 1 0 100 2h1a1 1 0 100-2zM34 35h-1a1 1 0 100 2h1a1 1 0 100-2zM31 54h-2a1 1 0 100 2h2a1 1 0 100-2z" fill="currentColor"/></svg>