<?xml version="1.0" encoding="utf-8"?><svg width="60" height="60" fill="none" xmlns="http://www.w3.org/2000/svg" viewBox="0 0 60 60"><path d="M30 0C13.459 0 0 13.457 0 30s13.459 30 30 30 30-13.457 30-30S46.541 0 30 0zm0 57.692C14.731 57.692 2.308 45.27 2.308 30S14.73 2.308 30 2.308 57.692 14.73 57.692 30 45.27 57.692 30 57.692z" fill="currentColor"/><path d="M44.137 17.695l-17.733 19.95L15.72 29.1a1.154 1.154 0 00-1.44 1.802l11.537 9.23a1.152 1.152 0 001.585-.134l18.461-20.77a1.153 1.153 0 10-1.726-1.532z" fill="currentColor"/></svg>