<?xml version="1.0" encoding="utf-8"?><svg width="60" height="60" fill="none" xmlns="http://www.w3.org/2000/svg" viewBox="0 0 60 60"><path d="M54.648 1.885a3.75 3.75 0 00-4.023 3.74v16.031a4.463 4.463 0 00-3.037-1.031 4.647 4.647 0 00-1.716.422c.044-.445.066-.898.066-1.36V8.437a.938.938 0 00-.609-.878l-15-5.625a.946.946 0 00-.656 0l-15 5.625a.937.937 0 00-.61.878v11.25c0 .46.021.915.065 1.364a4.672 4.672 0 00-1.715-.42 4.475 4.475 0 00-3.038 1.025V5.625a3.75 3.75 0 00-4.024-3.74 3.85 3.85 0 00-3.476 3.898v30.582c0 .925.274 1.83.788 2.6L6.686 45h-.123a.938.938 0 00-.938.937v3.75a.937.937 0 00.938.938H7.5v6.562a.937.937 0 00.938.938h13.125a.937.937 0 00.937-.938v-6.562h.938a.937.937 0 00.937-.938v-3.75a.938.938 0 00-.937-.937h-1.374l-4.72-7.075a2.802 2.802 0 01-.469-1.56v-8.382c.4.532.834 1.037 1.301 1.51L29.328 40.97a.938.938 0 001.344 0L41.82 29.5c.469-.476.905-.983 1.306-1.518v8.382a2.802 2.802 0 01-.469 1.56L37.936 45h-1.373a.937.937 0 00-.938.937v3.75a.937.937 0 00.938.938h.937v6.562a.937.937 0 00.938.938h13.125a.937.937 0 00.937-.938v-6.562h.938a.937.937 0 00.937-.938v-3.75a.938.938 0 00-.937-.937h-.124l4.024-6.036c.514-.77.788-1.674.787-2.6V5.785a3.85 3.85 0 00-3.477-3.899zM20.625 56.25H9.375v-5.625h11.25v5.625zm1.875-7.5h-15v-1.875h15v1.875zM19.811 45H8.94l-4.72-7.075a2.802 2.802 0 01-.469-1.56V5.783a1.997 1.997 0 011.736-2.028A1.914 1.914 0 016.95 4.3a1.862 1.862 0 01.55 1.325v30h1.875v-10.1a3.131 3.131 0 01.97-2.25 2.674 2.674 0 011.978-.775A2.806 2.806 0 0115 25.312v11.053c0 .925.274 1.83.788 2.6L19.81 45zm20.673-16.818L30 38.967 19.516 28.186l-.01-.01a11.79 11.79 0 01-3.568-8.489v-10.6L30 3.814l14.063 5.273v10.6a11.8 11.8 0 01-3.579 8.495zM50.625 56.25h-11.25v-5.625h11.25v5.625zm1.875-7.5h-15v-1.875h15v1.875zm3.75-12.385a2.802 2.802 0 01-.469 1.56L51.061 45H40.186l4.024-6.036c.515-.769.79-1.674.79-2.6V25.313a2.806 2.806 0 012.678-2.812 2.69 2.69 0 011.977.766 3.13 3.13 0 01.97 2.258v10.1H52.5v-30a1.862 1.862 0 01.55-1.324 1.888 1.888 0 011.464-.545 1.997 1.997 0 011.736 2.028v30.582z" fill="currentColor"/><path d="M41.611 10.384l-11.25-4.687a.938.938 0 00-.722 0l-11.25 4.687a.938.938 0 00-.576.866v8.303a10.244 10.244 0 003.02 7.293l8.504 8.504a.937.937 0 001.326 0l8.504-8.504a10.243 10.243 0 003.02-7.293V11.25a.938.938 0 00-.576-.866zm-1.298 9.17a8.383 8.383 0 01-2.472 5.966L30 33.362l-7.841-7.842a8.385 8.385 0 01-2.471-5.967v-7.678L30 7.578l10.313 4.297v7.678z" fill="currentColor"/><path d="M23.484 18.409l-1.325 1.325 5.303 5.304a.938.938 0 001.326 0l9.281-9.281-1.326-1.326-8.618 8.618-4.64-4.64z" fill="currentColor"/></svg>