<?xml version="1.0" encoding="utf-8"?><svg width="60" height="60" fill="none" xmlns="http://www.w3.org/2000/svg" viewBox="0 0 60 60"><path d="M30 34.688A4.693 4.693 0 0034.688 30 4.693 4.693 0 0030 25.312 4.693 4.693 0 0025.312 30 4.693 4.693 0 0030 34.688zm0-7.032A2.347 2.347 0 0132.344 30 2.347 2.347 0 0130 32.344 2.347 2.347 0 0127.656 30 2.347 2.347 0 0130 27.656zM1.172 12.89c.647 0 1.172-.524 1.172-1.171 0-5.17 4.205-9.375 9.375-9.375a1.172 1.172 0 000-2.344C5.257 0 0 5.257 0 11.719c0 .647.525 1.172 1.172 1.172zM11.719 7.031A4.693 4.693 0 007.03 11.72a1.172 1.172 0 002.344 0 2.346 2.346 0 012.344-2.344 1.172 1.172 0 000-2.344zM47.11 58.828c0 .647.524 1.172 1.171 1.172C54.743 60 60 54.743 60 48.281a1.172 1.172 0 10-2.344 0c0 5.17-4.205 9.375-9.375 9.375-.647 0-1.172.525-1.172 1.172zM50.625 48.281a2.346 2.346 0 01-2.344 2.344 1.172 1.172 0 100 2.344 4.693 4.693 0 004.688-4.688 1.172 1.172 0 00-2.344 0z" fill="currentColor"/><path d="M18.281 57.146v1.682c0 .647.525 1.172 1.172 1.172h5.274a1.172 1.172 0 100-2.344h-4.102v-7.459A22.298 22.298 0 0030 52.266c3.248 0 6.451-.712 9.375-2.069v7.46h-4.102a1.172 1.172 0 000 2.343h5.274c.647 0 1.172-.525 1.172-1.172v-9.893C48.125 44.96 52.266 37.905 52.266 30c0-12.277-9.989-22.266-22.266-22.266-10.61 0-19.597 7.457-21.77 17.578H1.39c-.59 0-1.089.44-1.163 1.026a29.34 29.34 0 00.698 10.987c2.32 8.977 8.777 16.33 17.355 19.821zM3.621 38.203h5.676a22.32 22.32 0 008.984 10.731v5.663a27.017 27.017 0 01-14.66-16.394zM30 10.078c10.985 0 19.922 8.937 19.922 19.922 0 10.835-8.78 19.922-19.922 19.922-11.003 0-19.922-8.918-19.922-19.922A19.868 19.868 0 0130 10.078zM2.445 27.655h5.412A22.601 22.601 0 007.734 30c0 1.994.263 3.959.781 5.86h-5.53a27.034 27.034 0 01-.54-8.205z" fill="currentColor"/><path d="M30 60a1.172 1.172 0 100-2.344A1.172 1.172 0 0030 60z" fill="currentColor"/></svg>