<?xml version="1.0" encoding="utf-8"?><svg width="60" height="60" fill="none" xmlns="http://www.w3.org/2000/svg" viewBox="0 0 60 60"><path d="M51.62 42.31l-.021-.035a9.986 9.986 0 00-.5-.744l-.044-.06c-.01-.015-.022-.028-.033-.043-.06-.08-.121-.158-.183-.235l-.066-.081c-.062-.076-.125-.15-.19-.225l-.08-.092a9.503 9.503 0 00-.162-.178l-.123-.131-.095-.096a10.189 10.189 0 00-4.393-2.621.87.87 0 00-.088-.021l-7.945-1.476-.042-.006a1.947 1.947 0 00-1.093.139c-.276-.34-.459-.806-.459-1.237v-1.439c.502-.32.99-.68 1.46-1.086 1.97-1.695 3.21-4.142 3.477-6.812a2.732 2.732 0 002.601-2.725v-2.05c0-.828-.371-1.595-.996-2.107v-4.711c2.872-1.416 3.497-3.066 3.497-4.231 0-1.998-1.862-4.5-4.858-6.528C39.365 2.18 35.346 0 29.998 0c-5.349 0-9.367 2.18-11.286 3.48-2.996 2.027-4.858 4.528-4.858 6.527 0 1.165.625 2.815 3.497 4.23v4.712a2.717 2.717 0 00-.996 2.107v2.05a2.732 2.732 0 002.6 2.725c.268 2.67 1.508 5.117 3.477 6.812.47.405.958.766 1.46 1.086v1.439c0 .43-.182.897-.458 1.237a1.944 1.944 0 00-1.135-.133l-7.945 1.476a.87.87 0 00-.088.02 10.188 10.188 0 00-4.39 2.62l-.098.098-.121.13c-.056.06-.111.119-.165.18l-.08.09-.19.226-.064.08c-.063.078-.124.157-.184.236-.01.015-.022.028-.033.042l-.043.061a10.4 10.4 0 00-.521.779 10.186 10.186 0 00-1.482 5.314v1.071a.88.88 0 101.758 0v-1.071c0-.857.127-1.695.372-2.495a2.876 2.876 0 002.112.614 2.88 2.88 0 001.947-1.063l.957-1.186a2.88 2.88 0 00.626-2.129 2.878 2.878 0 00-.721-1.622c.252-.103.51-.196.775-.275l5.07-.942 4.022 5.63a2.07 2.07 0 002.508.705l.267-.114 1.17 1.361-1.688 12.134H15.023v-7.13a.88.88 0 00-1.759 0v7.13H9.748a1.096 1.096 0 01-1.095-1.095v-4.36a.88.88 0 10-1.758 0v4.36A2.856 2.856 0 009.748 60h40.5a2.856 2.856 0 002.854-2.853v-9.523a10.19 10.19 0 00-1.483-5.314zm-38.948.08l-.957 1.187a1.133 1.133 0 01-.765.418c-.303.033-.6-.055-.838-.246l-.367-.296a8.69 8.69 0 01.248-.413c0-.002.002-.003.003-.005.074-.115.151-.228.23-.34l.073-.101a8.62 8.62 0 01.217-.285l.058-.072c.084-.103.17-.204.26-.303l.078-.085c.088-.096.177-.19.27-.28l.023-.024c.34-.334.708-.64 1.103-.913l.193.155c.237.191.385.464.418.766.032.303-.056.6-.247.838zm34.823-1.603l.193-.155c.395.274.763.58 1.103.913l.024.023c.092.092.181.185.27.28l.078.086c.089.099.175.2.26.303l.057.072c.074.093.147.188.217.285l.073.1a8.492 8.492 0 01.48.759l-.366.296a1.135 1.135 0 01-.837.246 1.133 1.133 0 01-.766-.418l-.957-1.187a1.141 1.141 0 01.172-1.603zM37 38.21a.03.03 0 00.003-.003l.23-.172a.185.185 0 01.144-.033l.922.17-3.546 4.962a.321.321 0 01-.39.11l-2.613-1.11L37 38.208zm-7.001 3.037l-5.123-3.83a3.776 3.776 0 00.776-2.248v-.515a11.46 11.46 0 004.337.882h.02a11.466 11.466 0 004.337-.882v.515c0 .805.292 1.613.776 2.249l-5.123 3.829zm1.711 2.78l-.8.93h-1.821l-.801-.93 1.711-.727 1.711.727zM17.351 12.234c-1.13-.697-1.738-1.466-1.738-2.227 0-1.585 2.117-3.74 4.084-5.072 1.753-1.186 5.422-3.177 10.3-3.177 4.88 0 8.549 1.99 10.302 3.177 1.967 1.332 4.084 3.487 4.084 5.072 0 .76-.609 1.53-1.739 2.227v-1.599c0-1.242-.84-2.324-2.043-2.631-2.276-.582-6.752-1.558-11.153-1.56h-.012c-3.811 0-7.598.84-10.103 1.544a2.725 2.725 0 00-1.982 2.614v1.632zm3.05 3.086l-.038-.023a5.7 5.7 0 01-.533-.39 3.572 3.572 0 01-.093-.083l-.068-.063a2.944 2.944 0 01-.098-.1l-.045-.047-.004-.005h14.76a.88.88 0 000-1.758H19.11v-2.249a.96.96 0 01.698-.921c2.4-.675 6.017-1.478 9.628-1.478h.01c4.21.002 8.523.943 10.72 1.504.424.109.72.49.72.928v2.216h-2.358a.88.88 0 100 1.758h1.946l-.004.005-.045.048a3.142 3.142 0 01-.098.1c-.022.02-.045.04-.067.062a3.566 3.566 0 01-.398.318 7.139 7.139 0 01-.23.155l-.036.023c-.366.23-.8.452-1.298.658l-.03.015c-1.884.777-4.715 1.363-8.27 1.363-3.555 0-6.386-.587-8.27-1.363l-.03-.015a8.68 8.68 0 01-1.297-.658zm.082 2.043v1.713a4.875 4.875 0 00-1.373-.457v-2.043c.377.268.83.532 1.373.787zm19.03 0c.542-.255.996-.52 1.373-.787v2.043a4.88 4.88 0 00-1.373.457v-1.713zM23.58 31.311c-1.801-1.55-2.865-3.874-2.918-6.375a.88.88 0 00-.88-.86h-.699a.971.971 0 01-.97-.97v-2.05c0-.294.133-.568.357-.75.31.028.889.12 1.38.432l.014.01a2.025 2.025 0 01.316.251c.026.026.053.05.08.073l.026.02c.02.016.042.032.064.047l.026.017a1.187 1.187 0 00.188.099l.027.01c.025.01.05.02.075.027l.029.01c.033.009.066.017.1.024h.002c.034.007.07.012.105.015l.028.003.08.004h.03c.035 0 .07-.002.104-.005h.003c.035-.004.07-.01.106-.016l.03-.006.078-.02.031-.01a1.21 1.21 0 00.85-1.156v-2.102c2.264.713 5.047 1.082 7.756 1.082 2.709 0 5.492-.37 7.756-1.082v2.102a1.21 1.21 0 00.85 1.157l.03.009.08.02.028.006c.071.013.143.02.215.021H38.985c.027 0 .054-.002.082-.004l.027-.002c.07-.008.14-.021.207-.041l.028-.009a1.24 1.24 0 00.076-.026l.027-.011a1.223 1.223 0 00.188-.099l.026-.017a1.254 1.254 0 00.17-.14 1.75 1.75 0 01.204-.174l.008-.006a2.05 2.05 0 01.099-.068l.027-.017.09-.054.013-.008c.034-.019.069-.037.104-.054l.026-.013c.03-.015.062-.03.093-.043l.013-.006c.036-.015.072-.03.108-.043l.02-.007a2.72 2.72 0 01.102-.037l.006-.001c.038-.013.075-.024.113-.035l.004-.002c.268-.076.513-.11.68-.125a.965.965 0 01.357.75v2.05c0 .535-.435.97-.97.97h-.7a.88.88 0 00-.879.86c-.053 2.5-1.117 4.824-2.917 6.374-1.867 1.608-4.027 2.438-6.419 2.467-2.392-.029-4.551-.859-6.419-2.466zm2.053 11.932c-.14.06-.3.014-.39-.11l-3.545-4.961.922-.171c.05-.01.103.002.144.033l.23.172.003.003 5.25 3.923-2.614 1.11zm2.213 14.999l1.604-11.527h1.096l1.604 11.527h-4.304zm22.402 0h-3.516v-7.13a.88.88 0 00-1.758 0v7.13H33.926l-1.689-12.134 1.171-1.36.268.113a2.07 2.07 0 002.507-.706l4.023-5.629 5.07.942c.264.08.522.172.775.275a2.903 2.903 0 00-.096 3.75l.956 1.187a2.88 2.88 0 002.262 1.08c.653 0 1.28-.22 1.798-.63.245.8.372 1.637.372 2.493v9.524c0 .604-.491 1.095-1.095 1.095z" fill="currentColor"/><path d="M42 50.233h-4.63c-.792 0-1.436.645-1.436 1.437v2.466c0 .792.644 1.437 1.436 1.437H42c.792 0 1.436-.645 1.436-1.437V51.67c0-.792-.644-1.437-1.436-1.437zm-4.308 3.581v-1.822h3.985v1.822h-3.985zM22.629 50.233h-4.63c-.792 0-1.436.645-1.436 1.437v2.466c0 .792.644 1.437 1.436 1.437h4.63c.791 0 1.436-.645 1.436-1.437V51.67c0-.792-.645-1.437-1.436-1.437zm-.322 3.581H18.32v-1.822h3.986v1.822z" fill="currentColor"/></svg>