<?xml version="1.0" encoding="utf-8"?><svg width="60" height="60" fill="none" xmlns="http://www.w3.org/2000/svg" viewBox="0 0 60 60"><path d="M56.754 35.75h-.543V12.954a3.25 3.25 0 00-3.246-3.247h-.541V.879a.879.879 0 00-.88-.879H8.456A4.672 4.672 0 003.79 4.668v6.443A8.487 8.487 0 000 18.161v33.384C0 56.207 3.793 60 8.455 60H44.01a.879.879 0 000-1.758H8.455a6.705 6.705 0 01-6.697-6.697V23.317a8.446 8.446 0 006.697 3.3h44.51c.82 0 1.488.668 1.488 1.49v7.643h-4.802a6.569 6.569 0 00-6.561 6.561 6.569 6.569 0 006.56 6.562h4.803v7.88a1.49 1.49 0 01-1.488 1.49h-4.854a.879.879 0 000 1.757h4.854a3.25 3.25 0 003.246-3.246v-7.881h.543A3.25 3.25 0 0060 45.626v-6.63a3.25 3.25 0 00-3.246-3.246zm-3.789-24.285c.82 0 1.488.668 1.488 1.489v8.48a3.227 3.227 0 00-1.488-.363h-.541v-9.607h.541zm0 13.394H8.455a6.705 6.705 0 01-6.697-6.697 6.72 6.72 0 012.03-4.8v4.8a4.672 4.672 0 004.667 4.667h5.482a.879.879 0 000-1.758H8.455a2.913 2.913 0 01-2.909-2.91V8.314a4.643 4.643 0 002.91 1.02h32.267a.879.879 0 000-1.757H8.455a2.912 2.912 0 01-2.909-2.909 2.912 2.912 0 012.91-2.91h42.21v2.031H8.456a.879.879 0 000 1.758h42.21v2.03h-5.842a.879.879 0 000 1.758h5.842v11.738h-2.03v-2.91a.879.879 0 00-.88-.879c-2.778 0-5.04-2.26-5.04-5.04a.879.879 0 00-.878-.879H11.533a.879.879 0 000 1.758h29.483a6.813 6.813 0 005.862 5.863v2.087h-28.84a.879.879 0 000 1.757h34.927a1.49 1.49 0 011.488 1.478v.915a3.223 3.223 0 00-1.488-.363zm5.277 20.767a1.49 1.49 0 01-1.488 1.489H49.65a4.809 4.809 0 01-4.804-4.804 4.809 4.809 0 014.804-4.803h7.103c.82 0 1.488.668 1.488 1.489v6.629z" fill="currentColor"/><path d="M49.65 39.538a2.776 2.776 0 00-2.772 2.774 2.776 2.776 0 002.773 2.773 2.776 2.776 0 002.773-2.773 2.776 2.776 0 00-2.773-2.773zm0 3.789a1.016 1.016 0 111.015-1.015c.001.56-.454 1.015-1.014 1.015z" fill="currentColor"/></svg>