<?xml version="1.0" encoding="utf-8"?><svg width="60" height="60" fill="none" xmlns="http://www.w3.org/2000/svg" viewBox="0 0 60 60"><path fill-rule="evenodd" clip-rule="evenodd" d="M47.797 4.81h11.32a.883.883 0 01.883.883v53.424a.882.882 0 01-.883.883H.883A.881.881 0 010 59.117V5.693a.883.883 0 01.883-.883h11.32V.883A.883.883 0 0113.086 0h3.767a.882.882 0 01.883.883V4.81h9.498V.883A.885.885 0 0128.117 0h3.766a.882.882 0 01.883.883V4.81h9.499V.883A.881.881 0 0143.148 0h3.766a.883.883 0 01.883.883V4.81zM46.03 1.766h-2V9.62h2V1.766zm-15.031 0h-2L29 9.62H31V1.766zm-15.03 0h-2V9.62h2V1.766zm-3.766 4.81H1.766v10.107h56.467V6.577H47.796v3.927a.883.883 0 01-.883.883h-3.766a.881.881 0 01-.883-.883V6.577h-9.498v3.927a.883.883 0 01-.883.883h-3.766a.88.88 0 01-.883-.883V6.577h-9.499v3.927a.882.882 0 01-.883.883h-3.766a.883.883 0 01-.883-.883V6.577zM1.766 18.45v39.785h56.468V18.449H1.766zm7.641 4.671a4.055 4.055 0 114.505 6.743 4.055 4.055 0 01-4.505-6.743zm.982 5.273a2.288 2.288 0 102.542-3.804 2.288 2.288 0 00-2.542 3.805zm13.498-5.956a4.055 4.055 0 100 8.11 4.055 4.055 0 000-8.11zm0 6.342a2.288 2.288 0 110-4.575 2.288 2.288 0 010 4.575zm9.974-5.659a4.055 4.055 0 114.505 6.743 4.055 4.055 0 01-4.505-6.743zm14.48-.683a4.054 4.054 0 10-.002 8.11 4.054 4.054 0 00.001-8.11zm0 6.342a2.288 2.288 0 11-.002-4.575 2.288 2.288 0 01.001 4.575zM9.406 34.973a4.054 4.054 0 114.504 6.743 4.054 4.054 0 01-4.504-6.743zm.981 5.274c.377.251.819.385 1.272.385v-.002a2.29 2.29 0 002.287-2.286 2.288 2.288 0 10-3.559 1.903zm13.499-5.957a4.055 4.055 0 10-.001 8.11 4.055 4.055 0 000-8.11zm0 6.342a2.288 2.288 0 112.287-2.288 2.291 2.291 0 01-2.287 2.286v.002zm9.973-5.66a4.055 4.055 0 114.505 6.744 4.055 4.055 0 01-4.505-6.743zm.982 5.275c.376.251.819.385 1.271.385v-.002a2.29 2.29 0 002.288-2.286 2.288 2.288 0 10-3.56 1.903zM48.34 34.29a4.055 4.055 0 10-.001 8.11 4.055 4.055 0 00.001-8.11zm0 6.342a2.288 2.288 0 111.616-.673 2.29 2.29 0 01-1.616.67v.003zm-38.933 6.19a4.054 4.054 0 114.505 6.74 4.054 4.054 0 01-4.505-6.74zm.982 5.272a2.288 2.288 0 102.542-3.805 2.288 2.288 0 00-2.542 3.805zm13.498-5.956a4.054 4.054 0 100 8.108 4.054 4.054 0 000-8.108zm0 6.342a2.288 2.288 0 110-4.575 2.288 2.288 0 010 4.575zm9.974-5.659a4.054 4.054 0 114.505 6.741 4.054 4.054 0 01-4.505-6.74zm.981 5.273a2.288 2.288 0 102.542-3.804 2.288 2.288 0 00-2.542 3.804zm13.498-5.956a4.054 4.054 0 100 8.109 4.054 4.054 0 000-8.11zm0 6.342a2.288 2.288 0 110-4.576 2.288 2.288 0 010 4.576z" fill="currentColor"/></svg>