<?xml version="1.0" encoding="utf-8"?><svg width="58" height="58" fill="none" xmlns="http://www.w3.org/2000/svg" viewBox="0 0 58 58"><path d="M55.504 14.741l1.56-4.163a.937.937 0 00-1.473-1.053L40.568 21.898a2.816 2.816 0 00-.936 2.859c.084.33.178.695.27 1.044a1.306 1.306 0 01-.543 1.416l-.037.024a1.282 1.282 0 01-1.585-.129l-2.232-3.177-.536-2.681a3.502 3.502 0 01.523-2.647 3.543 3.543 0 011.819-1.39 2.505 2.505 0 011.926.137l2.468 1.234a.938.938 0 001.329-1.066l-.602-2.406a3.945 3.945 0 00-1.234-2.016l.749-3.726a1.882 1.882 0 00-1.25-2.15l-1.256-.422-.011-.004c-.039-.013-.079-.022-.117-.033V5.563a.938.938 0 00-1.875 0v1.202c-.04.01-.08.02-.118.032l-.011.004-1.254.422a1.883 1.883 0 00-1.251 2.152l.603 3.001a8.833 8.833 0 00-1.372.453l-1.187-1.781 1.171-3.513a2.815 2.815 0 00-1.623-3.5l-2.457-.983v-1.24a.938.938 0 00-1.875 0v1.24l-2.459.983a2.816 2.816 0 00-1.624 3.5l1.171 3.513-1.187 1.782a8.844 8.844 0 00-1.372-.454l.604-3.002a1.883 1.883 0 00-1.25-2.15L20.692 6.8l-.011-.004c-.04-.012-.079-.021-.117-.032V5.563a.938.938 0 00-1.875 0v1.202c-.04.01-.08.02-.118.032l-.011.004-1.254.422a1.884 1.884 0 00-1.251 2.152l.748 3.725a3.945 3.945 0 00-1.234 2.016l-.601 2.406a.938.938 0 001.328 1.066l2.468-1.234a2.505 2.505 0 011.926-.137 3.542 3.542 0 012.346 2.66c.09.455.089.922-.003 1.376l-.536 2.681-2.233 3.177a1.28 1.28 0 01-1.586.13l-.036-.025A1.306 1.306 0 0118.1 25.8l.27-1.044a2.815 2.815 0 00-.936-2.858L2.408 9.526a.938.938 0 00-1.474 1.052l1.56 4.163a14.436 14.436 0 004.268 6.01l.43.358-4.327-.54a.938.938 0 00-.896 1.45 11.35 11.35 0 005.49 4.357l.665.25-4.541.504a.938.938 0 00-.379 1.735l1.644.987a19.545 19.545 0 006.381 2.442 13.688 13.688 0 00-3.635 3.686.937.937 0 00.78 1.458h.37c1.82.001 3.616-.409 5.255-1.2v2.137a.937.937 0 001.6.663l2.15-2.15 1.212 1.212a.938.938 0 001.443-.142l.835-1.253c.291-.437.71-.774 1.198-.965v.141a2.833 2.833 0 01-.823 1.99l-.665.666A7.674 7.674 0 0018.687 44a.937.937 0 00.83.93l-.538 1.078-1.17.292-2.393-2.675a2.81 2.81 0 10-2.375 1.313c.306 0 .61-.052.898-.151l1.813 2.027-.105.027a.938.938 0 00.455 1.819l1.066-.267.823.913a.936.936 0 001.58-.941.939.939 0 00-.187-.314l-.156-.173.624-.156a.938.938 0 00.611-.49l1.147-2.294h.827a.937.937 0 00.838-.519c.391-.786.97-1.464 1.688-1.97l.266.399-2.211 3.87a11.546 11.546 0 00-1.519 5.72.938.938 0 001.875 0c.001-1.68.44-3.331 1.272-4.79l1.28-2.24-.112.28a12.813 12.813 0 00-.537 7.914.937.937 0 101.82-.454 10.95 10.95 0 01.458-6.764l.012-.03.494.742v9.092a.938.938 0 001.875 0v-9.092l.495-.742.012.03a10.951 10.951 0 01.459 6.763.938.938 0 101.819.455c.662-2.629.474-5.4-.537-7.915l-.113-.28 1.281 2.24a9.671 9.671 0 011.272 4.79.938.938 0 001.875 0c0-2.006-.524-3.977-1.519-5.72l-2.211-3.869.267-.4a5.311 5.311 0 011.687 1.971.937.937 0 00.839.519h.827l1.147 2.294a.939.939 0 00.61.49l2.425.608a3.75 3.75 0 104.366-5.149v-1.056a.938.938 0 00-1.875 0v1.056a3.76 3.76 0 00-2.78 3.143l-1.262-.316-.539-1.077a.937.937 0 00.83-.931 7.676 7.676 0 00-2.26-5.463l-.667-.666a2.834 2.834 0 01-.822-1.99v-.142c.489.192.907.53 1.198.966l.835 1.253a.937.937 0 001.443.142l1.212-1.212 2.15 2.15a.937.937 0 001.6-.663v-2.138a12.062 12.062 0 005.255 1.2h.37a.937.937 0 00.78-1.457 13.689 13.689 0 00-3.636-3.685 19.543 19.543 0 006.382-2.443l1.643-.986a.938.938 0 00-.379-1.735l-4.54-.505.663-.249a11.351 11.351 0 005.491-4.357.938.938 0 00-.896-1.45l-4.327.54.43-.358a14.435 14.435 0 004.268-6.01zM12.918 43.054a.938.938 0 11.662-1.696.937.937 0 01-.662 1.696zm31.081 5.633a1.875 1.875 0 01-1.621-.937h3.243a1.876 1.876 0 01-1.622.938zm1.622-2.812h-.684v-.684c.283.165.519.4.684.684zm-2.56-.684v.684h-.683c.165-.284.4-.52.684-.684zM24.312 25.25h9.376v10.836a.936.936 0 01-.641.89l-4.047 1.348-4.046-1.349a.936.936 0 01-.641-.889V25.25zm15.764-9.573a4.366 4.366 0 00-3.357-.239 5.427 5.427 0 00-3.593 4.075 5.366 5.366 0 00.005 2.108l.35 1.754h-3.4l.477-3.34A7.03 7.03 0 0137.516 14H38.6a2.074 2.074 0 012.012 1.57l.108.429-.645-.322zm-3.427-6.676l1.25-.42c.31-.097.642-.097.953 0l1.257.425-.646 3.215a3.954 3.954 0 00-.861-.096h-1.085c-.083 0-.165 0-.246.003l-.622-3.127zM26.3 5.776L29 4.696l2.698 1.08a.939.939 0 01.541 1.167l-1.102 3.307h-4.273L25.76 6.943a.939.939 0 01.541-1.167zm.387 6.348h4.622l1.08 1.62a8.93 8.93 0 00-3.391 4.69 8.931 8.931 0 00-3.39-4.69l1.08-1.62zm-7.54-3.543c.31-.097.642-.097.953 0l1.257.424-.627 3.123a9.725 9.725 0 00-.248-.004h-1.085c-.29.001-.578.033-.86.097l-.64-3.22 1.25-.42zm2.132 6.857a4.37 4.37 0 00-3.357.239l-.645.322.107-.428A2.074 2.074 0 0119.398 14h1.085a7.029 7.029 0 016.958 6.035l.477 3.34h-3.4l.35-1.753a5.366 5.366 0 00-.802-4.055 5.426 5.426 0 00-2.786-2.129zM19.68 35.665l-.2.3-1.067-1.066a.938.938 0 00-1.326 0l-1.212 1.212v-1.486a.937.937 0 00-1.458-.78 10.195 10.195 0 01-3.984 1.578c.94-.985 2.042-1.8 3.26-2.409l.726-.363a.937.937 0 00-.265-1.763l-2.124-.354a17.673 17.673 0 01-5.442-1.85l5.64-.627a.938.938 0 00.226-1.81l-4.335-1.626a9.5 9.5 0 01-3.092-1.892l5.107.638a.937.937 0 00.716-1.65L7.963 19.31a12.557 12.557 0 01-3.712-5.228l-.332-.883 12.32 10.145a.934.934 0 01.311.947l-.267 1.033a3.182 3.182 0 001.317 3.451l.036.025a3.156 3.156 0 004.017-.43.91.91 0 00.094-.113l.69-.981v2.192l-.671.503a3.846 3.846 0 01-4.434.123.937.937 0 10-1.04 1.56 5.722 5.722 0 006.144.123v2.011a4.43 4.43 0 00-2.757 1.876zm16.045 4.198a5.805 5.805 0 011.639 3.2h-1.248a7.165 7.165 0 00-2.946-2.714.937.937 0 00-1.2.318L29 45.122l-2.97-4.455a.938.938 0 00-1.199-.319 7.165 7.165 0 00-2.946 2.715h-1.248a5.807 5.807 0 011.639-3.2l.665-.665c.251-.252.472-.532.66-.834.231.168.488.3.76.39l4.343 1.448c.192.065.4.065.593 0l4.343-1.447a2.81 2.81 0 00.76-.392c.187.303.408.583.66.835l.665.665zM50.036 19.31l-2.887 2.406a.937.937 0 00.716 1.65l5.107-.638a9.497 9.497 0 01-3.092 1.892l-4.335 1.626a.937.937 0 00.226 1.81l5.64.626a17.673 17.673 0 01-5.442 1.85l-2.124.354a.937.937 0 00-.265 1.764l.727.363c1.217.609 2.32 1.424 3.259 2.409a10.195 10.195 0 01-3.985-1.579.938.938 0 00-1.457.781v1.487L40.912 34.9a.938.938 0 00-1.326 0l-1.066 1.066-.2-.3a4.43 4.43 0 00-2.758-1.877v-2.012a5.722 5.722 0 006.145-.123.938.938 0 00-1.04-1.56 3.846 3.846 0 01-4.434-.123l-.671-.502v-2.192l.69.982c.028.04.059.078.093.113a3.156 3.156 0 004.017.429l.037-.025a3.182 3.182 0 001.316-3.45c-.09-.346-.183-.707-.266-1.034a.934.934 0 01.31-.947L54.08 13.2l-.33.883a12.556 12.556 0 01-3.713 5.228z" fill="currentColor"/><path d="M26.462 34.35a.938.938 0 001.325 0 2.773 2.773 0 00.754-2.538h.968c.28.386.43.85.428 1.326v.55a.938.938 0 001.875 0v-.55a4.105 4.105 0 00-.888-2.56.94.94 0 01.888-.64.938.938 0 000-1.875 2.817 2.817 0 00-2.651 1.875h-1.099v-1.875a.938.938 0 00-1.875 0v2.812a.932.932 0 00.099.42l.345.688a.901.901 0 01-.17 1.042.937.937 0 000 1.325z" fill="currentColor"/></svg>