<?xml version="1.0" encoding="utf-8"?><svg width="69" height="60" xmlns="http://www.w3.org/2000/svg" viewBox="0 0 69 60"><path d="M30.214 24.429l-4.928.857L37.07 44.357 34.93 48 23.143 28.929 18 29.786 30.857 50.57l-4.071.215L13.929 30l-4.715-.429L27.857 60h14.357l7.072-12-7.929-12.857-1.286 5.357-9.857-16.071zM36.643 20.571l1.714-4.714h-22.5l-1.714-3.643h22.5L38.357 7.5H14.143l1.714-3.643h24.429L43.07 0H7.5L0 12.214 6.643 24.43h15l-3.857-3.858h18.857zM37.071 28.286l3.215 3.857L51 12.214l4.071.215-10.5 19.714L47.786 36l11.357-21.429L61.714 18 50.143 39.429l1.928 4.285L69 12.43 61.714 0H48l-7.286 13.286 5.143-1.5-8.786 16.5z" fill="currentColor"/></svg>