<?xml version="1.0" encoding="utf-8"?><svg width="30" height="30" fill="none" xmlns="http://www.w3.org/2000/svg" viewBox="0 0 30 30"><path d="M27.5 8.25H25v-4h-2v-2H7v2H5v4H2.5a2.503 2.503 0 00-2.5 2.5v11h7v6h16v-6h7v-11a2.503 2.503 0 00-2.5-2.5zm-4.5-3h1v3h-1v-3zm-15-2h14v8H8v-8zm-2 2h1v3H6v-3zm16 21.5H8v-5h14v5zm2.5-6h-19v-1h19v1zm4.5 0h-3.5v-2h-21v2H1v-10a1.5 1.5 0 011.5-1.5H7v2H5.5a.5.5 0 000 1h19a.5.5 0 000-1H23v-2h4.5a1.5 1.5 0 011.5 1.5v10z" fill="currentColor"/><path d="M3.5 14.75a1.5 1.5 0 100 3 1.5 1.5 0 000-3zm0 2a.5.5 0 110-1 .5.5 0 010 1zM7.5 14.75a1.5 1.5 0 100 3 1.5 1.5 0 000-3zm0 2a.5.5 0 110-1 .5.5 0 010 1zM20 22.75H10v1h10v-1zM20 24.75H10v1h10v-1z" fill="currentColor"/></svg>