<?xml version="1.0" encoding="utf-8"?><svg width="279" height="279" fill="none" xmlns="http://www.w3.org/2000/svg" viewBox="0 0 279 279"><circle cx="140.143" cy="139.143" r="122.143" fill="currentColor"/><path d="M239.346 131.278c2.317 28.305-7.352 57.407-29.007 79.061-21.654 21.655-50.756 31.324-79.061 29.007l-2.754 2.754c29.934 3.184 60.993-6.696 83.937-29.639 22.943-22.944 32.823-54.003 29.639-83.937l-2.754 2.754zM45.32 173.726C32.47 138.297 40.25 97.069 68.66 68.66c28.41-28.41 69.637-36.19 105.066-23.34l2.335-2.335c-36.78-13.91-79.911-6.058-109.523 23.553-29.61 29.612-37.462 72.743-23.553 109.523l2.335-2.335z" fill="#fff"/></svg>