<?xml version="1.0" encoding="utf-8"?><svg width="70" height="70" fill="none" xmlns="http://www.w3.org/2000/svg" viewBox="0 0 70 70"><path d="M13.09 47.126h-.012c-.566 0-1.02.459-1.02 1.025a1.03 1.03 0 001.031 1.026 1.025 1.025 0 000-2.051zM21.859 47.126h-.011c-.566 0-1.02.459-1.02 1.025a1.03 1.03 0 001.031 1.026 1.025 1.025 0 000-2.051zM58.027 47.126h-.011c-.566 0-1.02.459-1.02 1.025a1.03 1.03 0 001.031 1.026 1.025 1.025 0 000-2.051z" fill="#005BBB"/><path d="M69.058 34.729l-1.379-1.379-2.777-8.332a1.026 1.026 0 00-.311-2.003h-9.934v-4.454c0-1.17-.952-2.121-2.121-2.121H2.12C.951 16.44 0 17.39 0 18.56v24.111c0 1.17.952 2.121 2.121 2.121h1.167v2.262c0 1.17.951 2.122 2.121 2.122H7.77a5.418 5.418 0 005.31 4.383c1.803 0 3.401-.886 4.385-2.246a5.405 5.405 0 004.384 2.246c2.631 0 4.83-1.89 5.31-4.383h25.546a5.418 5.418 0 005.31 4.383 5.415 5.415 0 005.41-5.409l-.002-.07h4.456c1.17 0 2.121-.951 2.121-2.121v-8.956c0-.86-.335-1.667-.942-2.275zM7.77 47.126H5.41a.07.07 0 01-.071-.07v-2.262h3.506a5.388 5.388 0 00-1.075 2.332zm5.31 4.384a3.362 3.362 0 01-3.357-3.358 3.362 3.362 0 013.337-3.358h.042a3.362 3.362 0 013.337 3.358 3.363 3.363 0 01-3.358 3.358zm8.769 0a3.362 3.362 0 01-3.359-3.358 3.362 3.362 0 013.338-3.358h.042a3.362 3.362 0 013.337 3.358 3.363 3.363 0 01-3.358 3.358zm30.856-4.384H27.159a5.387 5.387 0 00-1.074-2.333H45.96a1.025 1.025 0 000-2.05H2.12a.07.07 0 01-.07-.07V18.56a.07.07 0 01.07-.07h50.414a.07.07 0 01.07.07v24.182h-2.261a1.025 1.025 0 100 2.05h3.435a5.387 5.387 0 00-1.074 2.333zm13.02-13.151h-6.614a.07.07 0 01-.07-.071V29.45h5.176l1.508 4.525zm-7.71 17.535a3.362 3.362 0 01-3.358-3.358 3.362 3.362 0 013.337-3.358h.029a3.362 3.362 0 013.35 3.357 3.363 3.363 0 01-3.358 3.359zm9.934-5.55a.07.07 0 01-.07.07H62.99a5.417 5.417 0 00-4.976-3.288h-3.358V25.138a.07.07 0 01.07-.071h8.029l.778 2.333h-5.519c-.566 0-1.025.459-1.025 1.025v5.48c0 1.17.951 2.121 2.121 2.121h8.343l.154.154c.22.22.341.513.341.825v2.45h-1.166a1.025 1.025 0 000 2.052h1.166v4.454z" fill="#005BBB"/><path d="M49.246 38.359H5.408a1.025 1.025 0 100 2.05h43.839a1.025 1.025 0 000-2.05z" fill="#005BBB"/></svg>