<?xml version="1.0" encoding="utf-8"?><svg width="20" height="20" xmlns="http://www.w3.org/2000/svg" viewBox="0 0 20 20"><path d="M16.02 7.813V3.941A3.94 3.94 0 0012.08 0H7.92a3.94 3.94 0 00-3.94 3.94v3.873A7.808 7.808 0 007.021 20h5.957A7.808 7.808 0 0016.02 7.813zM6.48 4.045c0-.853.69-1.545 1.544-1.545h3.952c.853 0 1.545.692 1.545 1.545v1.769A7.773 7.773 0 0010 4.976a7.773 7.773 0 00-3.52.838v-1.77zM10 16.94a3.592 3.592 0 01-3.588-3.588h1.176A2.415 2.415 0 0010 15.764a2.415 2.415 0 002.412-2.412h1.176A3.592 3.592 0 0110 16.94zm-.588-3.588v-1.417a.588.588 0 111.176 0v1.417a.588.588 0 11-1.176 0zm3-1.287A2.415 2.415 0 0010 9.653a2.415 2.415 0 00-2.412 2.412H6.412A3.592 3.592 0 0110 8.477a3.592 3.592 0 013.588 3.588h-1.176z" fill="currentColor"/></svg>