<?xml version="1.0" encoding="utf-8"?><svg xmlns="http://www.w3.org/2000/svg" xmlns:xlink="http://www.w3.org/1999/xlink"><symbol viewBox="0 0 12 8" id="angle" xmlns="http://www.w3.org/2000/svg"><path fill-rule="evenodd" clip-rule="evenodd" d="M10.6 7.4L12 6 6 0 0 6l1.4 1.4L6 2.8l4.6 4.6z" fill="currentColor"/></symbol><symbol viewBox="0 0 15 7" id="arrow" xmlns="http://www.w3.org/2000/svg"><path fill-rule="evenodd" clip-rule="evenodd" d="M11.674.694l-.536.536 2.143 2.142H.959v.766h12.322L11.138 6.28l.536.535 3.06-3.06-3.06-3.062z" fill="currentColor"/></symbol><symbol fill="none" viewBox="0 0 30 30" id="clock" xmlns="http://www.w3.org/2000/svg"><path d="M29.94 12.842a.631.631 0 00-.572-.363H27.5C26.312 6.033 20.652 1.133 13.867 1.133 6.221 1.133 0 7.354 0 15c0 7.646 6.22 13.867 13.867 13.867 4.935 0 9.537-2.656 12.01-6.93a1.26 1.26 0 00-2.182-1.263 11.391 11.391 0 01-9.828 5.672c-6.255 0-11.346-5.09-11.346-11.344 0-6.257 5.09-11.347 11.346-11.347 5.389 0 9.903 3.78 11.053 8.825h-1.853a.632.632 0 00-.485 1.034l3.152 3.782a.63.63 0 00.968 0l3.152-3.782a.63.63 0 00.086-.672z" fill="currentColor"/><path d="M13.868 4.285a1.26 1.26 0 00-1.26 1.26v7.65a2.203 2.203 0 001.26 4.012c.334 0 .648-.08.931-.213l4.385 2.531a1.26 1.26 0 101.26-2.182l-4.39-2.535a2.195 2.195 0 00-.924-1.612v-7.65a1.263 1.263 0 00-1.262-1.261zm0 11.66a.946.946 0 01-.945-.944c0-.52.424-.945.945-.945.52 0 .945.424.945.945 0 .52-.424.945-.945.945z" fill="currentColor"/></symbol><symbol viewBox="0 0 20 20" id="cube" xmlns="http://www.w3.org/2000/svg"><path d="M5.082 5.319l8.803-3.774L10.24.047a.632.632 0 00-.48 0L1.005 3.644l4.077 1.675zM15.523 2.218L6.718 5.99 10 7.339l8.995-3.695-3.472-1.426zM9.368 8.446L5.806 6.983v2.77a.632.632 0 01-1.265 0v-3.29L.438 4.778v11.13c0 .256.155.487.392.585L9.368 20V8.446zM10.632 8.446V20l8.538-3.508a.632.632 0 00.392-.584V4.778l-8.93 3.668z" fill="currentColor"/></symbol><symbol viewBox="0 0 18 12" id="envelope" xmlns="http://www.w3.org/2000/svg"><path d="M16.531 0H.72C.299 0 0 .302 0 .724v10.552c0 .422.3.724.719.724H16.53c.42 0 .719-.302.719-.724V.724c0-.422-.3-.724-.719-.724zm-5.27 6.513c1.317.904 4.791 3.618 4.791 3.618.12.12.12.361.06.482-.06.12-.3.241-.42.12 0 0-3.653-2.653-5.09-3.617-.06-.06-.12 0-.12 0L8.924 8.382c-.06.06-.18.12-.299.12-.12 0-.24-.06-.3-.12L6.769 7.116s-.06-.06-.12 0c-1.377.964-5.03 3.678-5.03 3.678-.12.12-.42 0-.48-.12-.06-.121-.06-.362.06-.483 0 0 3.474-2.653 4.792-3.558.06-.06 0-.12 0-.12L1.078 1.99c-.18-.18-.24-.422-.12-.603a.33.33 0 01.3-.181c.12 0 .18 0 .3.06l6.947 6.09c.06.061.12.061.18.061s.12 0 .18-.06l6.888-6.09c.06-.061.12-.061.24-.061.119 0 .239.06.299.18.12.182.06.423-.12.604L11.26 6.452c0-.06-.06 0 0 .06z" fill="currentColor"/></symbol><symbol fill="none" viewBox="0 0 60 60" id="inc-alarm" xmlns="http://www.w3.org/2000/svg"><path d="M30 34.688A4.693 4.693 0 0034.688 30 4.693 4.693 0 0030 25.312 4.693 4.693 0 0025.312 30 4.693 4.693 0 0030 34.688zm0-7.032A2.347 2.347 0 0132.344 30 2.347 2.347 0 0130 32.344 2.347 2.347 0 0127.656 30 2.347 2.347 0 0130 27.656zM1.172 12.89c.647 0 1.172-.524 1.172-1.171 0-5.17 4.205-9.375 9.375-9.375a1.172 1.172 0 000-2.344C5.257 0 0 5.257 0 11.719c0 .647.525 1.172 1.172 1.172zM11.719 7.031A4.693 4.693 0 007.03 11.72a1.172 1.172 0 002.344 0 2.346 2.346 0 012.344-2.344 1.172 1.172 0 000-2.344zM47.11 58.828c0 .647.524 1.172 1.171 1.172C54.743 60 60 54.743 60 48.281a1.172 1.172 0 10-2.344 0c0 5.17-4.205 9.375-9.375 9.375-.647 0-1.172.525-1.172 1.172zM50.625 48.281a2.346 2.346 0 01-2.344 2.344 1.172 1.172 0 100 2.344 4.693 4.693 0 004.688-4.688 1.172 1.172 0 00-2.344 0z" fill="currentColor"/><path d="M18.281 57.146v1.682c0 .647.525 1.172 1.172 1.172h5.274a1.172 1.172 0 100-2.344h-4.102v-7.459A22.298 22.298 0 0030 52.266c3.248 0 6.451-.712 9.375-2.069v7.46h-4.102a1.172 1.172 0 000 2.343h5.274c.647 0 1.172-.525 1.172-1.172v-9.893C48.125 44.96 52.266 37.905 52.266 30c0-12.277-9.989-22.266-22.266-22.266-10.61 0-19.597 7.457-21.77 17.578H1.39c-.59 0-1.089.44-1.163 1.026a29.34 29.34 0 00.698 10.987c2.32 8.977 8.777 16.33 17.355 19.821zM3.621 38.203h5.676a22.32 22.32 0 008.984 10.731v5.663a27.017 27.017 0 01-14.66-16.394zM30 10.078c10.985 0 19.922 8.937 19.922 19.922 0 10.835-8.78 19.922-19.922 19.922-11.003 0-19.922-8.918-19.922-19.922A19.868 19.868 0 0130 10.078zM2.445 27.655h5.412A22.601 22.601 0 007.734 30c0 1.994.263 3.959.781 5.86h-5.53a27.034 27.034 0 01-.54-8.205z" fill="currentColor"/><path d="M30 60a1.172 1.172 0 100-2.344A1.172 1.172 0 0030 60z" fill="currentColor"/></symbol><symbol fill="none" viewBox="0 0 60 60" id="inc-calendar" xmlns="http://www.w3.org/2000/svg"><path fill-rule="evenodd" clip-rule="evenodd" d="M47.797 4.81h11.32a.883.883 0 01.883.883v53.424a.882.882 0 01-.883.883H.883A.881.881 0 010 59.117V5.693a.883.883 0 01.883-.883h11.32V.883A.883.883 0 0113.086 0h3.767a.882.882 0 01.883.883V4.81h9.498V.883A.885.885 0 0128.117 0h3.766a.882.882 0 01.883.883V4.81h9.499V.883A.881.881 0 0143.148 0h3.766a.883.883 0 01.883.883V4.81zM46.03 1.766h-2V9.62h2V1.766zm-15.031 0h-2L29 9.62H31V1.766zm-15.03 0h-2V9.62h2V1.766zm-3.766 4.81H1.766v10.107h56.467V6.577H47.796v3.927a.883.883 0 01-.883.883h-3.766a.881.881 0 01-.883-.883V6.577h-9.498v3.927a.883.883 0 01-.883.883h-3.766a.88.88 0 01-.883-.883V6.577h-9.499v3.927a.882.882 0 01-.883.883h-3.766a.883.883 0 01-.883-.883V6.577zM1.766 18.45v39.785h56.468V18.449H1.766zm7.641 4.671a4.055 4.055 0 114.505 6.743 4.055 4.055 0 01-4.505-6.743zm.982 5.273a2.288 2.288 0 102.542-3.804 2.288 2.288 0 00-2.542 3.805zm13.498-5.956a4.055 4.055 0 100 8.11 4.055 4.055 0 000-8.11zm0 6.342a2.288 2.288 0 110-4.575 2.288 2.288 0 010 4.575zm9.974-5.659a4.055 4.055 0 114.505 6.743 4.055 4.055 0 01-4.505-6.743zm14.48-.683a4.054 4.054 0 10-.002 8.11 4.054 4.054 0 00.001-8.11zm0 6.342a2.288 2.288 0 11-.002-4.575 2.288 2.288 0 01.001 4.575zM9.406 34.973a4.054 4.054 0 114.504 6.743 4.054 4.054 0 01-4.504-6.743zm.981 5.274c.377.251.819.385 1.272.385v-.002a2.29 2.29 0 002.287-2.286 2.288 2.288 0 10-3.559 1.903zm13.499-5.957a4.055 4.055 0 10-.001 8.11 4.055 4.055 0 000-8.11zm0 6.342a2.288 2.288 0 112.287-2.288 2.291 2.291 0 01-2.287 2.286v.002zm9.973-5.66a4.055 4.055 0 114.505 6.744 4.055 4.055 0 01-4.505-6.743zm.982 5.275c.376.251.819.385 1.271.385v-.002a2.29 2.29 0 002.288-2.286 2.288 2.288 0 10-3.56 1.903zM48.34 34.29a4.055 4.055 0 10-.001 8.11 4.055 4.055 0 00.001-8.11zm0 6.342a2.288 2.288 0 111.616-.673 2.29 2.29 0 01-1.616.67v.003zm-38.933 6.19a4.054 4.054 0 114.505 6.74 4.054 4.054 0 01-4.505-6.74zm.982 5.272a2.288 2.288 0 102.542-3.805 2.288 2.288 0 00-2.542 3.805zm13.498-5.956a4.054 4.054 0 100 8.108 4.054 4.054 0 000-8.108zm0 6.342a2.288 2.288 0 110-4.575 2.288 2.288 0 010 4.575zm9.974-5.659a4.054 4.054 0 114.505 6.741 4.054 4.054 0 01-4.505-6.74zm.981 5.273a2.288 2.288 0 102.542-3.804 2.288 2.288 0 00-2.542 3.804zm13.498-5.956a4.054 4.054 0 100 8.109 4.054 4.054 0 000-8.11zm0 6.342a2.288 2.288 0 110-4.576 2.288 2.288 0 010 4.576z" fill="currentColor"/></symbol><symbol fill="none" viewBox="0 0 60 60" id="inc-check" xmlns="http://www.w3.org/2000/svg"><path d="M30 0C13.459 0 0 13.457 0 30s13.459 30 30 30 30-13.457 30-30S46.541 0 30 0zm0 57.692C14.731 57.692 2.308 45.27 2.308 30S14.73 2.308 30 2.308 57.692 14.73 57.692 30 45.27 57.692 30 57.692z" fill="currentColor"/><path d="M44.137 17.695l-17.733 19.95L15.72 29.1a1.154 1.154 0 00-1.44 1.802l11.537 9.23a1.152 1.152 0 001.585-.134l18.461-20.77a1.153 1.153 0 10-1.726-1.532z" fill="currentColor"/></symbol><symbol fill="none" viewBox="0 0 60 60" id="inc-cooler" xmlns="http://www.w3.org/2000/svg"><path d="M30 31.172a1.172 1.172 0 100-2.344 1.172 1.172 0 000 2.344z" fill="currentColor"/><path d="M1.543 36.958a1.172 1.172 0 00-.257 1.83l10.076 10.42c.373.385.961.47 1.429.2a45.524 45.524 0 0011.338-9.238 45.53 45.53 0 00-2.33 14.44v4.218a1.172 1.172 0 001.456 1.137l14.063-3.516c.521-.13.887-.599.887-1.137 0-5.102-.854-10.445-2.395-15.22.717.81 1.46 1.595 2.23 2.35a1.172 1.172 0 001.64-1.674 43.622 43.622 0 01-4.15-4.705 8.104 8.104 0 002.488-4.31 43.172 43.172 0 0115.431 5.03l-3.32 11.603c-1.654-.957-1.838-1.058-2.329-1.35a1.172 1.172 0 10-1.203 2.01c.51.306.643.376 3.66 2.12.661.382 1.504.04 1.713-.692l3.987-13.936a1.172 1.172 0 00-.54-1.337A45.539 45.539 0 0041.752 30a45.538 45.538 0 0013.663-5.2l3.045-1.759a1.172 1.172 0 00.256-1.83l-10.075-10.42a1.172 1.172 0 00-1.429-.2 45.531 45.531 0 00-11.338 9.238 45.53 45.53 0 002.33-14.438V1.17A1.172 1.172 0 0036.75.036L22.686 3.551c-.521.13-.887.599-.887 1.136 0 5.1.853 10.44 2.392 15.213a45.525 45.525 0 00-11.4-9.309L9.746 8.833a1.172 1.172 0 00-1.713.693L4.047 23.462a1.172 1.172 0 00.54 1.337A45.538 45.538 0 0018.251 30a45.538 45.538 0 00-13.664 5.202l-3.044 1.757zm22.6 20.37v-2.719a43.2 43.2 0 013.37-16.79 8.15 8.15 0 002.489.384c.856 0 1.688-.129 2.485-.383 2.042 4.952 3.248 10.884 3.365 16.58l-11.71 2.927zm5.859-21.469a5.85 5.85 0 01-5.86-5.86c0-3.279 2.657-5.858 5.86-5.858 3.164 0 5.86 2.542 5.86 5.859 0 3.319-2.698 5.86-5.86 5.86zM47.6 13.085l8.39 8.677-1.745 1.008a43.2 43.2 0 01-16.227 5.476 8.105 8.105 0 00-2.49-4.31A43.161 43.161 0 0147.6 13.086zM35.86 2.673V5.39a43.2 43.2 0 01-3.37 16.79 8.149 8.149 0 00-2.49-.384c-.856 0-1.688.129-2.484.383-2.042-4.952-3.248-10.885-3.365-16.58l11.71-2.927zm-25.987 8.94l1.745 1.008a43.198 43.198 0 0112.856 11.315 8.103 8.103 0 00-2.49 4.31 43.173 43.173 0 01-15.43-5.028l3.319-11.604zm12.112 20.14a8.105 8.105 0 002.489 4.31 43.163 43.163 0 01-12.07 10.851l-8.39-8.676 1.744-1.008a43.203 43.203 0 0116.227-5.476z" fill="currentColor"/><path d="M42.89 46.172a1.172 1.172 0 100-2.344 1.172 1.172 0 000 2.344z" fill="currentColor"/></symbol><symbol fill="none" viewBox="0 0 58 58" id="inc-doc" xmlns="http://www.w3.org/2000/svg"><path d="M46.93 55.25h-1.992v1.875h2.784a.938.938 0 00.924-.78l7.028-41.25-1.848-.315-6.895 40.47zM56.35 5.577L45.1 3.593l-.325 1.847 10.332 1.822-.962 5.643 1.849.315 1.118-6.562a.938.938 0 00-.762-1.081zM42.125.875H1.812a.937.937 0 00-.937.938V43.25H2.75V2.75h38.438v52.5H2.75V42.125H.875v14.063a.938.938 0 00.938.937h40.312a.938.938 0 00.938-.938V1.813a.938.938 0 00-.938-.938z" fill="currentColor"/><path d="M9.975 32.087L8.65 33.413l2.813 2.813a.937.937 0 00.663.274h.036a.938.938 0 00.676-.327l5.625-6.563-1.424-1.22-4.966 5.794-2.097-2.097z" fill="currentColor"/><path d="M5.563 36.031a3.285 3.285 0 003.28 3.282h4.688a3.285 3.285 0 003.281-3.282v-.468h-1.875v.468a1.408 1.408 0 01-1.406 1.407H8.844a1.408 1.408 0 01-1.406-1.407v-4.687a1.408 1.408 0 011.406-1.407h4.219v-1.875h-4.22a3.285 3.285 0 00-3.28 3.282v4.687zM9.975 46.15L8.65 47.475l2.813 2.813a.937.937 0 00.663.275l.036-.001a.938.938 0 00.676-.327l5.625-6.562-1.424-1.22-4.966 5.793-2.097-2.096z" fill="currentColor"/><path d="M5.563 50.094a3.285 3.285 0 003.28 3.281h4.688a3.285 3.285 0 003.281-3.281v-.469h-1.875v.469a1.408 1.408 0 01-1.406 1.406H8.844a1.408 1.408 0 01-1.406-1.406v-4.688A1.408 1.408 0 018.844 44h4.219v-1.875h-4.22a3.285 3.285 0 00-3.28 3.281v4.688zM20.563 42.125h14.062V44H20.562v-1.875zM20.563 46.813h4.687v1.874h-4.688v-1.874zM27.125 46.813h7.5v1.874h-7.5v-1.874zM20.563 28.063h14.062v1.875H20.562v-1.875zM20.563 32.75h4.687v1.875h-4.688V32.75zM27.125 32.75h7.5v1.875h-7.5V32.75zM31.233 8.463l-8.425-3.757a.937.937 0 00-.764 0l-8.426 3.757a.937.937 0 00-.544 1.002l.702 4.46.004.021a15.345 15.345 0 006.054 9.624l2.043 1.505a.937.937 0 001.108.003l1.947-1.415a15.34 15.34 0 006.136-9.702l.71-4.495a.938.938 0 00-.545-1.003zm-2.015 5.195a13.474 13.474 0 01-5.389 8.488l-1.392 1.012-1.491-1.098a13.478 13.478 0 01-5.319-8.438l-.589-3.738 7.388-3.295 7.387 3.294-.595 3.775z" fill="currentColor"/><path d="M19.328 13.344l-1.326 1.325 2.813 2.813a.938.938 0 001.326 0l5.625-5.625-1.326-1.326-4.962 4.963-2.15-2.15zM33.688 4.625h1.874V6.5h-1.874V4.625zM37.438 4.625h1.874V6.5h-1.874V4.625z" fill="currentColor"/></symbol><symbol fill="none" viewBox="0 0 60 60" id="inc-guard" xmlns="http://www.w3.org/2000/svg"><path d="M51.62 42.31l-.021-.035a9.986 9.986 0 00-.5-.744l-.044-.06c-.01-.015-.022-.028-.033-.043-.06-.08-.121-.158-.183-.235l-.066-.081c-.062-.076-.125-.15-.19-.225l-.08-.092a9.503 9.503 0 00-.162-.178l-.123-.131-.095-.096a10.189 10.189 0 00-4.393-2.621.87.87 0 00-.088-.021l-7.945-1.476-.042-.006a1.947 1.947 0 00-1.093.139c-.276-.34-.459-.806-.459-1.237v-1.439c.502-.32.99-.68 1.46-1.086 1.97-1.695 3.21-4.142 3.477-6.812a2.732 2.732 0 002.601-2.725v-2.05c0-.828-.371-1.595-.996-2.107v-4.711c2.872-1.416 3.497-3.066 3.497-4.231 0-1.998-1.862-4.5-4.858-6.528C39.365 2.18 35.346 0 29.998 0c-5.349 0-9.367 2.18-11.286 3.48-2.996 2.027-4.858 4.528-4.858 6.527 0 1.165.625 2.815 3.497 4.23v4.712a2.717 2.717 0 00-.996 2.107v2.05a2.732 2.732 0 002.6 2.725c.268 2.67 1.508 5.117 3.477 6.812.47.405.958.766 1.46 1.086v1.439c0 .43-.182.897-.458 1.237a1.944 1.944 0 00-1.135-.133l-7.945 1.476a.87.87 0 00-.088.02 10.188 10.188 0 00-4.39 2.62l-.098.098-.121.13c-.056.06-.111.119-.165.18l-.08.09-.19.226-.064.08c-.063.078-.124.157-.184.236-.01.015-.022.028-.033.042l-.043.061a10.4 10.4 0 00-.521.779 10.186 10.186 0 00-1.482 5.314v1.071a.88.88 0 101.758 0v-1.071c0-.857.127-1.695.372-2.495a2.876 2.876 0 002.112.614 2.88 2.88 0 001.947-1.063l.957-1.186a2.88 2.88 0 00.626-2.129 2.878 2.878 0 00-.721-1.622c.252-.103.51-.196.775-.275l5.07-.942 4.022 5.63a2.07 2.07 0 002.508.705l.267-.114 1.17 1.361-1.688 12.134H15.023v-7.13a.88.88 0 00-1.759 0v7.13H9.748a1.096 1.096 0 01-1.095-1.095v-4.36a.88.88 0 10-1.758 0v4.36A2.856 2.856 0 009.748 60h40.5a2.856 2.856 0 002.854-2.853v-9.523a10.19 10.19 0 00-1.483-5.314zm-38.948.08l-.957 1.187a1.133 1.133 0 01-.765.418c-.303.033-.6-.055-.838-.246l-.367-.296a8.69 8.69 0 01.248-.413c0-.002.002-.003.003-.005.074-.115.151-.228.23-.34l.073-.101a8.62 8.62 0 01.217-.285l.058-.072c.084-.103.17-.204.26-.303l.078-.085c.088-.096.177-.19.27-.28l.023-.024c.34-.334.708-.64 1.103-.913l.193.155c.237.191.385.464.418.766.032.303-.056.6-.247.838zm34.823-1.603l.193-.155c.395.274.763.58 1.103.913l.024.023c.092.092.181.185.27.28l.078.086c.089.099.175.2.26.303l.057.072c.074.093.147.188.217.285l.073.1a8.492 8.492 0 01.48.759l-.366.296a1.135 1.135 0 01-.837.246 1.133 1.133 0 01-.766-.418l-.957-1.187a1.141 1.141 0 01.172-1.603zM37 38.21a.03.03 0 00.003-.003l.23-.172a.185.185 0 01.144-.033l.922.17-3.546 4.962a.321.321 0 01-.39.11l-2.613-1.11L37 38.208zm-7.001 3.037l-5.123-3.83a3.776 3.776 0 00.776-2.248v-.515a11.46 11.46 0 004.337.882h.02a11.466 11.466 0 004.337-.882v.515c0 .805.292 1.613.776 2.249l-5.123 3.829zm1.711 2.78l-.8.93h-1.821l-.801-.93 1.711-.727 1.711.727zM17.351 12.234c-1.13-.697-1.738-1.466-1.738-2.227 0-1.585 2.117-3.74 4.084-5.072 1.753-1.186 5.422-3.177 10.3-3.177 4.88 0 8.549 1.99 10.302 3.177 1.967 1.332 4.084 3.487 4.084 5.072 0 .76-.609 1.53-1.739 2.227v-1.599c0-1.242-.84-2.324-2.043-2.631-2.276-.582-6.752-1.558-11.153-1.56h-.012c-3.811 0-7.598.84-10.103 1.544a2.725 2.725 0 00-1.982 2.614v1.632zm3.05 3.086l-.038-.023a5.7 5.7 0 01-.533-.39 3.572 3.572 0 01-.093-.083l-.068-.063a2.944 2.944 0 01-.098-.1l-.045-.047-.004-.005h14.76a.88.88 0 000-1.758H19.11v-2.249a.96.96 0 01.698-.921c2.4-.675 6.017-1.478 9.628-1.478h.01c4.21.002 8.523.943 10.72 1.504.424.109.72.49.72.928v2.216h-2.358a.88.88 0 100 1.758h1.946l-.004.005-.045.048a3.142 3.142 0 01-.098.1c-.022.02-.045.04-.067.062a3.566 3.566 0 01-.398.318 7.139 7.139 0 01-.23.155l-.036.023c-.366.23-.8.452-1.298.658l-.03.015c-1.884.777-4.715 1.363-8.27 1.363-3.555 0-6.386-.587-8.27-1.363l-.03-.015a8.68 8.68 0 01-1.297-.658zm.082 2.043v1.713a4.875 4.875 0 00-1.373-.457v-2.043c.377.268.83.532 1.373.787zm19.03 0c.542-.255.996-.52 1.373-.787v2.043a4.88 4.88 0 00-1.373.457v-1.713zM23.58 31.311c-1.801-1.55-2.865-3.874-2.918-6.375a.88.88 0 00-.88-.86h-.699a.971.971 0 01-.97-.97v-2.05c0-.294.133-.568.357-.75.31.028.889.12 1.38.432l.014.01a2.025 2.025 0 01.316.251c.026.026.053.05.08.073l.026.02c.02.016.042.032.064.047l.026.017a1.187 1.187 0 00.188.099l.027.01c.025.01.05.02.075.027l.029.01c.033.009.066.017.1.024h.002c.034.007.07.012.105.015l.028.003.08.004h.03c.035 0 .07-.002.104-.005h.003c.035-.004.07-.01.106-.016l.03-.006.078-.02.031-.01a1.21 1.21 0 00.85-1.156v-2.102c2.264.713 5.047 1.082 7.756 1.082 2.709 0 5.492-.37 7.756-1.082v2.102a1.21 1.21 0 00.85 1.157l.03.009.08.02.028.006c.071.013.143.02.215.021H38.985c.027 0 .054-.002.082-.004l.027-.002c.07-.008.14-.021.207-.041l.028-.009a1.24 1.24 0 00.076-.026l.027-.011a1.223 1.223 0 00.188-.099l.026-.017a1.254 1.254 0 00.17-.14 1.75 1.75 0 01.204-.174l.008-.006a2.05 2.05 0 01.099-.068l.027-.017.09-.054.013-.008c.034-.019.069-.037.104-.054l.026-.013c.03-.015.062-.03.093-.043l.013-.006c.036-.015.072-.03.108-.043l.02-.007a2.72 2.72 0 01.102-.037l.006-.001c.038-.013.075-.024.113-.035l.004-.002c.268-.076.513-.11.68-.125a.965.965 0 01.357.75v2.05c0 .535-.435.97-.97.97h-.7a.88.88 0 00-.879.86c-.053 2.5-1.117 4.824-2.917 6.374-1.867 1.608-4.027 2.438-6.419 2.467-2.392-.029-4.551-.859-6.419-2.466zm2.053 11.932c-.14.06-.3.014-.39-.11l-3.545-4.961.922-.171c.05-.01.103.002.144.033l.23.172.003.003 5.25 3.923-2.614 1.11zm2.213 14.999l1.604-11.527h1.096l1.604 11.527h-4.304zm22.402 0h-3.516v-7.13a.88.88 0 00-1.758 0v7.13H33.926l-1.689-12.134 1.171-1.36.268.113a2.07 2.07 0 002.507-.706l4.023-5.629 5.07.942c.264.08.522.172.775.275a2.903 2.903 0 00-.096 3.75l.956 1.187a2.88 2.88 0 002.262 1.08c.653 0 1.28-.22 1.798-.63.245.8.372 1.637.372 2.493v9.524c0 .604-.491 1.095-1.095 1.095z" fill="currentColor"/><path d="M42 50.233h-4.63c-.792 0-1.436.645-1.436 1.437v2.466c0 .792.644 1.437 1.436 1.437H42c.792 0 1.436-.645 1.436-1.437V51.67c0-.792-.644-1.437-1.436-1.437zm-4.308 3.581v-1.822h3.985v1.822h-3.985zM22.629 50.233h-4.63c-.792 0-1.436.645-1.436 1.437v2.466c0 .792.644 1.437 1.436 1.437h4.63c.791 0 1.436-.645 1.436-1.437V51.67c0-.792-.645-1.437-1.436-1.437zm-.322 3.581H18.32v-1.822h3.986v1.822z" fill="currentColor"/></symbol><symbol fill="none" viewBox="0 0 60 60" id="inc-hand" xmlns="http://www.w3.org/2000/svg"><g clip-path="url(#alclip0)" fill="currentColor"><path d="M59.457 35.985c-1.753-2.442-3.53-2.481-7.979-.14l-8.623 5.272c-1.278.68-3.901.884-6.445.927.452-.941.25-2.064-.604-3.34a8.296 8.296 0 00-3.118-2.759A8.904 8.904 0 0036 28.999c0-4.962-4.037-9-9-9s-9 4.038-9 9a8.95 8.95 0 001.027 4.156c-.013-.009-.027-.017-.039-.027-3.59-2.707-9.588-3.089-11.987-3.13v-3.027H0v32.028h7v-3h13c2.04 0 4.098-.156 6.116-.462l12.963-1.971a6.77 6.77 0 001.376-.158c1.194-.168 2.335-.738 3.302-1.65l15.157-11.804.023-.019a2.927 2.927 0 00.52-3.95zM23.17 34.848A6.952 6.952 0 0120 28.999c0-3.86 3.141-7 7-7s7 3.14 7 7a6.946 6.946 0 01-3.652 6.139c-.124-.024-.25-.036-.375-.055-.125-.019-.248-.041-.375-.055a8.902 8.902 0 00-.98-.058h-3.9a9.934 9.934 0 01-1.548-.122zM5 56.999H2V28.971h3v28.028zm52.672-18.612L42.489 50.21l-.077.067c-.67.641-1.443 1.039-2.334 1.168a4.978 4.978 0 01-1.078.122L25.815 53.56c-1.919.292-3.876.44-5.815.44H7V32.001c2.217.046 7.706.404 10.784 2.724 1.336 1.008 2.937 1.692 4.645 2.02l.015.009.19.033.029.004c.328.056.66.101.995.13l.032.004c.34.029.682.046 1.027.046h3.9c.55 0 1.1.065 1.634.193l.064.016c1.573.39 2.94 1.315 3.827 2.638.421.627.587 1.148.446 1.393-.267.462-1.506.746-2.763.801A66.873 66.873 0 0030.716 42H21c-3.131 0-5 1.495-5 4a1 1 0 102 0c0-.495 0-2 3-2h9.694c.227.014.663.033 1.212.013l.532.009c4.693.087 9.094.063 11.408-1.169l8.618-5.27c4.124-2.167 4.539-1.586 5.367-.432a.922.922 0 01-.159 1.236z"/><path d="M32 28.999c0-2.757-2.243-5-5-5s-5 2.243-5 5 2.243 5 5 5 5-2.243 5-5zm-5 3c-1.654 0-3-1.346-3-3s1.346-3 3-3 3 1.346 3 3-1.346 3-3 3zM42 18.999c4.963 0 9-4.038 9-9s-4.037-9-9-9-9 4.038-9 9 4.037 9 9 9zm0-16c3.859 0 7 3.14 7 7s-3.141 7-7 7-7-3.14-7-7 3.141-7 7-7z"/><path d="M42 14.999c2.757 0 5-2.243 5-5s-2.243-5-5-5-5 2.243-5 5 2.243 5 5 5zm0-8c1.654 0 3 1.346 3 3s-1.346 3-3 3-3-1.346-3-3 1.346-3 3-3z"/></g><defs><clipPath id="alclip0"><path fill="#fff" d="M0 0h59.998v59.998H0z"/></clipPath></defs></symbol><symbol fill="none" viewBox="0 0 60 56" id="inc-ladders" xmlns="http://www.w3.org/2000/svg"><path d="M59 53.5v-39H47v39h-3v-31H32v31h-3v-23H17v23h-3v-14H2v14H1a1 1 0 100 2h58a1 1 0 100-2zm-55 0v-12h8v12H4zm15 0v-21h8v21h-8zm15 0v-29h8v29h-8zm15 0v-37h8v37h-8zM8.03 25.83a.995.995 0 00.5-.134l36.268-20.94-2.27 4.99a.999.999 0 00.91 1.414c.38 0 .743-.218.911-.586l3.562-7.83c.011-.025.01-.052.018-.078a.96.96 0 00.044-.16c.005-.028.021-.051.023-.08.001-.012-.004-.022-.003-.034.002-.038-.002-.073-.004-.111a.995.995 0 00-.024-.162c-.008-.038-.01-.077-.023-.114-.012-.036-.033-.066-.049-.101-.013-.023-.013-.05-.027-.074-.014-.024-.038-.038-.054-.061-.021-.031-.037-.064-.062-.092-.026-.03-.059-.051-.089-.078a1.032 1.032 0 00-.128-.101c-.03-.02-.059-.042-.093-.059-.011-.005-.017-.015-.028-.02-.025-.011-.052-.009-.077-.018a.968.968 0 00-.166-.044c-.026-.005-.047-.02-.074-.022l-8.562-.83a.996.996 0 00-1.092.898 1 1 0 00.898 1.092l5.456.529-36.266 20.94a1 1 0 00.501 1.866z" fill="currentColor"/></symbol><symbol fill="none" viewBox="0 0 60 60" id="inc-purse" xmlns="http://www.w3.org/2000/svg"><path d="M56.754 35.75h-.543V12.954a3.25 3.25 0 00-3.246-3.247h-.541V.879a.879.879 0 00-.88-.879H8.456A4.672 4.672 0 003.79 4.668v6.443A8.487 8.487 0 000 18.161v33.384C0 56.207 3.793 60 8.455 60H44.01a.879.879 0 000-1.758H8.455a6.705 6.705 0 01-6.697-6.697V23.317a8.446 8.446 0 006.697 3.3h44.51c.82 0 1.488.668 1.488 1.49v7.643h-4.802a6.569 6.569 0 00-6.561 6.561 6.569 6.569 0 006.56 6.562h4.803v7.88a1.49 1.49 0 01-1.488 1.49h-4.854a.879.879 0 000 1.757h4.854a3.25 3.25 0 003.246-3.246v-7.881h.543A3.25 3.25 0 0060 45.626v-6.63a3.25 3.25 0 00-3.246-3.246zm-3.789-24.285c.82 0 1.488.668 1.488 1.489v8.48a3.227 3.227 0 00-1.488-.363h-.541v-9.607h.541zm0 13.394H8.455a6.705 6.705 0 01-6.697-6.697 6.72 6.72 0 012.03-4.8v4.8a4.672 4.672 0 004.667 4.667h5.482a.879.879 0 000-1.758H8.455a2.913 2.913 0 01-2.909-2.91V8.314a4.643 4.643 0 002.91 1.02h32.267a.879.879 0 000-1.757H8.455a2.912 2.912 0 01-2.909-2.909 2.912 2.912 0 012.91-2.91h42.21v2.031H8.456a.879.879 0 000 1.758h42.21v2.03h-5.842a.879.879 0 000 1.758h5.842v11.738h-2.03v-2.91a.879.879 0 00-.88-.879c-2.778 0-5.04-2.26-5.04-5.04a.879.879 0 00-.878-.879H11.533a.879.879 0 000 1.758h29.483a6.813 6.813 0 005.862 5.863v2.087h-28.84a.879.879 0 000 1.757h34.927a1.49 1.49 0 011.488 1.478v.915a3.223 3.223 0 00-1.488-.363zm5.277 20.767a1.49 1.49 0 01-1.488 1.489H49.65a4.809 4.809 0 01-4.804-4.804 4.809 4.809 0 014.804-4.803h7.103c.82 0 1.488.668 1.488 1.489v6.629z" fill="currentColor"/><path d="M49.65 39.538a2.776 2.776 0 00-2.772 2.774 2.776 2.776 0 002.773 2.773 2.776 2.776 0 002.773-2.773 2.776 2.776 0 00-2.773-2.773zm0 3.789a1.016 1.016 0 111.015-1.015c.001.56-.454 1.015-1.014 1.015z" fill="currentColor"/></symbol><symbol fill="none" viewBox="0 0 56 60" id="inc-storage" xmlns="http://www.w3.org/2000/svg"><path d="M.878 45.86H3.62V4.7c0-.486.394-.88.88-.88h3.081a.879.879 0 010 1.759H5.38v20.67H30.21V5.58H11.82a.879.879 0 010-1.758h19.269c.485 0 .879.393.879.879v41.16h1.56v-1.862c0-1.201.564-2.272 1.442-2.963l3.005-33.907a.878.878 0 01.507-.72S51.998-.012 53.025 0a2.97 2.97 0 011.2 5.69l-10.29 4.541-.592 6.222a.878.878 0 11-1.75-.166l.64-6.735a.88.88 0 01.52-.72l6.92-3.055V3.183L39.681 7.79 36.803 40.26c.8-.106 1.747-.05 2.486.262l1.91-20.088a.879.879 0 011.75.166l-2.02 21.256a3.75 3.75 0 01.669 2.142v6.698a.879.879 0 01-.88.88h-3.67c-.075.908-.27 1.697-.582 2.362A4.51 4.51 0 0132.24 60a4.51 4.51 0 01-4.505-4.505c0-1.679.924-3.145 2.29-3.92H11.6c-.074.91-.269 1.698-.581 2.363A4.51 4.51 0 016.794 60a4.51 4.51 0 01-4.505-4.505c0-1.679.924-3.145 2.29-3.92H.878a.879.879 0 01-.88-.879V46.74c.001-.485.395-.879.88-.879zM51.43 5l2.084-.919c1.238-.439.663-2.668-.758-2.292-.023-.03-1.255.553-1.326.583v2.629zM15.645 28.008v6.834h4.3v-6.834h-4.3zM37.3 41.984c-1.111 0-2.015.903-2.015 2.014v1.862h4.555v-1.862c0-1.11-.904-2.014-2.014-2.014H37.3zm-4.182 12.592c.7-.124 1.258-.526 1.626-1.135.284-.48.465-1.103.54-1.866h-2.166v3.001zm-.878 3.666a2.75 2.75 0 002.738-2.545c-.867.57-1.787.675-2.349.675-.31 0-.511-.032-.535-.036a.879.879 0 01-.733-.867v-2.575a2.751 2.751 0 00-1.868 2.601 2.75 2.75 0 002.747 2.747zM7.673 54.576c.705-.125 1.254-.529 1.628-1.14.282-.479.462-1.1.538-1.86H7.673v3zm-.88 3.666a2.75 2.75 0 002.74-2.545c-.869.57-1.788.675-2.35.675-.31 0-.511-.032-.535-.036a.879.879 0 01-.733-.867v-2.576a2.751 2.751 0 00-1.868 2.602 2.75 2.75 0 002.747 2.747zm-5.036-8.425H39.84v-2.2H27.278a.879.879 0 010-1.757h2.932V28.007h-8.508v7.713a.879.879 0 01-.879.88h-6.057a.879.879 0 01-.879-.88v-7.713H5.38V45.86h17.768a.879.879 0 010 1.758H1.757v2.2z" fill="currentColor"/><path d="M19.918 8.631c0-.485.394-.879.88-.879h5.714a.879.879 0 010 1.758h-5.715a.879.879 0 01-.879-.879zM26.512 11.293a.879.879 0 010 1.758h-2.519a.879.879 0 010-1.758h2.519z" fill="currentColor"/></symbol><symbol fill="none" viewBox="0 0 58 58" id="inc-symbol" xmlns="http://www.w3.org/2000/svg"><path d="M55.504 14.741l1.56-4.163a.937.937 0 00-1.473-1.053L40.568 21.898a2.816 2.816 0 00-.936 2.859c.084.33.178.695.27 1.044a1.306 1.306 0 01-.543 1.416l-.037.024a1.282 1.282 0 01-1.585-.129l-2.232-3.177-.536-2.681a3.502 3.502 0 01.523-2.647 3.543 3.543 0 011.819-1.39 2.505 2.505 0 011.926.137l2.468 1.234a.938.938 0 001.329-1.066l-.602-2.406a3.945 3.945 0 00-1.234-2.016l.749-3.726a1.882 1.882 0 00-1.25-2.15l-1.256-.422-.011-.004c-.039-.013-.079-.022-.117-.033V5.563a.938.938 0 00-1.875 0v1.202c-.04.01-.08.02-.118.032l-.011.004-1.254.422a1.883 1.883 0 00-1.251 2.152l.603 3.001a8.833 8.833 0 00-1.372.453l-1.187-1.781 1.171-3.513a2.815 2.815 0 00-1.623-3.5l-2.457-.983v-1.24a.938.938 0 00-1.875 0v1.24l-2.459.983a2.816 2.816 0 00-1.624 3.5l1.171 3.513-1.187 1.782a8.844 8.844 0 00-1.372-.454l.604-3.002a1.883 1.883 0 00-1.25-2.15L20.692 6.8l-.011-.004c-.04-.012-.079-.021-.117-.032V5.563a.938.938 0 00-1.875 0v1.202c-.04.01-.08.02-.118.032l-.011.004-1.254.422a1.884 1.884 0 00-1.251 2.152l.748 3.725a3.945 3.945 0 00-1.234 2.016l-.601 2.406a.938.938 0 001.328 1.066l2.468-1.234a2.505 2.505 0 011.926-.137 3.542 3.542 0 012.346 2.66c.09.455.089.922-.003 1.376l-.536 2.681-2.233 3.177a1.28 1.28 0 01-1.586.13l-.036-.025A1.306 1.306 0 0118.1 25.8l.27-1.044a2.815 2.815 0 00-.936-2.858L2.408 9.526a.938.938 0 00-1.474 1.052l1.56 4.163a14.436 14.436 0 004.268 6.01l.43.358-4.327-.54a.938.938 0 00-.896 1.45 11.35 11.35 0 005.49 4.357l.665.25-4.541.504a.938.938 0 00-.379 1.735l1.644.987a19.545 19.545 0 006.381 2.442 13.688 13.688 0 00-3.635 3.686.937.937 0 00.78 1.458h.37c1.82.001 3.616-.409 5.255-1.2v2.137a.937.937 0 001.6.663l2.15-2.15 1.212 1.212a.938.938 0 001.443-.142l.835-1.253c.291-.437.71-.774 1.198-.965v.141a2.833 2.833 0 01-.823 1.99l-.665.666A7.674 7.674 0 0018.687 44a.937.937 0 00.83.93l-.538 1.078-1.17.292-2.393-2.675a2.81 2.81 0 10-2.375 1.313c.306 0 .61-.052.898-.151l1.813 2.027-.105.027a.938.938 0 00.455 1.819l1.066-.267.823.913a.936.936 0 001.58-.941.939.939 0 00-.187-.314l-.156-.173.624-.156a.938.938 0 00.611-.49l1.147-2.294h.827a.937.937 0 00.838-.519c.391-.786.97-1.464 1.688-1.97l.266.399-2.211 3.87a11.546 11.546 0 00-1.519 5.72.938.938 0 001.875 0c.001-1.68.44-3.331 1.272-4.79l1.28-2.24-.112.28a12.813 12.813 0 00-.537 7.914.937.937 0 101.82-.454 10.95 10.95 0 01.458-6.764l.012-.03.494.742v9.092a.938.938 0 001.875 0v-9.092l.495-.742.012.03a10.951 10.951 0 01.459 6.763.938.938 0 101.819.455c.662-2.629.474-5.4-.537-7.915l-.113-.28 1.281 2.24a9.671 9.671 0 011.272 4.79.938.938 0 001.875 0c0-2.006-.524-3.977-1.519-5.72l-2.211-3.869.267-.4a5.311 5.311 0 011.687 1.971.937.937 0 00.839.519h.827l1.147 2.294a.939.939 0 00.61.49l2.425.608a3.75 3.75 0 104.366-5.149v-1.056a.938.938 0 00-1.875 0v1.056a3.76 3.76 0 00-2.78 3.143l-1.262-.316-.539-1.077a.937.937 0 00.83-.931 7.676 7.676 0 00-2.26-5.463l-.667-.666a2.834 2.834 0 01-.822-1.99v-.142c.489.192.907.53 1.198.966l.835 1.253a.937.937 0 001.443.142l1.212-1.212 2.15 2.15a.937.937 0 001.6-.663v-2.138a12.062 12.062 0 005.255 1.2h.37a.937.937 0 00.78-1.457 13.689 13.689 0 00-3.636-3.685 19.543 19.543 0 006.382-2.443l1.643-.986a.938.938 0 00-.379-1.735l-4.54-.505.663-.249a11.351 11.351 0 005.491-4.357.938.938 0 00-.896-1.45l-4.327.54.43-.358a14.435 14.435 0 004.268-6.01zM12.918 43.054a.938.938 0 11.662-1.696.937.937 0 01-.662 1.696zm31.081 5.633a1.875 1.875 0 01-1.621-.937h3.243a1.876 1.876 0 01-1.622.938zm1.622-2.812h-.684v-.684c.283.165.519.4.684.684zm-2.56-.684v.684h-.683c.165-.284.4-.52.684-.684zM24.312 25.25h9.376v10.836a.936.936 0 01-.641.89l-4.047 1.348-4.046-1.349a.936.936 0 01-.641-.889V25.25zm15.764-9.573a4.366 4.366 0 00-3.357-.239 5.427 5.427 0 00-3.593 4.075 5.366 5.366 0 00.005 2.108l.35 1.754h-3.4l.477-3.34A7.03 7.03 0 0137.516 14H38.6a2.074 2.074 0 012.012 1.57l.108.429-.645-.322zm-3.427-6.676l1.25-.42c.31-.097.642-.097.953 0l1.257.425-.646 3.215a3.954 3.954 0 00-.861-.096h-1.085c-.083 0-.165 0-.246.003l-.622-3.127zM26.3 5.776L29 4.696l2.698 1.08a.939.939 0 01.541 1.167l-1.102 3.307h-4.273L25.76 6.943a.939.939 0 01.541-1.167zm.387 6.348h4.622l1.08 1.62a8.93 8.93 0 00-3.391 4.69 8.931 8.931 0 00-3.39-4.69l1.08-1.62zm-7.54-3.543c.31-.097.642-.097.953 0l1.257.424-.627 3.123a9.725 9.725 0 00-.248-.004h-1.085c-.29.001-.578.033-.86.097l-.64-3.22 1.25-.42zm2.132 6.857a4.37 4.37 0 00-3.357.239l-.645.322.107-.428A2.074 2.074 0 0119.398 14h1.085a7.029 7.029 0 016.958 6.035l.477 3.34h-3.4l.35-1.753a5.366 5.366 0 00-.802-4.055 5.426 5.426 0 00-2.786-2.129zM19.68 35.665l-.2.3-1.067-1.066a.938.938 0 00-1.326 0l-1.212 1.212v-1.486a.937.937 0 00-1.458-.78 10.195 10.195 0 01-3.984 1.578c.94-.985 2.042-1.8 3.26-2.409l.726-.363a.937.937 0 00-.265-1.763l-2.124-.354a17.673 17.673 0 01-5.442-1.85l5.64-.627a.938.938 0 00.226-1.81l-4.335-1.626a9.5 9.5 0 01-3.092-1.892l5.107.638a.937.937 0 00.716-1.65L7.963 19.31a12.557 12.557 0 01-3.712-5.228l-.332-.883 12.32 10.145a.934.934 0 01.311.947l-.267 1.033a3.182 3.182 0 001.317 3.451l.036.025a3.156 3.156 0 004.017-.43.91.91 0 00.094-.113l.69-.981v2.192l-.671.503a3.846 3.846 0 01-4.434.123.937.937 0 10-1.04 1.56 5.722 5.722 0 006.144.123v2.011a4.43 4.43 0 00-2.757 1.876zm16.045 4.198a5.805 5.805 0 011.639 3.2h-1.248a7.165 7.165 0 00-2.946-2.714.937.937 0 00-1.2.318L29 45.122l-2.97-4.455a.938.938 0 00-1.199-.319 7.165 7.165 0 00-2.946 2.715h-1.248a5.807 5.807 0 011.639-3.2l.665-.665c.251-.252.472-.532.66-.834.231.168.488.3.76.39l4.343 1.448c.192.065.4.065.593 0l4.343-1.447a2.81 2.81 0 00.76-.392c.187.303.408.583.66.835l.665.665zM50.036 19.31l-2.887 2.406a.937.937 0 00.716 1.65l5.107-.638a9.497 9.497 0 01-3.092 1.892l-4.335 1.626a.937.937 0 00.226 1.81l5.64.626a17.673 17.673 0 01-5.442 1.85l-2.124.354a.937.937 0 00-.265 1.764l.727.363c1.217.609 2.32 1.424 3.259 2.409a10.195 10.195 0 01-3.985-1.579.938.938 0 00-1.457.781v1.487L40.912 34.9a.938.938 0 00-1.326 0l-1.066 1.066-.2-.3a4.43 4.43 0 00-2.758-1.877v-2.012a5.722 5.722 0 006.145-.123.938.938 0 00-1.04-1.56 3.846 3.846 0 01-4.434-.123l-.671-.502v-2.192l.69.982c.028.04.059.078.093.113a3.156 3.156 0 004.017.429l.037-.025a3.182 3.182 0 001.316-3.45c-.09-.346-.183-.707-.266-1.034a.934.934 0 01.31-.947L54.08 13.2l-.33.883a12.556 12.556 0 01-3.713 5.228z" fill="currentColor"/><path d="M26.462 34.35a.938.938 0 001.325 0 2.773 2.773 0 00.754-2.538h.968c.28.386.43.85.428 1.326v.55a.938.938 0 001.875 0v-.55a4.105 4.105 0 00-.888-2.56.94.94 0 01.888-.64.938.938 0 000-1.875 2.817 2.817 0 00-2.651 1.875h-1.099v-1.875a.938.938 0 00-1.875 0v2.812a.932.932 0 00.099.42l.345.688a.901.901 0 01-.17 1.042.937.937 0 000 1.325z" fill="currentColor"/></symbol><symbol fill="none" viewBox="0 0 37 60" id="inc-temp" xmlns="http://www.w3.org/2000/svg"><path d="M14.265 24.997c-.192-.395-.602-.63-1.098-.63h-3.32V17.87c0-.808-.658-1.465-1.466-1.465h-2.39c-.808 0-1.466.657-1.466 1.465v6.496h-3.32c-.496 0-.907.236-1.098.63-.192.395-.123.864.185 1.253l5.84 7.404c.264.333.647.524 1.054.524.406 0 .79-.191 1.053-.524l1.528-1.938a.88.88 0 00-1.38-1.089l-1.201 1.524-4.754-6.026h2.386c.808 0 1.465-.657 1.465-1.465v-6.496h1.805v6.496c0 .808.657 1.465 1.465 1.465h2.387L10.79 27.58a.879.879 0 101.38 1.088l1.909-2.419c.307-.39.376-.858.185-1.253z" fill="currentColor"/><path d="M26.45 38.327V11.719a.879.879 0 00-1.758 0v3.199h-5.219V4.338c0-1.423 1.17-2.58 2.61-2.58 1.439 0 2.61 1.157 2.61 2.58v3.28a.879.879 0 001.757 0v-3.28C26.45 1.946 24.491 0 22.083 0c-2.409 0-4.368 1.946-4.368 4.338v33.989c-4.206 1.739-6.99 5.843-6.99 10.404C10.725 54.944 15.82 60 22.083 60c6.262 0 11.357-5.056 11.357-11.27 0-4.56-2.784-8.664-6.99-10.403zm-4.367 19.915c-5.294 0-9.6-4.267-9.6-9.512 0-4.024 2.572-7.628 6.401-8.969a.879.879 0 00.589-.83v-8.218h1.942a.879.879 0 000-1.758h-1.942v-2.952h1.942a.879.879 0 000-1.758h-1.942v-2.953h1.942a.879.879 0 000-1.758h-1.942v-2.858h5.22v22.256c0 .373.235.706.588.83 3.829 1.34 6.402 4.945 6.402 8.968 0 5.245-4.307 9.512-9.6 9.512z" fill="currentColor"/><path d="M28.683 48.21a.878.878 0 10-1.752.142 4.699 4.699 0 01-1.455 3.798 4.877 4.877 0 01-3.462 1.357c-2.681-.038-4.832-2.212-4.795-4.846.029-2.015 1.353-3.805 3.295-4.453a5.626 5.626 0 001.645-.878 5.622 5.622 0 001.62.924 4.842 4.842 0 011.581.95.879.879 0 101.176-1.306 6.594 6.594 0 00-2.153-1.295 3.863 3.863 0 01-1.422-.919v-4.107a.879.879 0 00-1.758 0v4.266a3.86 3.86 0 01-1.246.697c-2.65.886-4.456 3.335-4.495 6.096-.052 3.603 2.877 6.576 6.527 6.628h.098a6.62 6.62 0 004.605-1.844 6.447 6.447 0 001.99-5.21zM33.079 0c-1.8 0-3.265 1.455-3.265 3.244 0 1.79 1.465 3.244 3.265 3.244s3.264-1.455 3.264-3.244C36.343 1.455 34.879 0 33.079 0zm0 4.73c-.83 0-1.507-.666-1.507-1.486s.676-1.486 1.507-1.486c.83 0 1.506.667 1.506 1.486 0 .82-.676 1.487-1.506 1.487z" fill="currentColor"/></symbol><symbol fill="none" viewBox="0 0 60 60" id="inc-time" xmlns="http://www.w3.org/2000/svg"><path d="M53.598 11.477h1.854a1.171 1.171 0 000-2.342h-4.45c-.647 0-1.171.524-1.171 1.17v4.451a1.171 1.171 0 002.342 0v-1.289A27.568 27.568 0 0157.658 30c0 15.25-12.407 27.658-27.658 27.658C14.75 57.658 2.342 45.25 2.342 30 2.342 14.75 14.75 2.342 30 2.342c1.128 0 2.263.069 3.374.204A1.172 1.172 0 0033.657.22 30.427 30.427 0 0030 0C21.987 0 14.453 3.12 8.787 8.787 3.12 14.453 0 21.987 0 30c0 8.013 3.12 15.547 8.787 21.213C14.453 56.88 21.987 60 30 60c8.013 0 15.547-3.12 21.213-8.787C56.88 45.547 60 38.013 60 30c0-6.762-2.26-13.254-6.402-18.523z" fill="currentColor"/><path d="M12.703 17.685a1.172 1.172 0 00-1.616.363 22.453 22.453 0 00-3.333 14.3 22.42 22.42 0 006.43 13.469c4.36 4.36 10.088 6.54 15.816 6.54 5.728 0 11.456-2.18 15.817-6.54 8.72-8.721 8.72-22.912 0-31.633a22.421 22.421 0 00-13.448-6.427 22.455 22.455 0 00-14.283 3.306 1.171 1.171 0 101.25 1.982C27.291 8.03 37.5 9.179 44.16 15.84c7.808 7.808 7.808 20.512 0 28.32-7.808 7.809-20.513 7.809-28.32 0-6.57-6.568-7.736-17.023-2.774-24.859a1.172 1.172 0 00-.363-1.616z" fill="currentColor"/><path d="M45.226 31.19h1.444a1.171 1.171 0 000-2.342h-1.444a1.171 1.171 0 000 2.342zM12.16 29.981c0 .647.525 1.171 1.171 1.171h1.444a1.171 1.171 0 000-2.342h-1.444c-.646 0-1.17.524-1.17 1.171zM31.19 14.775v-1.444a1.171 1.171 0 00-2.342 0v1.444a1.171 1.171 0 002.342 0zM28.813 45.224v1.445a1.171 1.171 0 002.342 0v-1.444a1.171 1.171 0 00-2.343 0zM24.132 22.474a1.171 1.171 0 00-1.656 1.656l3.969 3.969A4.01 4.01 0 0025.968 30a4.039 4.039 0 004.034 4.035A4.039 4.039 0 0034.037 30c0-.687-.173-1.334-.477-1.901l8.008-8.008a1.171 1.171 0 00-1.656-1.657l-8.009 8.009a4.01 4.01 0 00-1.9-.478 4.01 4.01 0 00-1.902.478l-3.969-3.97zM31.694 30c0 .933-.759 1.692-1.692 1.692-.933 0-1.692-.759-1.692-1.692 0-.933.759-1.692 1.692-1.692.933 0 1.692.759 1.692 1.692zM15.839 15.839c.219-.218.344-.52.344-.828 0-.308-.125-.609-.344-.828a1.179 1.179 0 00-.828-.343c-.308 0-.61.125-.828.343a1.18 1.18 0 00-.343.828c0 .31.125.61.343.828.218.218.52.343.828.343.309 0 .61-.125.828-.343zM38.112 3.499c.31 0 .612-.124.83-.343.218-.218.343-.519.343-.828 0-.308-.125-.61-.343-.828a1.181 1.181 0 00-.83-.343c-.308 0-.61.125-.827.343a1.18 1.18 0 00-.344.828 1.175 1.175 0 001.171 1.171z" fill="currentColor"/></symbol><symbol fill="none" viewBox="0 0 70 70" id="inc-truck" xmlns="http://www.w3.org/2000/svg"><path d="M13.09 47.126h-.012c-.566 0-1.02.459-1.02 1.025a1.03 1.03 0 001.031 1.026 1.025 1.025 0 000-2.051zM21.859 47.126h-.011c-.566 0-1.02.459-1.02 1.025a1.03 1.03 0 001.031 1.026 1.025 1.025 0 000-2.051zM58.027 47.126h-.011c-.566 0-1.02.459-1.02 1.025a1.03 1.03 0 001.031 1.026 1.025 1.025 0 000-2.051z" fill="currentColor"/><path d="M69.058 34.729l-1.379-1.379-2.777-8.332a1.026 1.026 0 00-.311-2.003h-9.934v-4.454c0-1.17-.952-2.121-2.121-2.121H2.12C.951 16.44 0 17.39 0 18.56v24.111c0 1.17.952 2.121 2.121 2.121h1.167v2.262c0 1.17.951 2.122 2.121 2.122H7.77a5.418 5.418 0 005.31 4.383c1.803 0 3.401-.886 4.385-2.246a5.405 5.405 0 004.384 2.246c2.631 0 4.83-1.89 5.31-4.383h25.546a5.418 5.418 0 005.31 4.383 5.415 5.415 0 005.41-5.409l-.002-.07h4.456c1.17 0 2.121-.951 2.121-2.121v-8.956c0-.86-.335-1.667-.942-2.275zM7.77 47.126H5.41a.07.07 0 01-.071-.07v-2.262h3.506a5.388 5.388 0 00-1.075 2.332zm5.31 4.384a3.362 3.362 0 01-3.357-3.358 3.362 3.362 0 013.337-3.358h.042a3.362 3.362 0 013.337 3.358 3.363 3.363 0 01-3.358 3.358zm8.769 0a3.362 3.362 0 01-3.359-3.358 3.362 3.362 0 013.338-3.358h.042a3.362 3.362 0 013.337 3.358 3.363 3.363 0 01-3.358 3.358zm30.856-4.384H27.159a5.387 5.387 0 00-1.074-2.333H45.96a1.025 1.025 0 000-2.05H2.12a.07.07 0 01-.07-.07V18.56a.07.07 0 01.07-.07h50.414a.07.07 0 01.07.07v24.182h-2.261a1.025 1.025 0 100 2.05h3.435a5.387 5.387 0 00-1.074 2.333zm13.02-13.151h-6.614a.07.07 0 01-.07-.071V29.45h5.176l1.508 4.525zm-7.71 17.535a3.362 3.362 0 01-3.358-3.358 3.362 3.362 0 013.337-3.358h.029a3.362 3.362 0 013.35 3.357 3.363 3.363 0 01-3.358 3.359zm9.934-5.55a.07.07 0 01-.07.07H62.99a5.417 5.417 0 00-4.976-3.288h-3.358V25.138a.07.07 0 01.07-.071h8.029l.778 2.333h-5.519c-.566 0-1.025.459-1.025 1.025v5.48c0 1.17.951 2.121 2.121 2.121h8.343l.154.154c.22.22.341.513.341.825v2.45h-1.166a1.025 1.025 0 000 2.052h1.166v4.454z" fill="currentColor"/><path d="M49.246 38.359H5.408a1.025 1.025 0 100 2.05h43.839a1.025 1.025 0 000-2.05z" fill="currentColor"/></symbol><symbol fill="none" viewBox="0 0 60 60" id="inc-trust" xmlns="http://www.w3.org/2000/svg"><path d="M54.648 1.885a3.75 3.75 0 00-4.023 3.74v16.031a4.463 4.463 0 00-3.037-1.031 4.647 4.647 0 00-1.716.422c.044-.445.066-.898.066-1.36V8.437a.938.938 0 00-.609-.878l-15-5.625a.946.946 0 00-.656 0l-15 5.625a.937.937 0 00-.61.878v11.25c0 .46.021.915.065 1.364a4.672 4.672 0 00-1.715-.42 4.475 4.475 0 00-3.038 1.025V5.625a3.75 3.75 0 00-4.024-3.74 3.85 3.85 0 00-3.476 3.898v30.582c0 .925.274 1.83.788 2.6L6.686 45h-.123a.938.938 0 00-.938.937v3.75a.937.937 0 00.938.938H7.5v6.562a.937.937 0 00.938.938h13.125a.937.937 0 00.937-.938v-6.562h.938a.937.937 0 00.937-.938v-3.75a.938.938 0 00-.937-.937h-1.374l-4.72-7.075a2.802 2.802 0 01-.469-1.56v-8.382c.4.532.834 1.037 1.301 1.51L29.328 40.97a.938.938 0 001.344 0L41.82 29.5c.469-.476.905-.983 1.306-1.518v8.382a2.802 2.802 0 01-.469 1.56L37.936 45h-1.373a.937.937 0 00-.938.937v3.75a.937.937 0 00.938.938h.937v6.562a.937.937 0 00.938.938h13.125a.937.937 0 00.937-.938v-6.562h.938a.937.937 0 00.937-.938v-3.75a.938.938 0 00-.937-.937h-.124l4.024-6.036c.514-.77.788-1.674.787-2.6V5.785a3.85 3.85 0 00-3.477-3.899zM20.625 56.25H9.375v-5.625h11.25v5.625zm1.875-7.5h-15v-1.875h15v1.875zM19.811 45H8.94l-4.72-7.075a2.802 2.802 0 01-.469-1.56V5.783a1.997 1.997 0 011.736-2.028A1.914 1.914 0 016.95 4.3a1.862 1.862 0 01.55 1.325v30h1.875v-10.1a3.131 3.131 0 01.97-2.25 2.674 2.674 0 011.978-.775A2.806 2.806 0 0115 25.312v11.053c0 .925.274 1.83.788 2.6L19.81 45zm20.673-16.818L30 38.967 19.516 28.186l-.01-.01a11.79 11.79 0 01-3.568-8.489v-10.6L30 3.814l14.063 5.273v10.6a11.8 11.8 0 01-3.579 8.495zM50.625 56.25h-11.25v-5.625h11.25v5.625zm1.875-7.5h-15v-1.875h15v1.875zm3.75-12.385a2.802 2.802 0 01-.469 1.56L51.061 45H40.186l4.024-6.036c.515-.769.79-1.674.79-2.6V25.313a2.806 2.806 0 012.678-2.812 2.69 2.69 0 011.977.766 3.13 3.13 0 01.97 2.258v10.1H52.5v-30a1.862 1.862 0 01.55-1.324 1.888 1.888 0 011.464-.545 1.997 1.997 0 011.736 2.028v30.582z" fill="currentColor"/><path d="M41.611 10.384l-11.25-4.687a.938.938 0 00-.722 0l-11.25 4.687a.938.938 0 00-.576.866v8.303a10.244 10.244 0 003.02 7.293l8.504 8.504a.937.937 0 001.326 0l8.504-8.504a10.243 10.243 0 003.02-7.293V11.25a.938.938 0 00-.576-.866zm-1.298 9.17a8.383 8.383 0 01-2.472 5.966L30 33.362l-7.841-7.842a8.385 8.385 0 01-2.471-5.967v-7.678L30 7.578l10.313 4.297v7.678z" fill="currentColor"/><path d="M23.484 18.409l-1.325 1.325 5.303 5.304a.938.938 0 001.326 0l9.281-9.281-1.326-1.326-8.618 8.618-4.64-4.64z" fill="currentColor"/></symbol><symbol fill="none" viewBox="0 0 60 60" id="inc-zip" xmlns="http://www.w3.org/2000/svg"><path d="M54 13.08V11a5.006 5.006 0 00-5-5H32V5a5.006 5.006 0 00-5-5H5a5.006 5.006 0 00-5 5v44a7.008 7.008 0 007 7h15.188A2.982 2.982 0 0025 60h10a2.982 2.982 0 002.812-4H53a7.008 7.008 0 007-7V20a7 7 0 00-6-6.92zM2 49V5a3 3 0 013-3h22a3 3 0 013 3v2a1 1 0 001 1h18a3 3 0 013 3v2H24a1 1 0 100 2h5v25h-2a2 2 0 00-2 2v4c.001.582.257 1.134.7 1.511L23 54H7a5.006 5.006 0 01-5-5zm25-3v-4h6v4h-6zm8.832 11.555A.984.984 0 0135 58H25a1 1 0 01-.923-1.384L27.667 48h4.666l3.59 8.616a.983.983 0 01-.091.939zM58 49a5.006 5.006 0 01-5 5H37l-2.7-6.489c.443-.377.699-.93.7-1.511v-4a2 2 0 00-2-2h-2V15h22a5.006 5.006 0 015 5v29z" fill="currentColor"/><path d="M19 13h-4a1 1 0 100 2h4a1 1 0 100-2zM26 19h1a1 1 0 100-2h-1a1 1 0 100 2zM26 23h1a1 1 0 100-2h-1a1 1 0 100 2zM26 27h1a1 1 0 100-2h-1a1 1 0 100 2zM26 31h1a1 1 0 100-2h-1a1 1 0 100 2zM26 35h1a1 1 0 100-2h-1a1 1 0 100 2zM26 39h1a1 1 0 100-2h-1a1 1 0 100 2zM34 19h-1a1 1 0 100 2h1a1 1 0 100-2zM34 23h-1a1 1 0 100 2h1a1 1 0 100-2zM34 27h-1a1 1 0 100 2h1a1 1 0 100-2zM34 31h-1a1 1 0 100 2h1a1 1 0 100-2zM34 35h-1a1 1 0 100 2h1a1 1 0 100-2zM31 54h-2a1 1 0 100 2h2a1 1 0 100-2z" fill="currentColor"/></symbol><symbol viewBox="0 0 69 60" id="logo" xmlns="http://www.w3.org/2000/svg"><path d="M30.214 24.429l-4.928.857L37.07 44.357 34.93 48 23.143 28.929 18 29.786 30.857 50.57l-4.071.215L13.929 30l-4.715-.429L27.857 60h14.357l7.072-12-7.929-12.857-1.286 5.357-9.857-16.071zM36.643 20.571l1.714-4.714h-22.5l-1.714-3.643h22.5L38.357 7.5H14.143l1.714-3.643h24.429L43.07 0H7.5L0 12.214 6.643 24.43h15l-3.857-3.858h18.857zM37.071 28.286l3.215 3.857L51 12.214l4.071.215-10.5 19.714L47.786 36l11.357-21.429L61.714 18 50.143 39.429l1.928 4.285L69 12.43 61.714 0H48l-7.286 13.286 5.143-1.5-8.786 16.5z" fill="currentColor"/></symbol><symbol viewBox="0 0 14 20" id="marker" xmlns="http://www.w3.org/2000/svg"><path d="M6.667 0A6.674 6.674 0 000 6.667a6.68 6.68 0 00.8 3.168l5.502 9.95a.416.416 0 00.73 0l5.503-9.953a6.678 6.678 0 00.798-3.165A6.674 6.674 0 006.667 0zm0 10a3.337 3.337 0 01-3.334-3.333 3.337 3.337 0 013.334-3.334A3.337 3.337 0 0110 6.667 3.337 3.337 0 016.667 10z" fill="currentColor"/></symbol><symbol viewBox="0 0 14 14" id="phone" xmlns="http://www.w3.org/2000/svg"><path fill-rule="evenodd" clip-rule="evenodd" d="M.778 0A.777.777 0 000 .778C0 8.08 5.92 14 13.222 14c.43 0 .778-.348.778-.778V10.5a.777.777 0 00-.778-.777c-.97 0-1.904-.156-2.778-.443a.775.775 0 00-.79.19l-1.711 1.714a11.73 11.73 0 01-5.125-5.122l1.711-1.717a.778.778 0 00.19-.789A8.92 8.92 0 014.278.778.777.777 0 003.5 0H.778z" fill="currentColor"/></symbol><symbol fill="none" viewBox="0 0 30 30" id="print" xmlns="http://www.w3.org/2000/svg"><path d="M27.5 8.25H25v-4h-2v-2H7v2H5v4H2.5a2.503 2.503 0 00-2.5 2.5v11h7v6h16v-6h7v-11a2.503 2.503 0 00-2.5-2.5zm-4.5-3h1v3h-1v-3zm-15-2h14v8H8v-8zm-2 2h1v3H6v-3zm16 21.5H8v-5h14v5zm2.5-6h-19v-1h19v1zm4.5 0h-3.5v-2h-21v2H1v-10a1.5 1.5 0 011.5-1.5H7v2H5.5a.5.5 0 000 1h19a.5.5 0 000-1H23v-2h4.5a1.5 1.5 0 011.5 1.5v10z" fill="currentColor"/><path d="M3.5 14.75a1.5 1.5 0 100 3 1.5 1.5 0 000-3zm0 2a.5.5 0 110-1 .5.5 0 010 1zM7.5 14.75a1.5 1.5 0 100 3 1.5 1.5 0 000-3zm0 2a.5.5 0 110-1 .5.5 0 010 1zM20 22.75H10v1h10v-1zM20 24.75H10v1h10v-1z" fill="currentColor"/></symbol><symbol viewBox="0 0 279 279" id="round-bg" xmlns="http://www.w3.org/2000/svg"><circle cx="140.143" cy="139.143" r="122.143" fill="currentColor"/><path d="M239.346 131.278c2.317 28.305-7.352 57.407-29.007 79.061-21.654 21.655-50.756 31.324-79.061 29.007l-2.754 2.754c29.934 3.184 60.993-6.696 83.937-29.639 22.943-22.944 32.823-54.003 29.639-83.937l-2.754 2.754zM45.32 173.726C32.47 138.297 40.25 97.069 68.66 68.66c28.41-28.41 69.637-36.19 105.066-23.34l2.335-2.335c-36.78-13.91-79.911-6.058-109.523 23.553-29.61 29.612-37.462 72.743-23.553 109.523l2.335-2.335z"/></symbol><symbol viewBox="0 0 12 12" id="subtract" xmlns="http://www.w3.org/2000/svg"><path fill-rule="evenodd" clip-rule="evenodd" d="M8.289 2.5a2.5 2.5 0 11-5 0 2.5 2.5 0 015 0zm3.028 9.5c-.824-3.496-3.046-6-5.658-6C3.046 6 .824 8.504 0 12h11.317z" fill="currentColor"/></symbol><symbol viewBox="0 0 5 4" id="triangle" xmlns="http://www.w3.org/2000/svg"><path d="M2.708 4L.724.25h3.969L2.708 4z" fill="currentColor"/></symbol><symbol viewBox="0 0 28 28" id="web2ru" xmlns="http://www.w3.org/2000/svg"><path fill="currentColor" d="M5.5 25.1c1.5 0 2.6-1.2 2.6-2.6 0-.7-.2-1.3-.7-1.8l2.1-4c.2.1.5.1.7.1.6 0 1.2-.2 1.7-.6l2.9 2.4c-.1.3-.2.7-.2 1 0 1.5 1.2 2.6 2.6 2.6 1.5 0 2.6-1.2 2.6-2.6 0-.7-.3-1.4-.9-2l3.3-11.4c1.5 0 2.6-1.2 2.6-2.6 0-1.5-1.2-2.6-2.6-2.6-1.4 0-2.6 1-2.6 2.5 0 .9.5 1.7 1.2 2.2l-3.2 11.2h-.4c-.5 0-1 .2-1.5.5l-3-2.5c.1-.3.1-.5.1-.8 0-1.5-1.2-2.6-2.6-2.6-1.4 0-2.6 1.1-2.6 2.5 0 .6.2 1.3.7 1.7l-2.1 4.1c-.2-.1-.4-.1-.7-.1-1.5 0-2.6 1.2-2.6 2.6 0 1.4 1.1 2.8 2.6 2.8zm-1.2-2.7c0-.6.5-1.1 1.1-1.1.6 0 1.1.5 1.1 1.1 0 .6-.5 1.1-1.1 1.1-.6.1-1.1-.5-1.1-1.1zM9.1 14c0-.6.5-1.1 1.1-1.1.6 0 1.1.5 1.1 1.1 0 .6-.5 1.1-1.1 1.1-.6 0-1.1-.4-1.1-1.1zm7 5.5c0-.6.5-1.1 1.1-1.1.6 0 1.1.5 1.1 1.1 0 .6-.5 1.1-1.1 1.1-.6.1-1.1-.4-1.1-1.1zm5-16c0-.6.5-1.1 1.1-1.1.6 0 1.1.5 1.1 1.1 0 .6-.5 1.1-1.1 1.1-.6 0-1.1-.5-1.1-1.1zm7.4 22.9h-.2l-4.5-1.8-.4-.2v2H1.5V5.3h2.1l-.2-.4L1.5.2V0H0v27.9h28.7v-1.5h-.2z"/></symbol><symbol viewBox="0 0 20 20" id="weight" xmlns="http://www.w3.org/2000/svg"><path d="M16.02 7.813V3.941A3.94 3.94 0 0012.08 0H7.92a3.94 3.94 0 00-3.94 3.94v3.873A7.808 7.808 0 007.021 20h5.957A7.808 7.808 0 0016.02 7.813zM6.48 4.045c0-.853.69-1.545 1.544-1.545h3.952c.853 0 1.545.692 1.545 1.545v1.769A7.773 7.773 0 0010 4.976a7.773 7.773 0 00-3.52.838v-1.77zM10 16.94a3.592 3.592 0 01-3.588-3.588h1.176A2.415 2.415 0 0010 15.764a2.415 2.415 0 002.412-2.412h1.176A3.592 3.592 0 0110 16.94zm-.588-3.588v-1.417a.588.588 0 111.176 0v1.417a.588.588 0 11-1.176 0zm3-1.287A2.415 2.415 0 0010 9.653a2.415 2.415 0 00-2.412 2.412H6.412A3.592 3.592 0 0110 8.477a3.592 3.592 0 013.588 3.588h-1.176z" fill="currentColor"/></symbol></svg>