<?xml version="1.0" encoding="utf-8"?><svg xmlns="http://www.w3.org/2000/svg" xmlns:xlink="http://www.w3.org/1999/xlink"><symbol viewBox="0 0 12 8" id="angle" xmlns="http://www.w3.org/2000/svg"><path fill-rule="evenodd" clip-rule="evenodd" d="M10.6 7.4L12 6 6 0 0 6l1.4 1.4L6 2.8l4.6 4.6z" fill="currentColor"/></symbol><symbol viewBox="0 0 15 7" id="arrow" xmlns="http://www.w3.org/2000/svg"><path fill-rule="evenodd" clip-rule="evenodd" d="M11.674.694l-.536.536 2.143 2.142H.959v.766h12.322L11.138 6.28l.536.535 3.06-3.06-3.06-3.062z" fill="currentColor"/></symbol><symbol viewBox="0 0 20 20" id="cube" xmlns="http://www.w3.org/2000/svg"><path d="M5.082 5.319l8.803-3.774L10.24.047a.632.632 0 00-.48 0L1.005 3.644l4.077 1.675zM15.523 2.218L6.718 5.99 10 7.339l8.995-3.695-3.472-1.426zM9.368 8.446L5.806 6.983v2.77a.632.632 0 01-1.265 0v-3.29L.438 4.778v11.13c0 .256.155.487.392.585L9.368 20V8.446zM10.632 8.446V20l8.538-3.508a.632.632 0 00.392-.584V4.778l-8.93 3.668z" fill="currentColor"/></symbol><symbol viewBox="0 0 18 12" id="envelope" xmlns="http://www.w3.org/2000/svg"><path d="M16.531 0H.72C.299 0 0 .302 0 .724v10.552c0 .422.3.724.719.724H16.53c.42 0 .719-.302.719-.724V.724c0-.422-.3-.724-.719-.724zm-5.27 6.513c1.317.904 4.791 3.618 4.791 3.618.12.12.12.361.06.482-.06.12-.3.241-.42.12 0 0-3.653-2.653-5.09-3.617-.06-.06-.12 0-.12 0L8.924 8.382c-.06.06-.18.12-.299.12-.12 0-.24-.06-.3-.12L6.769 7.116s-.06-.06-.12 0c-1.377.964-5.03 3.678-5.03 3.678-.12.12-.42 0-.48-.12-.06-.121-.06-.362.06-.483 0 0 3.474-2.653 4.792-3.558.06-.06 0-.12 0-.12L1.078 1.99c-.18-.18-.24-.422-.12-.603a.33.33 0 01.3-.181c.12 0 .18 0 .3.06l6.947 6.09c.06.061.12.061.18.061s.12 0 .18-.06l6.888-6.09c.06-.061.12-.061.24-.061.119 0 .239.06.299.18.12.182.06.423-.12.604L11.26 6.452c0-.06-.06 0 0 .06z" fill="currentColor"/></symbol><symbol viewBox="0 0 69 60" id="logo-bottom" xmlns="http://www.w3.org/2000/svg"><path d="M30.214 24.429l-4.928.857L37.07 44.357 34.93 48 23.143 28.929 18 29.786 30.857 50.57l-4.071.215L13.929 30l-4.715-.429L27.857 60h14.357l7.072-12-7.929-12.857-1.286 5.357-9.857-16.071z" fill="currentColor"/></symbol><symbol viewBox="0 0 69 60" id="logo-left" xmlns="http://www.w3.org/2000/svg"><path d="M36.643 20.571l1.714-4.714h-22.5l-1.714-3.643h22.5L38.357 7.5H14.143l1.714-3.643h24.429L43.07 0H7.5L0 12.214 6.643 24.43h15l-3.857-3.858h18.857z" fill="currentColor"/></symbol><symbol viewBox="0 0 69 60" id="logo-right" xmlns="http://www.w3.org/2000/svg"><path d="M37.071 28.286l3.215 3.857L51 12.214l4.071.215-10.5 19.714L47.786 36l11.357-21.429L61.714 18 50.143 39.429l1.928 4.285L69 12.43 61.714 0H48l-7.286 13.286 5.143-1.5-8.786 16.5z" fill="currentColor"/></symbol><symbol viewBox="0 0 14 20" id="marker" xmlns="http://www.w3.org/2000/svg"><path d="M6.667 0A6.674 6.674 0 000 6.667a6.68 6.68 0 00.8 3.168l5.502 9.95a.416.416 0 00.73 0l5.503-9.953a6.678 6.678 0 00.798-3.165A6.674 6.674 0 006.667 0zm0 10a3.337 3.337 0 01-3.334-3.333 3.337 3.337 0 013.334-3.334A3.337 3.337 0 0110 6.667 3.337 3.337 0 016.667 10z" fill="currentColor"/></symbol><symbol viewBox="0 0 14 14" id="phone" xmlns="http://www.w3.org/2000/svg"><path fill-rule="evenodd" clip-rule="evenodd" d="M.778 0A.777.777 0 000 .778C0 8.08 5.92 14 13.222 14c.43 0 .778-.348.778-.778V10.5a.777.777 0 00-.778-.777c-.97 0-1.904-.156-2.778-.443a.775.775 0 00-.79.19l-1.711 1.714a11.73 11.73 0 01-5.125-5.122l1.711-1.717a.778.778 0 00.19-.789A8.92 8.92 0 014.278.778.777.777 0 003.5 0H.778z" fill="currentColor"/></symbol><symbol viewBox="0 0 12 12" id="subtract" xmlns="http://www.w3.org/2000/svg"><path fill-rule="evenodd" clip-rule="evenodd" d="M8.289 2.5a2.5 2.5 0 11-5 0 2.5 2.5 0 015 0zm3.028 9.5c-.824-3.496-3.046-6-5.658-6C3.046 6 .824 8.504 0 12h11.317z" fill="currentColor"/></symbol><symbol viewBox="0 0 28 28" id="web2ru" xmlns="http://www.w3.org/2000/svg"><path fill="currentColor" d="M5.5 25.1c1.5 0 2.6-1.2 2.6-2.6 0-.7-.2-1.3-.7-1.8l2.1-4c.2.1.5.1.7.1.6 0 1.2-.2 1.7-.6l2.9 2.4c-.1.3-.2.7-.2 1 0 1.5 1.2 2.6 2.6 2.6 1.5 0 2.6-1.2 2.6-2.6 0-.7-.3-1.4-.9-2l3.3-11.4c1.5 0 2.6-1.2 2.6-2.6 0-1.5-1.2-2.6-2.6-2.6-1.4 0-2.6 1-2.6 2.5 0 .9.5 1.7 1.2 2.2l-3.2 11.2h-.4c-.5 0-1 .2-1.5.5l-3-2.5c.1-.3.1-.5.1-.8 0-1.5-1.2-2.6-2.6-2.6-1.4 0-2.6 1.1-2.6 2.5 0 .6.2 1.3.7 1.7l-2.1 4.1c-.2-.1-.4-.1-.7-.1-1.5 0-2.6 1.2-2.6 2.6 0 1.4 1.1 2.8 2.6 2.8zm-1.2-2.7c0-.6.5-1.1 1.1-1.1.6 0 1.1.5 1.1 1.1 0 .6-.5 1.1-1.1 1.1-.6.1-1.1-.5-1.1-1.1zM9.1 14c0-.6.5-1.1 1.1-1.1.6 0 1.1.5 1.1 1.1 0 .6-.5 1.1-1.1 1.1-.6 0-1.1-.4-1.1-1.1zm7 5.5c0-.6.5-1.1 1.1-1.1.6 0 1.1.5 1.1 1.1 0 .6-.5 1.1-1.1 1.1-.6.1-1.1-.4-1.1-1.1zm5-16c0-.6.5-1.1 1.1-1.1.6 0 1.1.5 1.1 1.1 0 .6-.5 1.1-1.1 1.1-.6 0-1.1-.5-1.1-1.1zm7.4 22.9h-.2l-4.5-1.8-.4-.2v2H1.5V5.3h2.1l-.2-.4L1.5.2V0H0v27.9h28.7v-1.5h-.2z"/></symbol><symbol viewBox="0 0 20 20" id="weight" xmlns="http://www.w3.org/2000/svg"><path d="M16.02 7.813V3.941A3.94 3.94 0 0012.08 0H7.92a3.94 3.94 0 00-3.94 3.94v3.873A7.808 7.808 0 007.021 20h5.957A7.808 7.808 0 0016.02 7.813zM6.48 4.045c0-.853.69-1.545 1.544-1.545h3.952c.853 0 1.545.692 1.545 1.545v1.769A7.773 7.773 0 0010 4.976a7.773 7.773 0 00-3.52.838v-1.77zM10 16.94a3.592 3.592 0 01-3.588-3.588h1.176A2.415 2.415 0 0010 15.764a2.415 2.415 0 002.412-2.412h1.176A3.592 3.592 0 0110 16.94zm-.588-3.588v-1.417a.588.588 0 111.176 0v1.417a.588.588 0 11-1.176 0zm3-1.287A2.415 2.415 0 0010 9.653a2.415 2.415 0 00-2.412 2.412H6.412A3.592 3.592 0 0110 8.477a3.592 3.592 0 013.588 3.588h-1.176z" fill="currentColor"/></symbol></svg>