<?xml version="1.0" encoding="utf-8"?><svg xmlns="http://www.w3.org/2000/svg" xmlns:xlink="http://www.w3.org/1999/xlink"><symbol viewBox="0 0 12 8" id="angle" xmlns="http://www.w3.org/2000/svg"><path fill-rule="evenodd" clip-rule="evenodd" d="M10.6 7.4L12 6 6 0 0 6l1.4 1.4L6 2.8l4.6 4.6z" fill="currentColor"/></symbol><symbol viewBox="0 0 15 7" id="arrow" xmlns="http://www.w3.org/2000/svg"><path fill-rule="evenodd" clip-rule="evenodd" d="M11.674.694l-.536.536 2.143 2.142H.959v.766h12.322L11.138 6.28l.536.535 3.06-3.06-3.06-3.062z" fill="currentColor"/></symbol><symbol viewBox="0 0 20 20" id="cube" xmlns="http://www.w3.org/2000/svg"><path d="M5.082 5.319l8.803-3.774L10.24.047a.632.632 0 00-.48 0L1.005 3.644l4.077 1.675zM15.523 2.218L6.718 5.99 10 7.339l8.995-3.695-3.472-1.426zM9.368 8.446L5.806 6.983v2.77a.632.632 0 01-1.265 0v-3.29L.438 4.778v11.13c0 .256.155.487.392.585L9.368 20V8.446zM10.632 8.446V20l8.538-3.508a.632.632 0 00.392-.584V4.778l-8.93 3.668z" fill="currentColor"/></symbol><symbol viewBox="0 0 18 12" id="envelope" xmlns="http://www.w3.org/2000/svg"><path d="M16.531 0H.72C.299 0 0 .302 0 .724v10.552c0 .422.3.724.719.724H16.53c.42 0 .719-.302.719-.724V.724c0-.422-.3-.724-.719-.724zm-5.27 6.513c1.317.904 4.791 3.618 4.791 3.618.12.12.12.361.06.482-.06.12-.3.241-.42.12 0 0-3.653-2.653-5.09-3.617-.06-.06-.12 0-.12 0L8.924 8.382c-.06.06-.18.12-.299.12-.12 0-.24-.06-.3-.12L6.769 7.116s-.06-.06-.12 0c-1.377.964-5.03 3.678-5.03 3.678-.12.12-.42 0-.48-.12-.06-.121-.06-.362.06-.483 0 0 3.474-2.653 4.792-3.558.06-.06 0-.12 0-.12L1.078 1.99c-.18-.18-.24-.422-.12-.603a.33.33 0 01.3-.181c.12 0 .18 0 .3.06l6.947 6.09c.06.061.12.061.18.061s.12 0 .18-.06l6.888-6.09c.06-.061.12-.061.24-.061.119 0 .239.06.299.18.12.182.06.423-.12.604L11.26 6.452c0-.06-.06 0 0 .06z" fill="currentColor"/></symbol><symbol fill="none" viewBox="0 0 60 60" id="inc-check" xmlns="http://www.w3.org/2000/svg"><path d="M30 0C13.459 0 0 13.457 0 30s13.459 30 30 30 30-13.457 30-30S46.541 0 30 0zm0 57.692C14.731 57.692 2.308 45.27 2.308 30S14.73 2.308 30 2.308 57.692 14.73 57.692 30 45.27 57.692 30 57.692z" fill="currentColor"/><path d="M44.137 17.695l-17.733 19.95L15.72 29.1a1.154 1.154 0 00-1.44 1.802l11.537 9.23a1.152 1.152 0 001.585-.134l18.461-20.77a1.153 1.153 0 10-1.726-1.532z" fill="currentColor"/></symbol><symbol fill="none" viewBox="0 0 58 58" id="inc-doc" xmlns="http://www.w3.org/2000/svg"><path d="M46.93 55.25h-1.992v1.875h2.784a.938.938 0 00.924-.78l7.028-41.25-1.848-.315-6.895 40.47zM56.35 5.577L45.1 3.593l-.325 1.847 10.332 1.822-.962 5.643 1.849.315 1.118-6.562a.938.938 0 00-.762-1.081zM42.125.875H1.812a.937.937 0 00-.937.938V43.25H2.75V2.75h38.438v52.5H2.75V42.125H.875v14.063a.938.938 0 00.938.937h40.312a.938.938 0 00.938-.938V1.813a.938.938 0 00-.938-.938z" fill="currentColor"/><path d="M9.975 32.087L8.65 33.413l2.813 2.813a.937.937 0 00.663.274h.036a.938.938 0 00.676-.327l5.625-6.563-1.424-1.22-4.966 5.794-2.097-2.097z" fill="currentColor"/><path d="M5.563 36.031a3.285 3.285 0 003.28 3.282h4.688a3.285 3.285 0 003.281-3.282v-.468h-1.875v.468a1.408 1.408 0 01-1.406 1.407H8.844a1.408 1.408 0 01-1.406-1.407v-4.687a1.408 1.408 0 011.406-1.407h4.219v-1.875h-4.22a3.285 3.285 0 00-3.28 3.282v4.687zM9.975 46.15L8.65 47.475l2.813 2.813a.937.937 0 00.663.275l.036-.001a.938.938 0 00.676-.327l5.625-6.562-1.424-1.22-4.966 5.793-2.097-2.096z" fill="currentColor"/><path d="M5.563 50.094a3.285 3.285 0 003.28 3.281h4.688a3.285 3.285 0 003.281-3.281v-.469h-1.875v.469a1.408 1.408 0 01-1.406 1.406H8.844a1.408 1.408 0 01-1.406-1.406v-4.688A1.408 1.408 0 018.844 44h4.219v-1.875h-4.22a3.285 3.285 0 00-3.28 3.281v4.688zM20.563 42.125h14.062V44H20.562v-1.875zM20.563 46.813h4.687v1.874h-4.688v-1.874zM27.125 46.813h7.5v1.874h-7.5v-1.874zM20.563 28.063h14.062v1.875H20.562v-1.875zM20.563 32.75h4.687v1.875h-4.688V32.75zM27.125 32.75h7.5v1.875h-7.5V32.75zM31.233 8.463l-8.425-3.757a.937.937 0 00-.764 0l-8.426 3.757a.937.937 0 00-.544 1.002l.702 4.46.004.021a15.345 15.345 0 006.054 9.624l2.043 1.505a.937.937 0 001.108.003l1.947-1.415a15.34 15.34 0 006.136-9.702l.71-4.495a.938.938 0 00-.545-1.003zm-2.015 5.195a13.474 13.474 0 01-5.389 8.488l-1.392 1.012-1.491-1.098a13.478 13.478 0 01-5.319-8.438l-.589-3.738 7.388-3.295 7.387 3.294-.595 3.775z" fill="currentColor"/><path d="M19.328 13.344l-1.326 1.325 2.813 2.813a.938.938 0 001.326 0l5.625-5.625-1.326-1.326-4.962 4.963-2.15-2.15zM33.688 4.625h1.874V6.5h-1.874V4.625zM37.438 4.625h1.874V6.5h-1.874V4.625z" fill="currentColor"/></symbol><symbol fill="none" viewBox="0 0 60 60" id="inc-purse" xmlns="http://www.w3.org/2000/svg"><path d="M56.754 35.75h-.543V12.954a3.25 3.25 0 00-3.246-3.247h-.541V.879a.879.879 0 00-.88-.879H8.456A4.672 4.672 0 003.79 4.668v6.443A8.487 8.487 0 000 18.161v33.384C0 56.207 3.793 60 8.455 60H44.01a.879.879 0 000-1.758H8.455a6.705 6.705 0 01-6.697-6.697V23.317a8.446 8.446 0 006.697 3.3h44.51c.82 0 1.488.668 1.488 1.49v7.643h-4.802a6.569 6.569 0 00-6.561 6.561 6.569 6.569 0 006.56 6.562h4.803v7.88a1.49 1.49 0 01-1.488 1.49h-4.854a.879.879 0 000 1.757h4.854a3.25 3.25 0 003.246-3.246v-7.881h.543A3.25 3.25 0 0060 45.626v-6.63a3.25 3.25 0 00-3.246-3.246zm-3.789-24.285c.82 0 1.488.668 1.488 1.489v8.48a3.227 3.227 0 00-1.488-.363h-.541v-9.607h.541zm0 13.394H8.455a6.705 6.705 0 01-6.697-6.697 6.72 6.72 0 012.03-4.8v4.8a4.672 4.672 0 004.667 4.667h5.482a.879.879 0 000-1.758H8.455a2.913 2.913 0 01-2.909-2.91V8.314a4.643 4.643 0 002.91 1.02h32.267a.879.879 0 000-1.757H8.455a2.912 2.912 0 01-2.909-2.909 2.912 2.912 0 012.91-2.91h42.21v2.031H8.456a.879.879 0 000 1.758h42.21v2.03h-5.842a.879.879 0 000 1.758h5.842v11.738h-2.03v-2.91a.879.879 0 00-.88-.879c-2.778 0-5.04-2.26-5.04-5.04a.879.879 0 00-.878-.879H11.533a.879.879 0 000 1.758h29.483a6.813 6.813 0 005.862 5.863v2.087h-28.84a.879.879 0 000 1.757h34.927a1.49 1.49 0 011.488 1.478v.915a3.223 3.223 0 00-1.488-.363zm5.277 20.767a1.49 1.49 0 01-1.488 1.489H49.65a4.809 4.809 0 01-4.804-4.804 4.809 4.809 0 014.804-4.803h7.103c.82 0 1.488.668 1.488 1.489v6.629z" fill="currentColor"/><path d="M49.65 39.538a2.776 2.776 0 00-2.772 2.774 2.776 2.776 0 002.773 2.773 2.776 2.776 0 002.773-2.773 2.776 2.776 0 00-2.773-2.773zm0 3.789a1.016 1.016 0 111.015-1.015c.001.56-.454 1.015-1.014 1.015z" fill="currentColor"/></symbol><symbol fill="none" viewBox="0 0 37 60" id="inc-temp" xmlns="http://www.w3.org/2000/svg"><path d="M14.265 24.997c-.192-.395-.602-.63-1.098-.63h-3.32V17.87c0-.808-.658-1.465-1.466-1.465h-2.39c-.808 0-1.466.657-1.466 1.465v6.496h-3.32c-.496 0-.907.236-1.098.63-.192.395-.123.864.185 1.253l5.84 7.404c.264.333.647.524 1.054.524.406 0 .79-.191 1.053-.524l1.528-1.938a.88.88 0 00-1.38-1.089l-1.201 1.524-4.754-6.026h2.386c.808 0 1.465-.657 1.465-1.465v-6.496h1.805v6.496c0 .808.657 1.465 1.465 1.465h2.387L10.79 27.58a.879.879 0 101.38 1.088l1.909-2.419c.307-.39.376-.858.185-1.253z" fill="currentColor"/><path d="M26.45 38.327V11.719a.879.879 0 00-1.758 0v3.199h-5.219V4.338c0-1.423 1.17-2.58 2.61-2.58 1.439 0 2.61 1.157 2.61 2.58v3.28a.879.879 0 001.757 0v-3.28C26.45 1.946 24.491 0 22.083 0c-2.409 0-4.368 1.946-4.368 4.338v33.989c-4.206 1.739-6.99 5.843-6.99 10.404C10.725 54.944 15.82 60 22.083 60c6.262 0 11.357-5.056 11.357-11.27 0-4.56-2.784-8.664-6.99-10.403zm-4.367 19.915c-5.294 0-9.6-4.267-9.6-9.512 0-4.024 2.572-7.628 6.401-8.969a.879.879 0 00.589-.83v-8.218h1.942a.879.879 0 000-1.758h-1.942v-2.952h1.942a.879.879 0 000-1.758h-1.942v-2.953h1.942a.879.879 0 000-1.758h-1.942v-2.858h5.22v22.256c0 .373.235.706.588.83 3.829 1.34 6.402 4.945 6.402 8.968 0 5.245-4.307 9.512-9.6 9.512z" fill="currentColor"/><path d="M28.683 48.21a.878.878 0 10-1.752.142 4.699 4.699 0 01-1.455 3.798 4.877 4.877 0 01-3.462 1.357c-2.681-.038-4.832-2.212-4.795-4.846.029-2.015 1.353-3.805 3.295-4.453a5.626 5.626 0 001.645-.878 5.622 5.622 0 001.62.924 4.842 4.842 0 011.581.95.879.879 0 101.176-1.306 6.594 6.594 0 00-2.153-1.295 3.863 3.863 0 01-1.422-.919v-4.107a.879.879 0 00-1.758 0v4.266a3.86 3.86 0 01-1.246.697c-2.65.886-4.456 3.335-4.495 6.096-.052 3.603 2.877 6.576 6.527 6.628h.098a6.62 6.62 0 004.605-1.844 6.447 6.447 0 001.99-5.21zM33.079 0c-1.8 0-3.265 1.455-3.265 3.244 0 1.79 1.465 3.244 3.265 3.244s3.264-1.455 3.264-3.244C36.343 1.455 34.879 0 33.079 0zm0 4.73c-.83 0-1.507-.666-1.507-1.486s.676-1.486 1.507-1.486c.83 0 1.506.667 1.506 1.486 0 .82-.676 1.487-1.506 1.487z" fill="currentColor"/></symbol><symbol fill="none" viewBox="0 0 60 60" id="inc-trust" xmlns="http://www.w3.org/2000/svg"><path d="M54.648 1.885a3.75 3.75 0 00-4.023 3.74v16.031a4.463 4.463 0 00-3.037-1.031 4.647 4.647 0 00-1.716.422c.044-.445.066-.898.066-1.36V8.437a.938.938 0 00-.609-.878l-15-5.625a.946.946 0 00-.656 0l-15 5.625a.937.937 0 00-.61.878v11.25c0 .46.021.915.065 1.364a4.672 4.672 0 00-1.715-.42 4.475 4.475 0 00-3.038 1.025V5.625a3.75 3.75 0 00-4.024-3.74 3.85 3.85 0 00-3.476 3.898v30.582c0 .925.274 1.83.788 2.6L6.686 45h-.123a.938.938 0 00-.938.937v3.75a.937.937 0 00.938.938H7.5v6.562a.937.937 0 00.938.938h13.125a.937.937 0 00.937-.938v-6.562h.938a.937.937 0 00.937-.938v-3.75a.938.938 0 00-.937-.937h-1.374l-4.72-7.075a2.802 2.802 0 01-.469-1.56v-8.382c.4.532.834 1.037 1.301 1.51L29.328 40.97a.938.938 0 001.344 0L41.82 29.5c.469-.476.905-.983 1.306-1.518v8.382a2.802 2.802 0 01-.469 1.56L37.936 45h-1.373a.937.937 0 00-.938.937v3.75a.937.937 0 00.938.938h.937v6.562a.937.937 0 00.938.938h13.125a.937.937 0 00.937-.938v-6.562h.938a.937.937 0 00.937-.938v-3.75a.938.938 0 00-.937-.937h-.124l4.024-6.036c.514-.77.788-1.674.787-2.6V5.785a3.85 3.85 0 00-3.477-3.899zM20.625 56.25H9.375v-5.625h11.25v5.625zm1.875-7.5h-15v-1.875h15v1.875zM19.811 45H8.94l-4.72-7.075a2.802 2.802 0 01-.469-1.56V5.783a1.997 1.997 0 011.736-2.028A1.914 1.914 0 016.95 4.3a1.862 1.862 0 01.55 1.325v30h1.875v-10.1a3.131 3.131 0 01.97-2.25 2.674 2.674 0 011.978-.775A2.806 2.806 0 0115 25.312v11.053c0 .925.274 1.83.788 2.6L19.81 45zm20.673-16.818L30 38.967 19.516 28.186l-.01-.01a11.79 11.79 0 01-3.568-8.489v-10.6L30 3.814l14.063 5.273v10.6a11.8 11.8 0 01-3.579 8.495zM50.625 56.25h-11.25v-5.625h11.25v5.625zm1.875-7.5h-15v-1.875h15v1.875zm3.75-12.385a2.802 2.802 0 01-.469 1.56L51.061 45H40.186l4.024-6.036c.515-.769.79-1.674.79-2.6V25.313a2.806 2.806 0 012.678-2.812 2.69 2.69 0 011.977.766 3.13 3.13 0 01.97 2.258v10.1H52.5v-30a1.862 1.862 0 01.55-1.324 1.888 1.888 0 011.464-.545 1.997 1.997 0 011.736 2.028v30.582z" fill="currentColor"/><path d="M41.611 10.384l-11.25-4.687a.938.938 0 00-.722 0l-11.25 4.687a.938.938 0 00-.576.866v8.303a10.244 10.244 0 003.02 7.293l8.504 8.504a.937.937 0 001.326 0l8.504-8.504a10.243 10.243 0 003.02-7.293V11.25a.938.938 0 00-.576-.866zm-1.298 9.17a8.383 8.383 0 01-2.472 5.966L30 33.362l-7.841-7.842a8.385 8.385 0 01-2.471-5.967v-7.678L30 7.578l10.313 4.297v7.678z" fill="currentColor"/><path d="M23.484 18.409l-1.325 1.325 5.303 5.304a.938.938 0 001.326 0l9.281-9.281-1.326-1.326-8.618 8.618-4.64-4.64z" fill="currentColor"/></symbol><symbol fill="none" viewBox="0 0 60 60" id="inc-zip" xmlns="http://www.w3.org/2000/svg"><path d="M54 13.08V11a5.006 5.006 0 00-5-5H32V5a5.006 5.006 0 00-5-5H5a5.006 5.006 0 00-5 5v44a7.008 7.008 0 007 7h15.188A2.982 2.982 0 0025 60h10a2.982 2.982 0 002.812-4H53a7.008 7.008 0 007-7V20a7 7 0 00-6-6.92zM2 49V5a3 3 0 013-3h22a3 3 0 013 3v2a1 1 0 001 1h18a3 3 0 013 3v2H24a1 1 0 100 2h5v25h-2a2 2 0 00-2 2v4c.001.582.257 1.134.7 1.511L23 54H7a5.006 5.006 0 01-5-5zm25-3v-4h6v4h-6zm8.832 11.555A.984.984 0 0135 58H25a1 1 0 01-.923-1.384L27.667 48h4.666l3.59 8.616a.983.983 0 01-.091.939zM58 49a5.006 5.006 0 01-5 5H37l-2.7-6.489c.443-.377.699-.93.7-1.511v-4a2 2 0 00-2-2h-2V15h22a5.006 5.006 0 015 5v29z" fill="currentColor"/><path d="M19 13h-4a1 1 0 100 2h4a1 1 0 100-2zM26 19h1a1 1 0 100-2h-1a1 1 0 100 2zM26 23h1a1 1 0 100-2h-1a1 1 0 100 2zM26 27h1a1 1 0 100-2h-1a1 1 0 100 2zM26 31h1a1 1 0 100-2h-1a1 1 0 100 2zM26 35h1a1 1 0 100-2h-1a1 1 0 100 2zM26 39h1a1 1 0 100-2h-1a1 1 0 100 2zM34 19h-1a1 1 0 100 2h1a1 1 0 100-2zM34 23h-1a1 1 0 100 2h1a1 1 0 100-2zM34 27h-1a1 1 0 100 2h1a1 1 0 100-2zM34 31h-1a1 1 0 100 2h1a1 1 0 100-2zM34 35h-1a1 1 0 100 2h1a1 1 0 100-2zM31 54h-2a1 1 0 100 2h2a1 1 0 100-2z" fill="currentColor"/></symbol><symbol viewBox="0 0 69 60" id="logo-bottom" xmlns="http://www.w3.org/2000/svg"><path d="M30.214 24.429l-4.928.857L37.07 44.357 34.93 48 23.143 28.929 18 29.786 30.857 50.57l-4.071.215L13.929 30l-4.715-.429L27.857 60h14.357l7.072-12-7.929-12.857-1.286 5.357-9.857-16.071z" fill="currentColor"/></symbol><symbol viewBox="0 0 69 60" id="logo-left" xmlns="http://www.w3.org/2000/svg"><path d="M36.643 20.571l1.714-4.714h-22.5l-1.714-3.643h22.5L38.357 7.5H14.143l1.714-3.643h24.429L43.07 0H7.5L0 12.214 6.643 24.43h15l-3.857-3.858h18.857z" fill="currentColor"/></symbol><symbol viewBox="0 0 69 60" id="logo-right" xmlns="http://www.w3.org/2000/svg"><path d="M37.071 28.286l3.215 3.857L51 12.214l4.071.215-10.5 19.714L47.786 36l11.357-21.429L61.714 18 50.143 39.429l1.928 4.285L69 12.43 61.714 0H48l-7.286 13.286 5.143-1.5-8.786 16.5z" fill="currentColor"/></symbol><symbol viewBox="0 0 14 20" id="marker" xmlns="http://www.w3.org/2000/svg"><path d="M6.667 0A6.674 6.674 0 000 6.667a6.68 6.68 0 00.8 3.168l5.502 9.95a.416.416 0 00.73 0l5.503-9.953a6.678 6.678 0 00.798-3.165A6.674 6.674 0 006.667 0zm0 10a3.337 3.337 0 01-3.334-3.333 3.337 3.337 0 013.334-3.334A3.337 3.337 0 0110 6.667 3.337 3.337 0 016.667 10z" fill="currentColor"/></symbol><symbol viewBox="0 0 14 14" id="phone" xmlns="http://www.w3.org/2000/svg"><path fill-rule="evenodd" clip-rule="evenodd" d="M.778 0A.777.777 0 000 .778C0 8.08 5.92 14 13.222 14c.43 0 .778-.348.778-.778V10.5a.777.777 0 00-.778-.777c-.97 0-1.904-.156-2.778-.443a.775.775 0 00-.79.19l-1.711 1.714a11.73 11.73 0 01-5.125-5.122l1.711-1.717a.778.778 0 00.19-.789A8.92 8.92 0 014.278.778.777.777 0 003.5 0H.778z" fill="currentColor"/></symbol><symbol fill="none" viewBox="0 0 279 279" id="round-bg" xmlns="http://www.w3.org/2000/svg"><circle cx="140.143" cy="139.143" r="122.143" fill="currentColor"/><path d="M239.346 131.278c2.317 28.305-7.352 57.407-29.007 79.061-21.654 21.655-50.756 31.324-79.061 29.007l-2.754 2.754c29.934 3.184 60.993-6.696 83.937-29.639 22.943-22.944 32.823-54.003 29.639-83.937l-2.754 2.754zM45.32 173.726C32.47 138.297 40.25 97.069 68.66 68.66c28.41-28.41 69.637-36.19 105.066-23.34l2.335-2.335c-36.78-13.91-79.911-6.058-109.523 23.553-29.61 29.612-37.462 72.743-23.553 109.523l2.335-2.335z" fill="#fff"/></symbol><symbol viewBox="0 0 12 12" id="subtract" xmlns="http://www.w3.org/2000/svg"><path fill-rule="evenodd" clip-rule="evenodd" d="M8.289 2.5a2.5 2.5 0 11-5 0 2.5 2.5 0 015 0zm3.028 9.5c-.824-3.496-3.046-6-5.658-6C3.046 6 .824 8.504 0 12h11.317z" fill="currentColor"/></symbol><symbol viewBox="0 0 28 28" id="web2ru" xmlns="http://www.w3.org/2000/svg"><path fill="currentColor" d="M5.5 25.1c1.5 0 2.6-1.2 2.6-2.6 0-.7-.2-1.3-.7-1.8l2.1-4c.2.1.5.1.7.1.6 0 1.2-.2 1.7-.6l2.9 2.4c-.1.3-.2.7-.2 1 0 1.5 1.2 2.6 2.6 2.6 1.5 0 2.6-1.2 2.6-2.6 0-.7-.3-1.4-.9-2l3.3-11.4c1.5 0 2.6-1.2 2.6-2.6 0-1.5-1.2-2.6-2.6-2.6-1.4 0-2.6 1-2.6 2.5 0 .9.5 1.7 1.2 2.2l-3.2 11.2h-.4c-.5 0-1 .2-1.5.5l-3-2.5c.1-.3.1-.5.1-.8 0-1.5-1.2-2.6-2.6-2.6-1.4 0-2.6 1.1-2.6 2.5 0 .6.2 1.3.7 1.7l-2.1 4.1c-.2-.1-.4-.1-.7-.1-1.5 0-2.6 1.2-2.6 2.6 0 1.4 1.1 2.8 2.6 2.8zm-1.2-2.7c0-.6.5-1.1 1.1-1.1.6 0 1.1.5 1.1 1.1 0 .6-.5 1.1-1.1 1.1-.6.1-1.1-.5-1.1-1.1zM9.1 14c0-.6.5-1.1 1.1-1.1.6 0 1.1.5 1.1 1.1 0 .6-.5 1.1-1.1 1.1-.6 0-1.1-.4-1.1-1.1zm7 5.5c0-.6.5-1.1 1.1-1.1.6 0 1.1.5 1.1 1.1 0 .6-.5 1.1-1.1 1.1-.6.1-1.1-.4-1.1-1.1zm5-16c0-.6.5-1.1 1.1-1.1.6 0 1.1.5 1.1 1.1 0 .6-.5 1.1-1.1 1.1-.6 0-1.1-.5-1.1-1.1zm7.4 22.9h-.2l-4.5-1.8-.4-.2v2H1.5V5.3h2.1l-.2-.4L1.5.2V0H0v27.9h28.7v-1.5h-.2z"/></symbol><symbol viewBox="0 0 20 20" id="weight" xmlns="http://www.w3.org/2000/svg"><path d="M16.02 7.813V3.941A3.94 3.94 0 0012.08 0H7.92a3.94 3.94 0 00-3.94 3.94v3.873A7.808 7.808 0 007.021 20h5.957A7.808 7.808 0 0016.02 7.813zM6.48 4.045c0-.853.69-1.545 1.544-1.545h3.952c.853 0 1.545.692 1.545 1.545v1.769A7.773 7.773 0 0010 4.976a7.773 7.773 0 00-3.52.838v-1.77zM10 16.94a3.592 3.592 0 01-3.588-3.588h1.176A2.415 2.415 0 0010 15.764a2.415 2.415 0 002.412-2.412h1.176A3.592 3.592 0 0110 16.94zm-.588-3.588v-1.417a.588.588 0 111.176 0v1.417a.588.588 0 11-1.176 0zm3-1.287A2.415 2.415 0 0010 9.653a2.415 2.415 0 00-2.412 2.412H6.412A3.592 3.592 0 0110 8.477a3.592 3.592 0 013.588 3.588h-1.176z" fill="currentColor"/></symbol></svg>